<?xml version="1.0" encoding="UTF-8"?>
<svg version="1.1" xmlns="http://www.w3.org/2000/svg" width="1024" height="1024">
<path d="M0 0 C7.26 0 14.52 0 22 0 C22 0.66 22 1.32 22 2 C23.65 2.33 25.3 2.66 27 3 C27 3.66 27 4.32 27 5 C27.99 5.2784375 27.99 5.2784375 29 5.5625 C37.99565244 9.87291679 44.22587594 18.09376261 47.8125 27.25 C50.87134457 36.90950916 50.445366 44.50357023 47.55859375 54.203125 C46.48208376 59.59320299 48.50069308 63.28749565 51.1328125 67.9375 C51.77476562 69.08089844 52.41671875 70.22429687 53.078125 71.40234375 C53.76013212 72.60172435 54.44242468 73.80094268 55.125 75 C56.4422764 77.33211028 57.75630244 79.66604804 59.0703125 82 C59.71774414 83.14984375 60.36517578 84.2996875 61.03222656 85.484375 C63.03872092 89.06216003 65.02762778 92.64901154 66.9921875 96.25 C67.57081543 97.30703125 68.14944336 98.3640625 68.74560547 99.453125 C70 102 70 102 70 104 C70.59683594 103.67128906 71.19367188 103.34257812 71.80859375 103.00390625 C73.70561894 101.96378397 75.60575297 100.92932473 77.5078125 99.8984375 C79.927508 98.58303256 82.33698885 97.25521014 84.7421875 95.9140625 C106.72273627 83.79661502 130.28406896 75.4661078 155 71 C155.79229004 70.85667236 156.58458008 70.71334473 157.40087891 70.56567383 C171.20145586 68.21982282 184.91137597 67.70117756 198.875 67.6875 C199.68931488 67.68409607 200.50362976 67.68069214 201.34262085 67.67718506 C217.14048125 67.63939161 232.60561384 68.93533138 248.0625 72.3125 C249.59197266 72.64278198 249.59197266 72.64278198 251.15234375 72.97973633 C274.93014309 78.22605021 296.77954334 87.24257422 318.11035156 98.97607422 C320.70778321 100.38351974 323.3479399 101.69906831 326 103 C326 102.01 326 101.02 326 100 C327.485 99.505 327.485 99.505 329 99 C329.73409373 97.36191312 330.38004903 95.68460174 331 94 C332.49658525 90.94481424 334.0965614 87.94441844 335.6875 84.9375 C336.35036011 83.67147949 336.35036011 83.67147949 337.02661133 82.37988281 C339.57869038 77.54280812 342.27763275 72.87880093 345.1875 68.25 C347.15959915 64.89047109 347.98435373 63.43809545 348.125 59.5 C347.75375 58.345 347.3825 57.19 347 56 C343.56387241 44.64730394 342.78512519 34.33147001 347.77734375 23.2734375 C353.15683189 13.27068319 361.14785066 5.61738311 372 2 C383.10390084 -1.3167496 393.5895325 0.0354707 404 5 C412.91438341 10.07553044 419.080348 16.02452235 422 26 C422.66 26.33 423.32 26.66 424 27 C426.49054692 40.44895338 425.23796501 53.06334539 417.72265625 64.71484375 C411.9385175 72.38768087 404.03242713 76.98919096 395 80 C392.26710707 80.22797562 389.54957796 80.41668187 386.8125 80.5625 C386.06291016 80.60568359 385.31332031 80.64886719 384.54101562 80.69335938 C382.69421625 80.79922685 380.84713166 80.9000976 379 81 C378.79020508 81.51046875 378.58041016 82.0209375 378.36425781 82.546875 C377.33520983 85.03511964 376.29465159 87.5182639 375.25 90 C374.85965576 90.9273999 374.46931152 91.8547998 374.06713867 92.81030273 C370.34767954 101.48663562 366.10909047 109.86673785 361.63574219 118.17773438 C361.13333008 119.14130859 360.63091797 120.10488281 360.11328125 121.09765625 C359.65735596 121.94851807 359.20143066 122.79937988 358.73168945 123.67602539 C357.75439196 125.97993529 357.75439196 125.97993529 358.73876953 128.16943359 C360.42420152 130.61569164 362.4088988 132.51674737 364.5625 134.5625 C369.82637415 139.72819573 374.44752446 145.20594022 379 151 C380.20462891 152.49660156 380.20462891 152.49660156 381.43359375 154.0234375 C411.30803857 191.50983938 424.02332606 238.46014329 419.5 286.05859375 C414.46828145 329.72903523 394.95939261 370.02609651 365 402 C363.68989187 403.4669241 362.37979594 404.93385916 361.07006836 406.40112305 C350.75435841 417.86443978 339.28082172 427.34197078 326.93774414 436.52709961 C324.59160662 438.31042425 322.29551363 440.15214991 320 442 C320.66829834 442.39155273 321.33659668 442.78310547 322.02514648 443.18652344 C340.37593742 453.97314259 357.84748112 465.3663628 374.43603516 478.74023438 C375.90358785 479.92234051 377.37925762 481.09434941 378.85546875 482.265625 C385.1562676 487.32081138 391.09222073 492.69726674 396.98828125 498.2109375 C399.39678553 500.45787285 401.86143449 502.62051897 404.375 504.75 C407.54822627 507.50188502 410.26768811 510.46267168 412.9765625 513.66796875 C414.95855265 515.95223153 417.02208845 518.14265859 419.10668945 520.33300781 C426.14127704 527.7668894 432.35508598 535.69958669 438.44921875 543.9140625 C439.90230847 545.86859628 441.37060409 547.81056421 442.84375 549.75 C457.50223888 569.19354679 470.21738189 590.50809187 480.6953125 612.48046875 C481.88238972 615.0842308 481.88238972 615.0842308 484 617 C484.70477056 618.6509151 485.3675408 620.32005429 486 622 C486.68116361 623.56194716 487.37026824 625.1204502 488.06640625 626.67578125 C510 676.09617 510 676.09617 510 688 C510.66 688.33 511.32 688.66 512 689 C512.54492188 691.1237793 512.54492188 691.1237793 512.96875 693.88671875 C513.9125133 699.59630236 515.16698942 705.18339535 516.5 710.8125 C518.43736929 719.18732163 520.07569992 727.44485041 521 736 C521.11085938 736.94359375 521.22171875 737.8871875 521.3359375 738.859375 C523.39295514 759.87431195 524.60773334 780.58008162 511 798 C504.53083066 805.42495641 497.64703669 811.29203748 489 816 C487.54013672 816.80050781 487.54013672 816.80050781 486.05078125 817.6171875 C471.33243287 825.04099685 454.08954786 828.68729872 438 824 C433.01208524 822.02579906 429.14383861 819.40921662 425 816 C424.62488281 816.80824219 424.24976563 817.61648438 423.86328125 818.44921875 C418.80210824 829.0177639 418.80210824 829.0177639 414 833 C413.071875 833.9075 412.14375 834.815 411.1875 835.75 C399.65412007 845.40239951 384.95683889 850.91427817 371 856 C370.15808105 856.30679688 369.31616211 856.61359375 368.44873047 856.9296875 C339.3211564 867.3854533 308.74782457 873.21706175 278.125 877.25 C276.42041626 877.47647217 276.42041626 877.47647217 274.68139648 877.70751953 C270.79220258 878.19070673 266.89969592 878.61303367 263 879 C262.13064819 879.08720306 261.26129639 879.17440613 260.36560059 879.26425171 C242.42623638 881.0008552 224.57647263 881.34528896 206.57177734 881.31567383 C203.53809708 881.31106128 200.50481968 881.31791812 197.47119141 881.33618164 C169.62783982 881.501903 142.040564 879.95290553 114.5 875.625 C113.09051718 875.40919619 111.68101127 875.19354312 110.27148438 874.97802734 C71.35475732 868.95773263 25.75060735 861.46834965 -7 838 C-7.58910156 837.60554687 -8.17820312 837.21109375 -8.78515625 836.8046875 C-14.77606972 832.42258711 -19.3234535 824.59456473 -20.76538086 817.3515625 C-21.8502706 806.4778289 -20.75139511 795.49815086 -19.5625 784.6875 C-19.36043945 782.7684082 -19.36043945 782.7684082 -19.15429688 780.81054688 C-18.89376949 778.33871386 -18.63041013 775.86717714 -18.36376953 773.39599609 C-17.8857 768.93294428 -17.43790465 764.46714953 -17 760 C-17.27150879 760.70495605 -17.54301758 761.40991211 -17.82275391 762.13623047 C-19.08070237 765.3862412 -20.35274396 768.63056483 -21.625 771.875 C-22.05167969 772.98359375 -22.47835937 774.0921875 -22.91796875 775.234375 C-28.99129841 790.64431592 -35.9102051 801.58043677 -51.3984375 808.5234375 C-68.9275646 815.46288599 -86.81169593 814.6240386 -104.2421875 807.71484375 C-118.58610962 801.16335769 -126.46273071 790.82437584 -132.23828125 776.51953125 C-142.9325241 741.14626643 -120.74132588 694.45163275 -106.28564453 663.15161133 C-104.58238029 659.71953441 -104.58238029 659.71953441 -104 656 C-103.34 655.67 -102.68 655.34 -102 655 C-100.78669307 652.74671571 -99.66133457 650.49609596 -98.5625 648.1875 C-91.8027372 634.35913676 -84.42644827 620.87618253 -76.08447266 607.93554688 C-74.39078911 605.29984338 -72.99577725 602.98733175 -72 600 C-71.00442798 598.99559154 -70.00349443 597.99649331 -69 597 C-67.67424009 595.1278495 -66.38615375 593.22876669 -65.125 591.3125 C-64.06539062 589.70761719 -64.06539062 589.70761719 -62.984375 588.0703125 C-61.40707068 585.62983771 -59.87687637 583.1743732 -58.375 580.6875 C-56.43297768 577.54693585 -54.23765999 574.85389804 -51.7890625 572.09765625 C-49.48354686 569.39446433 -47.33870256 566.57591282 -45.1875 563.75 C-38.83282219 555.42623339 -32.29504441 547.28098948 -25.21484375 539.55859375 C-23.79507954 538.06644935 -23.79507954 538.06644935 -24 536 C-23.01 536 -22.02 536 -21 536 C-20.73300293 535.41154297 -20.46600586 534.82308594 -20.19091797 534.21679688 C-18.97911664 531.96112732 -17.69942382 530.38713213 -15.9453125 528.53125 C-15.33631104 527.88341553 -14.72730957 527.23558105 -14.09985352 526.56811523 C-13.44815186 525.88563721 -12.7964502 525.20315918 -12.125 524.5 C-11.45460693 523.79238525 -10.78421387 523.08477051 -10.09350586 522.35571289 C5.55791 505.8986139 5.55791 505.8986139 14.0078125 498.7109375 C16.38521605 496.66916739 18.68788439 494.55283981 21 492.4375 C24.7022821 489.07908311 28.49546237 486.03970891 32.6015625 483.19140625 C33.06304687 482.79824219 33.52453125 482.40507813 34 482 C34 481.34 34 480.68 34 480 C34.64324219 479.79375 35.28648437 479.5875 35.94921875 479.375 C40.27283051 477.42632991 43.95646664 474.74091893 47.8125 472 C48.99489258 471.18015625 48.99489258 471.18015625 50.20117188 470.34375 C50.94560547 469.8178125 51.69003906 469.291875 52.45703125 468.75 C53.13741455 468.27046875 53.81779785 467.7909375 54.51879883 467.296875 C55.25199341 466.65492188 55.25199341 466.65492188 56 466 C56 465.34 56 464.68 56 464 C56.5676709 463.88519287 57.1353418 463.77038574 57.72021484 463.65209961 C60.24794186 462.92907981 62.20434729 461.88646195 64.4765625 460.56640625 C65.311875 460.08236328 66.1471875 459.59832031 67.0078125 459.09960938 C67.87148438 458.59236328 68.73515625 458.08511719 69.625 457.5625 C70.49640625 457.05912109 71.3678125 456.55574219 72.265625 456.03710938 C76.916975 453.39760967 76.916975 453.39760967 81 450 C81.66 450.33 82.32 450.66 83 451 C83 450.34 83 449.68 83 449 C82.19369141 448.62681641 82.19369141 448.62681641 81.37109375 448.24609375 C70.92580059 442.75672222 61.78282416 434.78797957 53 427 C52.49082031 426.54866699 51.98164063 426.09733398 51.45703125 425.63232422 C47.91842091 422.47691172 44.44264706 419.25967172 41 416 C40.50113281 415.52981445 40.00226563 415.05962891 39.48828125 414.57519531 C31.98938034 407.45702267 25.41634133 399.89405606 19.21679688 391.62255859 C18.12995784 390.1732945 17.02697724 388.7361678 15.921875 387.30078125 C1.00845141 367.50715197 -19 336.44232061 -19 311 C-19.99 311 -20.98 311 -22 311 C-21.97679687 310.37996094 -21.95359375 309.75992187 -21.9296875 309.12109375 C-21.81918041 303.69835276 -22.1325962 298.55352532 -22.9375 293.1875 C-29.92095076 243.44925358 -16.75178776 195.77778998 13.32470703 155.8684082 C17.75907774 150.12777231 22.587233 144.8096055 27.6015625 139.57421875 C30.084366 137.04824927 30.084366 137.04824927 32 134 C32.66 134 33.32 134 34 134 C34.268125 133.401875 34.53625 132.80375 34.8125 132.1875 C35.99086308 130.01683117 37.23060981 128.69182788 39 127 C38.51756836 126.08057617 38.51756836 126.08057617 38.02539062 125.14257812 C27.20872849 104.51222538 27.20872849 104.51222538 22.3125 94.8125 C21.98636719 94.173125 21.66023437 93.53375 21.32421875 92.875 C20.1248246 90.48142645 19.05996171 88.24346871 18.41796875 85.63671875 C18.28003906 85.09660156 18.14210938 84.55648437 18 84 C17.34 83.67 16.68 83.34 16 83 C16 82.34 16 81.68 16 81 C15.39414062 81.02320313 14.78828125 81.04640625 14.1640625 81.0703125 C0.92287021 81.35550741 -9.13911109 78.38334082 -18.890625 69.25390625 C-26.32009539 61.31537955 -29.76704555 51.72632258 -30.09375 40.890625 C-29.42853014 28.05188177 -24.54030265 18.08740436 -15.3125 9.3125 C-10.73662061 5.43855163 -5.53049348 3.20609758 0 1 C0 0.67 0 0.34 0 0 Z M-21 306 C-20 310 -20 310 -20 310 Z M-16 754 C-15 757 -15 757 -15 757 Z " fill="#F9831B" transform="translate(312,72)"/>
<path d="M0 0 C5.79306112 4.15559254 7.81953538 10.52773222 9.64453125 17.1796875 C10.18506842 21.50909065 10.21681819 25.75859955 10.14453125 30.1171875 C10.13244629 31.29506836 10.12036133 32.47294922 10.10791016 33.68652344 C9.35771563 67.19521214 -5.99450364 96.04487922 -28.96972656 119.74707031 C-30.21297493 121.0323736 -31.43781979 122.33541827 -32.66015625 123.640625 C-51.3370707 143.13850272 -76.3326286 156.64753149 -102.35546875 163.1796875 C-103.763125 163.54900391 -103.763125 163.54900391 -105.19921875 163.92578125 C-111.08423406 165.24264424 -117.03299209 165.46679403 -123.04296875 165.6171875 C-123.83944824 165.65175049 -124.63592773 165.68631348 -125.45654297 165.72192383 C-131.61666669 165.7648359 -135.54688548 163.98781299 -140.35546875 160.1796875 C-145.41696033 155.11819592 -146.58845535 149.02897946 -146.73632812 142.08056641 C-146.64189221 106.40739794 -127.37703743 73.67609021 -102.91210938 48.77148438 C-101.28507784 47.10770683 -99.68750141 45.41853289 -98.08984375 43.7265625 C-85.53065557 30.60061741 -71.27542271 19.90198773 -55.35546875 11.1796875 C-54.39906494 10.64819092 -54.39906494 10.64819092 -53.42333984 10.10595703 C-39.22901739 2.3042008 -15.55786105 -9.1889607 0 0 Z " fill="#19130B" transform="translate(681.35546875,285.8203125)"/>
<path d="M0 0 C25.56234074 12.83464807 48.37377178 31.44769261 65.98388672 53.99609375 C66.72509766 54.93195313 67.46630859 55.8678125 68.22998047 56.83203125 C84.67554454 78.09440698 98.04884273 103.49623996 98.29638672 130.80859375 C98.32539063 131.86369141 98.35439453 132.91878906 98.38427734 134.00585938 C98.44303243 141.25985251 97.60705043 147.00168582 92.60668945 152.5144043 C84.74828424 159.63244142 74.48459381 158.61977155 64.58935547 158.19140625 C30.22051278 155.61503124 -2.86774861 131.89426197 -24.84033203 106.66796875 C-46.30559952 80.30846612 -59.06691766 49.39668338 -57.01611328 14.99609375 C-55.80387911 6.13819366 -53.00982399 -1.29546059 -46.39111328 -7.44140625 C-33.64217021 -15.8288688 -12.23301355 -6.00644885 0 0 Z " fill="#1B160D" transform="translate(383.01611328125,293.00390625)"/>
<path d="M0 0 C4.22785292 1.65930916 8.00709892 3.88927685 11.84765625 6.29638672 C12.71277832 6.82804443 13.57790039 7.35970215 14.46923828 7.9074707 C27.50472656 16.01199861 39.83969552 25.0322425 51.78369141 34.66162109 C53.2512441 35.84372723 54.72691387 37.01573613 56.203125 38.18701172 C62.50392385 43.2421981 68.43987698 48.61865346 74.3359375 54.13232422 C76.74444178 56.37925957 79.20909074 58.54190568 81.72265625 60.67138672 C84.94430642 63.46258676 87.72267766 66.47711227 90.47265625 69.72998047 C93.42574517 73.18140314 96.5368018 76.48931331 99.625 79.81982422 C101.34765625 81.92138672 101.34765625 81.92138672 101.34765625 83.92138672 C97.52423631 82.3798256 95.47569297 80.06310451 92.78515625 76.98388672 C87.60519224 71.1845593 82.20398668 65.62334989 76.72265625 60.10888672 C75.93560303 59.309104 75.1485498 58.50932129 74.33764648 57.68530273 C69.88800491 53.22731025 65.3273544 49.19883878 60.29833984 45.40649414 C57.38491498 43.18842612 54.74423979 40.70625402 52.07421875 38.20654297 C50.30529628 36.62284059 50.30529628 36.62284059 47.34765625 36.92138672 C47.34765625 36.26138672 47.34765625 35.60138672 47.34765625 34.92138672 C46.68765625 34.92138672 46.02765625 34.92138672 45.34765625 34.92138672 C45.01765625 33.93138672 44.68765625 32.94138672 44.34765625 31.92138672 C43.77015625 31.79763672 43.19265625 31.67388672 42.59765625 31.54638672 C39.29265673 30.6283313 37.71607984 28.34757674 35.34765625 25.92138672 C33.02301988 24.39052862 30.7382024 23.10517314 28.22265625 21.92138672 C26.16872513 20.82595679 24.99018946 19.56391993 23.34765625 17.92138672 C19.49706072 15.14537599 15.55854349 12.99089814 11.3046875 10.93310547 C8.50427179 9.48538557 5.9585919 7.68225029 3.34765625 5.92138672 C2.35765625 5.59138672 1.36765625 5.26138672 0.34765625 4.92138672 C0.34765625 4.26138672 0.34765625 3.60138672 0.34765625 2.92138672 C-4.50184662 1.76721081 -4.50184662 1.76721081 -9.078125 3.21435547 C-10.35236328 4.05933594 -10.35236328 4.05933594 -11.65234375 4.92138672 C-14.98567708 6.92138672 -18.31901042 8.92138672 -21.65234375 10.92138672 C-22.40644531 11.39576172 -23.16054688 11.87013672 -23.9375 12.35888672 C-27.55463169 14.44068913 -31.30349466 16.17131051 -35.08984375 17.92138672 C-36.56803007 18.60819469 -38.04590056 19.29568285 -39.5234375 19.98388672 C-40.23886719 20.31533691 -40.95429687 20.64678711 -41.69140625 20.98828125 C-43.29356802 21.7506645 -44.86668932 22.57381992 -46.4296875 23.41357422 C-51.39209334 25.73537865 -56.57502359 27.34550839 -61.77734375 29.04638672 C-63.40349609 29.58585938 -63.40349609 29.58585938 -65.0625 30.13623047 C-69.24052835 31.51513476 -73.37940815 32.87055262 -77.65234375 33.92138672 C-78.53921875 34.23076172 -79.42609375 34.54013672 -80.33984375 34.85888672 C-86.98952489 36.99180331 -93.53022069 38.13411048 -100.48828125 38.67529297 C-102.83164122 38.86614655 -102.83164122 38.86614655 -105.65234375 39.92138672 C-107.98567708 39.92138672 -110.31901042 39.92138672 -112.65234375 39.92138672 C-113.22057861 40.08815918 -113.78881348 40.25493164 -114.37426758 40.42675781 C-117.79506966 41.16950189 -121.18698789 40.94746749 -124.6640625 40.83544922 C-125.43289261 40.8142099 -126.20172272 40.79297058 -126.99385071 40.77108765 C-128.61357443 40.72494179 -130.23322125 40.67602348 -131.8527832 40.62451172 C-134.34114755 40.54634576 -136.82964021 40.4793575 -139.31835938 40.41357422 C-140.89194679 40.36736552 -142.46551546 40.32051303 -144.0390625 40.27294922 C-144.78693527 40.25309967 -145.53480804 40.23325012 -146.30534363 40.21279907 C-151.53721562 40.03651485 -151.53721562 40.03651485 -152.65234375 38.92138672 C-154.47403982 38.62453355 -156.29690798 38.33369908 -158.12402344 38.07226562 C-174.20681401 35.74740666 -189.47406248 30.60067739 -204.65234375 24.92138672 C-201.43212687 23.85264088 -199.69857275 23.97803404 -196.546875 25.17919922 C-195.74008301 25.47294434 -194.93329102 25.76668945 -194.10205078 26.06933594 C-192.7966333 26.55297607 -192.7966333 26.55297607 -191.46484375 27.04638672 C-175.02388525 32.85507849 -156.88935156 37.01881307 -139.39453125 37.12451172 C-138.61772507 37.13157135 -137.84091888 37.13863098 -137.04057312 37.14590454 C-112.69315839 37.37132075 -112.69315839 37.37132075 -88.65234375 33.92138672 C-87.73001953 33.71739258 -86.80769531 33.51339844 -85.85742188 33.30322266 C-60.27564426 27.46445813 -32.94008987 17.6317919 -11.86083984 1.69165039 C-7.56821241 -1.3232487 -4.81941009 -1.40362261 0 0 Z " fill="#E5520B" transform="translate(634.65234375,516.07861328125)"/>
<path d="M0 0 C7.02540631 1.95097217 12.80512764 4.97410255 18.9375 8.875 C19.84846436 9.44798828 20.75942871 10.02097656 21.69799805 10.61132812 C35.946025 19.67341495 49.27400886 29.78475945 62.25585938 40.56445312 C63.81629026 41.84879434 65.39897021 43.10599216 66.984375 44.359375 C74.02647022 49.93606312 80.30147723 56.1119692 86.5637207 62.53125 C89.44833437 65.48107761 92.37685077 68.38630835 95.31640625 71.28125 C103.39299611 79.25951616 103.39299611 79.25951616 106 83 C106 83.66 106 84.32 106 85 C102.17658006 83.45843889 100.12803672 81.14171779 97.4375 78.0625 C92.25753599 72.26317258 86.85633043 66.70196317 81.375 61.1875 C80.58794678 60.38771729 79.80089355 59.58793457 78.98999023 58.76391602 C74.54034866 54.30592353 69.97969815 50.27745206 64.95068359 46.48510742 C62.03725873 44.2670394 59.39658354 41.78486731 56.7265625 39.28515625 C54.95764003 37.70145387 54.95764003 37.70145387 52 38 C52 37.34 52 36.68 52 36 C51.34 36 50.68 36 50 36 C49.67 35.01 49.34 34.02 49 33 C48.13375 32.814375 48.13375 32.814375 47.25 32.625 C43.94500048 31.70694458 42.36842359 29.42619002 40 27 C37.67536363 25.4691419 35.39054615 24.18378643 32.875 23 C30.82106888 21.90457007 29.64253321 20.64253321 28 19 C24.14940447 16.22398927 20.21088724 14.06951142 15.95703125 12.01171875 C13.15661554 10.56399885 10.61093565 8.76086358 8 7 C7.01 6.67 6.02 6.34 5 6 C5 5.34 5 4.68 5 4 C2.525 3.01 2.525 3.01 0 2 C0 1.34 0 0.68 0 0 Z " fill="#F5660F" transform="translate(630,515)"/>
<path d="M0 0 C2.28683035 3.43024552 2.82466367 6.47683376 3.5078125 10.44921875 C3.70333206 11.54638969 3.70333206 11.54638969 3.90280151 12.66572571 C4.1768182 14.21427959 4.44724953 15.76347157 4.71435547 17.31323242 C5.12080744 19.66325942 5.54195303 22.01030433 5.96484375 24.35742188 C6.23006087 25.86703067 6.49441105 27.37679209 6.7578125 28.88671875 C6.88278107 29.5797258 7.00774963 30.27273285 7.13650513 30.98674011 C8.70839494 40.25771475 8.09708086 46.8980285 3 55 C0.625 57.75 0.625 57.75 -2 60 C-2.928125 60.9075 -3.85625 61.815 -4.8125 62.75 C-16.35123915 72.4068847 -31.04427031 77.89503453 -45 83 C-45.83515137 83.30631348 -46.67030273 83.61262695 -47.53076172 83.92822266 C-49.95176741 84.80467122 -52.37922937 85.6582596 -54.8125 86.5 C-55.8960376 86.88321411 -55.8960376 86.88321411 -57.00146484 87.27416992 C-61.51612659 88.78135282 -65.24126327 89.24882284 -70 89 C-67.18105796 86.18105796 -63.79763167 85.58407516 -60.0625 84.5 C-54.28571031 82.83579175 -54.28571031 82.83579175 -49 80 C-46.44537083 79.17191923 -43.8695887 78.48165099 -41.27734375 77.78125 C-38.83784466 77.13077487 -38.83784466 77.13077487 -37 75 C-35.08055586 74.5366859 -33.16025627 74.07640835 -31.234375 73.640625 C-28.15078202 72.75651792 -25.47094228 71.33672945 -22.6640625 69.8046875 C-21 69 -21 69 -19 69 C-19 68.34 -19 67.68 -19 67 C-18.21496094 66.64808594 -17.42992187 66.29617188 -16.62109375 65.93359375 C-10.08931546 62.86405868 -4.39348672 59.8722007 0 54 C0.33 53.01 0.66 52.02 1 51 C1.66 51 2.32 51 3 51 C6.7311093 38.27033298 3.74933593 25.6543902 1.37255859 12.90771484 C1.10886475 11.48193115 1.10886475 11.48193115 0.83984375 10.02734375 C0.67863037 9.17906006 0.51741699 8.33077637 0.35131836 7.45678711 C-0.00897409 4.9372437 -0.06103376 2.54155931 0 0 Z " fill="#F5660D" transform="translate(728,845)"/>
<path d="M0 0 C2.38720194 1.83931953 2.98052129 2.91880223 3.6953125 5.8984375 C4.15247385 9.59728839 4.60145612 13.29430832 5 17 C5.1134375 17.96808594 5.226875 18.93617188 5.34375 19.93359375 C7.39477871 40.92815148 8.59263672 61.59940754 -5 79 C-11.48333287 86.44121253 -18.38940673 92.20249145 -27 97 C-27.88042969 97.50660156 -28.76085937 98.01320313 -29.66796875 98.53515625 C-34.70532511 101.27102756 -38.26270901 102.62361859 -44 102 C-40.28177914 98.87981467 -36.78334051 97.98477483 -32.14453125 96.84375 C-31.43683594 96.5653125 -30.72914063 96.286875 -30 96 C-29.67 95.01 -29.34 94.02 -29 93 C-27.3603125 92.505 -27.3603125 92.505 -25.6875 92 C-16.88221879 89.01192623 -8.62792264 79.81959343 -4 72 C-3.62960413 70.67648355 -3.28737544 69.34398819 -3 68 C-2.34 68 -1.68 68 -1 68 C-0.51622009 66.14703165 -0.03821364 64.29255559 0.4375 62.4375 C0.70433594 61.40496094 0.97117187 60.37242187 1.24609375 59.30859375 C4.51583445 44.9590063 2.82890684 30.88623689 1.06738281 16.45605469 C0.39777885 10.92903864 -0.19426536 5.56894038 0 0 Z " fill="#F87013" transform="translate(828,791)"/>
<path d="M0 0 C3 0 3 0 4.359375 1.32250977 C4.81828125 1.93924561 5.2771875 2.55598145 5.75 3.19140625 C6.27021729 3.88089355 6.79043457 4.57038086 7.32641602 5.28076172 C7.87869873 6.03373535 8.43098145 6.78670898 9 7.5625 C9.57741943 8.33609863 10.15483887 9.10969727 10.74975586 9.90673828 C11.93878618 11.50289023 13.1235807 13.10220598 14.30419922 14.70458984 C15.81422072 16.74853199 17.34152436 18.77739876 18.87890625 20.80078125 C33.53258117 40.21828842 46.22802588 61.53041248 56.6953125 83.48046875 C57.88238972 86.0842308 57.88238972 86.0842308 60 88 C60.70710678 89.64991582 61.36562656 91.3207762 62 93 C62.53625 94.155 63.0725 95.31 63.625 96.5 C64.88705482 99.71250319 65.30733715 101.61929139 65 105 C61.37826219 101.37826219 59.39728974 97.09283805 57.66796875 92.3359375 C55.92275607 87.58961654 53.63569777 83.20152292 51.25 78.75 C50.80390381 77.91154541 50.35780762 77.07309082 49.89819336 76.20922852 C46.42134634 69.70963537 42.81117072 63.31004143 39 57 C38.60731934 56.34209473 38.21463867 55.68418945 37.81005859 55.00634766 C29.25436486 40.6782152 20.23446214 26.86127056 9.79760742 13.82666016 C6.25222345 9.38570248 3.01759768 4.81287732 0 0 Z " fill="#F66D11" transform="translate(736,601)"/>
<path d="M0 0 C-17.98450151 10.14678229 -49.2018621 6.30093418 -69.046875 6.20581055 C-72.3835971 6.19035513 -75.71998316 6.18500658 -79.05671692 6.18575573 C-82.30865923 6.18541712 -85.56057063 6.17658671 -88.8125 6.16796875 C-89.99175049 6.16685593 -91.17100098 6.1657431 -92.38598633 6.16459656 C-98.98309356 6.12690203 -105.45092352 5.80860597 -112 5 C-112 4.67 -112 4.34 -112 4 C-110.85084862 3.99120064 -110.85084862 3.99120064 -109.67848206 3.98222351 C-102.28635164 3.92315035 -94.89451582 3.85048294 -87.50265598 3.76428509 C-83.70679075 3.72045368 -79.91101191 3.6810369 -76.11499023 3.65356445 C-58.30695661 3.52109027 -40.69816198 2.90795056 -22.97962952 1.03215027 C-15.28030874 0.22983997 -7.74159865 -0.18913278 0 0 Z " fill="#FA6C0E" transform="translate(591,947)"/>
<path d="M0 0 C7.02544304 1.95098237 12.80504349 4.97410356 18.9375 8.875 C19.83831299 9.4414624 20.73912598 10.0079248 21.66723633 10.59155273 C27.95282116 14.58896656 34.11807828 18.74429025 40.1875 23.0625 C40.94732178 23.59794434 41.70714355 24.13338867 42.48999023 24.68505859 C43.18809814 25.19246582 43.88620605 25.69987305 44.60546875 26.22265625 C45.52042114 26.88406616 45.52042114 26.88406616 46.45385742 27.55883789 C48.22215689 29.20707281 49.04857259 30.79435128 50 33 C45.10187531 32.58016074 43.305919 30.47121495 40 27 C37.67536363 25.4691419 35.39054615 24.18378643 32.875 23 C30.82106888 21.90457007 29.64253321 20.64253321 28 19 C24.14940447 16.22398927 20.21088724 14.06951142 15.95703125 12.01171875 C13.15661554 10.56399885 10.61093565 8.76086358 8 7 C7.01 6.67 6.02 6.34 5 6 C5 5.34 5 4.68 5 4 C2.525 3.01 2.525 3.01 0 2 C0 1.34 0 0.68 0 0 Z " fill="#F0580C" transform="translate(630,515)"/>
<path d="M0 0 C8.08997585 16.1799517 6.1251718 43.55074388 2 61 C0.42578125 63.43359375 0.42578125 63.43359375 -1 65 C-1.19678989 60.08025265 -0.81555192 55.60885159 0 50.75 C2.50243823 34.04933067 0.85900705 16.78719099 0 0 Z " fill="#F77114" transform="translate(728,308)"/>
<path d="M0 0 C-2.40454205 2.86691606 -4.31053376 3.56107084 -7.9453125 4.28125 C-8.93168701 4.48210205 -9.91806152 4.6829541 -10.93432617 4.88989258 C-12.51370972 5.19189575 -12.51370972 5.19189575 -14.125 5.5 C-15.74402222 5.82037231 -15.74402222 5.82037231 -17.39575195 6.1472168 C-19.57765109 6.57575494 -21.76068029 6.99858117 -23.94482422 7.41552734 C-26.60342324 7.92413259 -29.25698316 8.45230355 -31.91015625 8.98828125 C-40.31774495 10.63688306 -48.40748716 11.40347452 -57 11 C-54.35857034 8.35857034 -52.55199751 8.4153618 -48.875 7.8515625 C-46.99083374 7.55318481 -46.99083374 7.55318481 -45.06860352 7.2487793 C-44.40369904 7.14689301 -43.73879456 7.04500671 -43.05374146 6.94003296 C-39.62538489 6.41414139 -36.20105418 5.86384312 -32.77734375 5.30859375 C-32.1025145 5.19927017 -31.42768524 5.08994659 -30.73240662 4.97731018 C-24.58945973 3.96493753 -18.53155158 2.68351082 -12.49414062 1.16845703 C-8.24681971 0.13459801 -4.36582828 -0.15209982 0 0 Z " fill="#F86B0E" transform="translate(650,936)"/>
<path d="M0 0 C1.07470703 1.84277344 1.07470703 1.84277344 2 4 C0.8046875 6.515625 0.8046875 6.515625 -1.125 9.25 C-7.22568064 18.24551342 -11.24931225 27.81956183 -15 38 C-15.66 38 -16.32 38 -17 38 C-17.33 38.66 -17.66 39.32 -18 40 C-18.99 40.495 -18.99 40.495 -20 41 C-19.31018217 36.25517195 -17.5504804 32.16269425 -15.625 27.8125 C-15.28210938 27.03600098 -14.93921875 26.25950195 -14.5859375 25.45947266 C-10.50250774 16.50719993 -5.31315522 8.26273771 0 0 Z " fill="#FD9625" transform="translate(318,238)"/>
<path d="M0 0 C1.82877482 0.00502544 3.65755097 0.0095865 5.48632812 0.01367188 C9.92841895 0.02459381 14.37044441 0.04180077 18.8125 0.0625 C18.8125 0.3925 18.8125 0.7225 18.8125 1.0625 C17.30236328 1.08437378 17.30236328 1.08437378 15.76171875 1.10668945 C11.94434039 1.16566806 8.12749243 1.24287035 4.31054688 1.32495117 C2.67391717 1.35774135 1.03718679 1.38590775 -0.59960938 1.40893555 C-18.36249242 1.31358046 -18.36249242 1.31358046 -35.1875 6.0625 C-36.64169996 6.2449992 -38.10147837 6.38415848 -39.5625 6.5 C-45.49448445 7.0376945 -51.32518701 8.02501162 -57.1875 9.0625 C-57.5175 8.0725 -57.8475 7.0825 -58.1875 6.0625 C-52.26605693 4.63696741 -46.31479418 3.51957635 -40.3125 2.5 C-39.58240723 2.37326904 -38.85231445 2.24653809 -38.10009766 2.1159668 C-25.39097667 -0.00408587 -12.84731538 -0.06168201 0 0 Z " fill="#FC9728" transform="translate(511.1875,139.9375)"/>
<path d="M0 0 C7.26 0 14.52 0 22 0 C22 0.99 22 1.98 22 3 C16.31302429 3.91397824 11.68697571 3.91397824 6 3 C5.67 3.66 5.34 4.32 5 5 C3.824375 4.9690625 3.824375 4.9690625 2.625 4.9375 C0.01885039 4.81315937 0.01885039 4.81315937 -2 6 C-2.33 5.67 -2.66 5.34 -3 5 C-3.66 5.66 -4.32 6.32 -5 7 C-7.27894137 8.52638051 -9.59052975 9.99496288 -11.90625 11.46484375 C-14.2445948 12.99529158 -14.2445948 12.99529158 -16 16 C-17.32 15.34 -18.64 14.68 -20 14 C-13.90869927 7.93877977 -8.00855392 4.11360601 0 1 C0 0.67 0 0.34 0 0 Z " fill="#FC9224" transform="translate(312,72)"/>
<path d="M0 0 C3.09072695 1.33419196 4.75925016 2.61005442 6.69921875 5.3515625 C7.18173096 6.02968994 7.66424316 6.70781738 8.16137695 7.40649414 C8.66499756 8.13860107 9.16861816 8.87070801 9.6875 9.625 C10.47870239 10.76473267 10.47870239 10.76473267 11.28588867 11.92749023 C18.20605262 22.04528331 24.07283757 32.58468272 29.125 43.75 C29.43284424 44.41781494 29.74068848 45.08562988 30.05786133 45.77368164 C31.24454362 48.50420986 32.07062904 50.45908488 31.6796875 53.453125 C31.45539062 53.96359375 31.23109375 54.4740625 31 55 C28.35633979 49.9151727 25.91766534 44.8573201 23.875 39.5 C18.6115179 26.6795436 10.49671563 15.11726093 1.80078125 4.40625 C0 2 0 2 0 0 Z " fill="#F87414" transform="translate(689,223)"/>
<path d="M0 0 C1.27230469 0.00902344 2.54460937 0.01804687 3.85546875 0.02734375 C5.31919922 0.04474609 5.31919922 0.04474609 6.8125 0.0625 C6.8125 0.3925 6.8125 0.7225 6.8125 1.0625 C5.50925781 1.11857422 5.50925781 1.11857422 4.1796875 1.17578125 C-5.9947379 1.69164592 -5.9947379 1.69164592 -14.3125 7.125 C-24.02854979 22.34681134 -22.42930566 41.26833018 -18.94140625 58.23046875 C-18.1650623 62.17654864 -17.6450457 66.06897007 -17.1875 70.0625 C-19.79883436 67.45116564 -19.96694079 65.40391291 -20.75 61.8125 C-21.12318359 60.13414062 -21.12318359 60.13414062 -21.50390625 58.421875 C-23.04812193 50.83315796 -23.40380767 43.66988967 -23.4375 35.9375 C-23.458125 34.77734375 -23.47875 33.6171875 -23.5 32.421875 C-23.5388247 23.74455371 -23.39408858 14.11292768 -17.8125 7.0625 C-16.94625 6.4025 -16.08 5.7425 -15.1875 5.0625 C-14.32125 4.32 -13.455 3.5775 -12.5625 2.8125 C-8.41590252 -0.24288761 -5.01617965 -0.04602 0 0 Z " fill="#F8CD32" transform="translate(348.1875,281.9375)"/>
<path d="M0 0 C0.67578125 1.73046875 0.67578125 1.73046875 1 4 C-3.431652 12.65532033 -12.71394636 19.54433081 -21.859375 22.57421875 C-27.9106298 23.77784425 -34.01779065 23.33656569 -40 22 C-40 21.67 -40 21.34 -40 21 C-38.88882813 20.90203125 -37.77765625 20.8040625 -36.6328125 20.703125 C-24.1557055 19.49738364 -13.79575806 17.73189195 -5 8 C-3.14581739 5.42399448 -1.50815275 2.79153273 0 0 Z " fill="#FA7412" transform="translate(731,129)"/>
<path d="M0 0 C0.33 0 0.66 0 1 0 C0.47049808 8.58298445 -1.03811864 16.79608834 -2.875 25.1875 C-3.13152344 26.40630859 -3.38804687 27.62511719 -3.65234375 28.88085938 C-5.00947706 35.16527317 -6.54796937 41.05671245 -9 47 C-9.31324219 47.8353125 -9.62648438 48.670625 -9.94921875 49.53125 C-10.6328125 51.35416667 -11.31640625 53.17708333 -12 55 C-12.66 55 -13.32 55 -14 55 C-13.00893627 50.62280186 -11.85066277 46.5430071 -10.1875 42.375 C-7.19380319 34.23767445 -5.56121681 25.77235014 -3.75 17.3125 C-3.38350955 15.62810339 -3.01632713 13.94385719 -2.6484375 12.25976562 C-1.75764565 8.17486558 -0.87621576 4.0880503 0 0 Z " fill="#F46A0E" transform="translate(306,778)"/>
<path d="M0 0 C1.32 0.66 2.64 1.32 4 2 C3.74605469 2.556875 3.49210938 3.11375 3.23046875 3.6875 C1.52730252 7.46380865 -0.1140358 11.21979701 -1.5 15.125 C-2.4751626 17.82545029 -3.63093029 20.17429573 -5.125 22.625 C-6.96039987 25.92871976 -7.4736721 28.31570473 -8 32 C-8.99 32.495 -8.99 32.495 -10 33 C-10.77059741 25.13990637 -8.0332757 19.15689105 -5 12 C-4.52304688 10.84371094 -4.04609375 9.68742188 -3.5546875 8.49609375 C-2.38218229 5.65863114 -1.19708553 2.82715943 0 0 Z " fill="#FD9124" transform="translate(202,743)"/>
<path d="M0 0 C0.33 0 0.66 0 1 0 C1.16709454 2.31246912 1.33366462 4.62497615 1.5 6.9375 C1.5928125 8.22527344 1.685625 9.51304687 1.78125 10.83984375 C2 14 2 14 2 15 C2.33 15.66 2.66 16.32 3 17 C2.99427148 18.35479543 2.94658281 19.70958486 2.875 21.0625 C2.80245931 25.53826041 3.7811518 29.08307145 5.34375 33.25 C6.3098799 35.82634641 6 36.90808462 6 40 C5.34 40.66 4.68 41.32 4 42 C2.80712589 38.12315913 2 35.08378077 2 31 C1.01 31 0.02 31 -1 31 C-0.98839844 30.35675781 -0.97679687 29.71351563 -0.96484375 29.05078125 C-0.89098005 21.65385931 -1.34421605 14.36585905 -2 7 C-1.67 7 -1.34 7 -1 7 C-0.67 4.69 -0.34 2.38 0 0 Z M0 26 C1 30 1 30 1 30 Z " fill="#F9891D" transform="translate(291,352)"/>
<path d="M0 0 C0.33 0 0.66 0 1 0 C0.4635124 5.80173022 -1.20022771 10.41311182 -3.625 15.6875 C-3.98110352 16.47189453 -4.33720703 17.25628906 -4.70410156 18.06445312 C-13.37227837 36.84678477 -13.37227837 36.84678477 -19 39 C-18.67128906 38.42636719 -18.34257813 37.85273438 -18.00390625 37.26171875 C-11.2606813 25.21894031 -5.55530921 12.62638661 0 0 Z " fill="#F76D10" transform="translate(718,403)"/>
<path d="M0 0 C5.4203615 0.33877259 9.17737441 3.40135638 13 7 C15.74468696 10.41902816 18.49111924 13.89761672 19.53515625 18.2109375 C19.68855469 18.80132812 19.84195313 19.39171875 20 20 C20.66 20.33 21.32 20.66 22 21 C22 26.61 22 32.22 22 38 C21.67 38 21.34 38 21 38 C20.93683594 37.15179688 20.87367188 36.30359375 20.80859375 35.4296875 C19.67772763 24.59718046 16.57308399 13.41997913 8 6 C6.15872414 4.79468769 6.15872414 4.79468769 4.3125 3.875 C1 2 1 2 0 0 Z " fill="#F97514" transform="translate(714,78)"/>
<path d="M0 0 C1.1954784 3.71354936 0.60024795 5.52979729 -1.15625 9.03515625 C-1.63578125 9.94587891 -1.63578125 9.94587891 -2.125 10.875 C-2.42148437 11.47441406 -2.71796875 12.07382812 -3.0234375 12.69140625 C-5.87567713 18.26294214 -9.43892672 23.21666836 -14.5625 26.9375 C-15.12066406 27.35902344 -15.67882812 27.78054688 -16.25390625 28.21484375 C-18.52507417 29.23610718 -19.70069814 28.81003851 -22 28 C-20.6875 26 -20.6875 26 -19 24 C-18.01 24 -17.02 24 -16 24 C-8.09442686 17.83365295 -4.36319203 8.79564107 0 0 Z " fill="#FA7210" transform="translate(286,848)"/>
<path d="M0 0 C0.33 0.99 0.66 1.98 1 3 C-0.08203125 5.0234375 -0.08203125 5.0234375 -1.8125 7.375 C-2.45960938 8.25671875 -3.10671875 9.1384375 -3.7734375 10.046875 C-4.50820313 11.02140625 -5.24296875 11.9959375 -6 13 C-6.80478161 14.08847209 -7.60946625 15.17701589 -8.4140625 16.265625 C-13.17617947 22.64016342 -18.1426732 28.5844269 -24 34 C-24.66 33.67 -25.32 33.34 -26 33 C-25.46632813 32.42894531 -24.93265625 31.85789062 -24.3828125 31.26953125 C-16.14961772 22.30987811 -8.654367 12.84870571 -2.05859375 2.609375 C-1 1 -1 1 0 0 Z " fill="#F86E10" transform="translate(698,443)"/>
<path d="M0 0 C0.97195313 0.16242187 1.94390625 0.32484375 2.9453125 0.4921875 C7.26307086 1.10652919 11.52003732 1.15073095 15.875 1.125 C17.06101807 1.12209961 17.06101807 1.12209961 18.27099609 1.11914062 C23.57891802 1.07976597 28.74304787 0.77880772 34 0 C32 3 32 3 29.75 3.73046875 C19.65095015 5.40886198 10.97765162 5.37765315 1 3 C0.67 2.01 0.34 1.02 0 0 Z " fill="#F97111" transform="translate(749,893)"/>
<path d="M0 0 C0.99 0 1.98 0 3 0 C2.89011864 4.25053264 2.75948796 8.50018035 2.625 12.75 C2.5940625 13.9565625 2.563125 15.163125 2.53125 16.40625 C2.49257813 17.56640625 2.45390625 18.7265625 2.4140625 19.921875 C2.36693115 21.52434082 2.36693115 21.52434082 2.31884766 23.15917969 C2.00799852 25.92873598 1.42329468 27.63283621 0 30 C-1.23797861 25.19546395 -1.14774283 20.48632326 -1.125 15.5625 C-1.12886719 14.72912109 -1.13273437 13.89574219 -1.13671875 13.03710938 C-1.12966873 8.57797413 -0.89916791 4.38879575 0 0 Z " fill="#2C1A0B" transform="translate(327,302)"/>
<path d="M0 0 C8.01494846 -0.27908417 15.64749025 0.80161489 23.5625 2 C24.85736328 2.19078125 26.15222656 2.3815625 27.48632812 2.578125 C30.65845229 3.04633521 33.82957613 3.52043473 37 4 C37 4.33 37 4.66 37 5 C10.25814863 5.58917176 10.25814863 5.58917176 0 1 C0 0.67 0 0.34 0 0 Z " fill="#FB7411" transform="translate(417,944)"/>
<path d="M0 0 C0.66 0.99 1.32 1.98 2 3 C0.71034824 4.37562854 -0.62689293 5.70766393 -2 7 C-2.66 7 -3.32 7 -4 7 C-3.67 7.99 -3.34 8.98 -3 10 C-3.639375 10.268125 -4.27875 10.53625 -4.9375 10.8125 C-7.33131686 11.88667752 -7.33131686 11.88667752 -8 15 C-8.99 15 -9.98 15 -11 15 C-11.66 16.98 -12.32 18.96 -13 21 C-14.32 20.34 -15.64 19.68 -17 19 C-16.34 17.68 -15.68 16.36 -15 15 C-14.01 15 -13.02 15 -12 15 C-11.77570313 14.45859375 -11.55140625 13.9171875 -11.3203125 13.359375 C-9.58851134 10.26467706 -7.28380732 7.82074395 -4.875 5.25 C-4.40707031 4.74339844 -3.93914062 4.23679687 -3.45703125 3.71484375 C-2.30873459 2.47280859 -1.15491328 1.23588506 0 0 Z " fill="#FD8D1F" transform="translate(303,593)"/>
<path d="M0 0 C0 0.66 0 1.32 0 2 C-6.77543322 4.98916172 -13.39732563 5.20537766 -20.6875 5.25 C-21.96850586 5.2809375 -21.96850586 5.2809375 -23.27539062 5.3125 C-24.09587891 5.31765625 -24.91636719 5.3228125 -25.76171875 5.328125 C-26.8748645 5.34214355 -26.8748645 5.34214355 -28.01049805 5.35644531 C-30.51455631 4.9078105 -31.39750323 3.91957509 -33 2 C-32.40574219 2.01047363 -31.81148437 2.02094727 -31.19921875 2.03173828 C-28.46619011 2.07371131 -25.73322963 2.0994558 -23 2.125 C-21.59814453 2.15013672 -21.59814453 2.15013672 -20.16796875 2.17578125 C-13.19819601 2.22452092 -6.81070541 0 0 0 Z " fill="#FA7815" transform="translate(256,880)"/>
<path d="M0 0 C1 4 1 4 0.15234375 6 C-0.65825478 7.33449018 -1.47075972 8.66782421 -2.28515625 10 C-3.21678606 11.98133358 -3.21678606 11.98133358 -2.41015625 13.953125 C-0.64072665 16.52149373 1.38846783 18.57736875 3.625 20.75 C4.44226563 21.54921875 5.25953125 22.3484375 6.1015625 23.171875 C6.72804688 23.77515625 7.35453125 24.3784375 8 25 C7.67 25.99 7.34 26.98 7 28 C2.38 23.38 -2.24 18.76 -7 14 C-4.69 9.38 -2.38 4.76 0 0 Z " fill="#F87314" transform="translate(673,186)"/>
<path d="M0 0 C10.3734499 -0.16494885 20.6510926 0.34956362 31 1 C31.33 1.99 31.66 2.98 32 4 C9.10077051 4.42846791 9.10077051 4.42846791 0 1 C0 0.67 0 0.34 0 0 Z " fill="#FA7613" transform="translate(457,949)"/>
<path d="M0 0 C0.66 0 1.32 0 2 0 C-0.34837732 5.6848697 -5.42466677 9.10901148 -10 13 C-10.84304688 13.71800781 -11.68609375 14.43601562 -12.5546875 15.17578125 C-17.07751237 18.87560028 -17.07751237 18.87560028 -19 20 C-19.99 19.67 -20.98 19.34 -22 19 C-19.87996003 17.16064138 -17.75442773 15.32843267 -15.625 13.5 C-15.02171875 12.97535156 -14.4184375 12.45070313 -13.796875 11.91015625 C-9.2265625 8 -9.2265625 8 -7 8 C-7.33 7.01 -7.66 6.02 -8 5 C-7.236875 4.731875 -6.47375 4.46375 -5.6875 4.1875 C-3.09503074 3.04199033 -1.91184456 2.00288478 0 0 Z " fill="#F76F10" transform="translate(665,483)"/>
<path d="M0 0 C5.6560059 6.79671297 6.42021274 15.45567437 6 24 C5.01 24 4.02 24 3 24 C2.95101563 23.32195312 2.90203125 22.64390625 2.8515625 21.9453125 C2.33435787 15.50700659 1.40818879 9.30267023 0 3 C-0.66 3 -1.32 3 -2 3 C-1 1 -1 1 0 0 Z " fill="#FC8C21" transform="translate(356,93)"/>
<path d="M0 0 C4.59511038 0.55141325 8.62418191 1.54139397 13 3 C15.32694964 3.37531446 17.65976685 3.71917202 20 4 C20 4.66 20 5.32 20 6 C22.31 6 24.62 6 27 6 C27.33 6.66 27.66 7.32 28 8 C19.48205981 8.69534206 9.02738441 6.91546454 2.04296875 1.859375 C1.36878906 1.24578125 0.69460938 0.6321875 0 0 Z " fill="#FC7913" transform="translate(356,930)"/>
<path d="M0 0 C0.33 0 0.66 0 1 0 C1 1.98 1 3.96 1 6 C1.66 6 2.32 6 3 6 C3 7.32 3 8.64 3 10 C2.01 10 1.02 10 0 10 C0.33 13.3 0.66 16.6 1 20 C1.33 17.69 1.66 15.38 2 13 C2.33 13 2.66 13 3 13 C3.3690205 24.52164009 3.3690205 24.52164009 1 30 C0.67 30 0.34 30 0 30 C-0.82481886 24.97253269 -1.15430519 20.0991028 -1.125 15 C-1.12886719 14.32710937 -1.13273438 13.65421875 -1.13671875 12.9609375 C-1.12816695 8.53110365 -0.7147525 4.35658664 0 0 Z " fill="#F99129" transform="translate(179,816)"/>
<path d="M0 0 C0.91120605 0.01047363 1.82241211 0.02094727 2.76123047 0.03173828 C3.74736328 0.03818359 4.73349609 0.04462891 5.74951172 0.05126953 C7.29832031 0.07640625 7.29832031 0.07640625 8.87841797 0.10205078 C9.91869141 0.11107422 10.95896484 0.12009766 12.03076172 0.12939453 C14.60520889 0.15301331 17.17920009 0.18594929 19.75341797 0.22705078 C19.75341797 1.21705078 19.75341797 2.20705078 19.75341797 3.22705078 C11.77367125 4.60816079 3.59184963 4.42927682 -4.24658203 2.22705078 C-2.24658203 0.22705078 -2.24658203 0.22705078 0 0 Z " fill="#F8972C" transform="translate(314.24658203125,71.77294921875)"/>
<path d="M0 0 C8.44176667 2.713425 16.71110853 5.85734053 25 9 C25 9.33 25 9.66 25 10 C18.82040236 9.78317201 13.70812691 8.36585258 8 6.125 C6.9934436 5.73997314 6.9934436 5.73997314 5.96655273 5.34716797 C4.27115098 4.65544231 2.62937449 3.83547008 1 3 C0.67 2.01 0.34 1.02 0 0 Z " fill="#FC7913" transform="translate(321,917)"/>
<path d="M0 0 C0.66 0.99 1.32 1.98 2 3 C-2.45477612 8.62375992 -6.71738381 13.40595096 -14 15 C-9.59156563 9.70987876 -4.92440206 4.81191572 0 0 Z " fill="#FC8F23" transform="translate(319,577)"/>
<path d="M0 0 C5.1950771 3.46338474 6.28878993 10.19433094 8 16 C8.56675796 19.05396916 8.83921938 21.89157471 9 25 C7 24 7 24 6.13037109 22.00634766 C5.70618896 20.7231665 5.70618896 20.7231665 5.2734375 19.4140625 C4.9640625 18.48335937 4.6546875 17.55265625 4.3359375 16.59375 C4.01882813 15.6140625 3.70171875 14.634375 3.375 13.625 C2.88773438 12.16707031 2.88773438 12.16707031 2.390625 10.6796875 C0 3.40736607 0 3.40736607 0 0 Z " fill="#F76E12" transform="translate(810,728)"/>
<path d="M0 0 C1.13099142 3.30828873 0.92812792 4.93003624 -0.546875 8.07421875 C-0.8975 8.82380859 -1.248125 9.57339844 -1.609375 10.34570312 C-1.98578125 11.11849609 -2.3621875 11.89128906 -2.75 12.6875 C-3.1109375 13.47189453 -3.471875 14.25628906 -3.84375 15.06445312 C-5.9023689 19.37934817 -5.9023689 19.37934817 -7 21 C-7.99 21.33 -8.98 21.66 -10 22 C-8.4719611 16.90117545 -6.28963144 12.34334341 -3.875 7.625 C-3.50246094 6.88894531 -3.12992188 6.15289062 -2.74609375 5.39453125 C-1.8343878 3.59449642 -0.91770068 1.79698598 0 0 Z " fill="#F97111" transform="translate(684,163)"/>
<path d="M0 0 C0.99 0 1.98 0 3 0 C4.01085436 2.39175361 5.00879203 4.78761585 6 7.1875 C6.28617188 7.86103516 6.57234375 8.53457031 6.8671875 9.22851562 C8.39206299 12.94993794 9.37610432 15.96471408 9 20 C6.60231063 17.02041525 4.94916891 14.04402081 3.375 10.5625 C2.73691406 9.17224609 2.73691406 9.17224609 2.0859375 7.75390625 C1.06173549 5.15655943 0.44899617 2.74885434 0 0 Z " fill="#F76F13" transform="translate(801,707)"/>
<path d="M0 0 C4.90233464 1.45478864 9.1172894 3.53886033 13.5625 6 C18.61087224 8.79204607 18.61087224 8.79204607 23.8828125 11.1171875 C26 12 26 12 27.3125 14.125 C27.6528125 15.053125 27.6528125 15.053125 28 16 C23.42255541 14.34357064 19.33536336 12.03317045 15.125 9.625 C14.44308594 9.23828125 13.76117188 8.8515625 13.05859375 8.453125 C11.03701274 7.30563711 9.01808896 6.15361662 7 5 C6.31776367 4.61038086 5.63552734 4.22076172 4.93261719 3.81933594 C3.28815852 2.87999996 1.64404168 1.94006561 0 1 C0 0.67 0 0.34 0 0 Z " fill="#F5C32F" transform="translate(376,289)"/>
<path d="M0 0 C0.99 0.33 1.98 0.66 3 1 C1.65843569 3.90779249 0.13892965 6.2517899 -1.9375 8.6875 C-2.44152344 9.28949219 -2.94554687 9.89148438 -3.46484375 10.51171875 C-5 12 -5 12 -8 13 C-8.66 12.34 -9.32 11.68 -10 11 C-9.44570313 10.45730469 -8.89140625 9.91460937 -8.3203125 9.35546875 C-7.23363281 8.28232422 -7.23363281 8.28232422 -6.125 7.1875 C-5.40570313 6.47980469 -4.68640625 5.77210938 -3.9453125 5.04296875 C-1.84641063 2.95600806 -1.84641063 2.95600806 0 0 Z " fill="#FD9625" transform="translate(344,206)"/>
<path d="M0 0 C0.33 0 0.66 0 1 0 C1.05451714 2.04136395 1.09302485 4.08315856 1.125 6.125 C1.14820313 7.26195312 1.17140625 8.39890625 1.1953125 9.5703125 C0.99672109 13.05757767 0.2524801 15.7553862 -1 19 C-1.99 19 -2.98 19 -4 19 C-3.37968409 12.42465139 -1.85102717 6.33307408 0 0 Z " fill="#FD8F23" transform="translate(186,786)"/>
<path d="M0 0 C3.66475742 0.71357055 6.6874481 2.24395784 10 3.9375 C11.03125 4.46214844 12.0625 4.98679687 13.125 5.52734375 C14.548125 6.25630859 14.548125 6.25630859 16 7 C17.33245557 7.66841932 18.66538585 8.33590113 20 9 C20 9.33 20 9.66 20 10 C13.6556953 9.586241 8.34045369 7.46382573 3 4 C1.203125 1.83203125 1.203125 1.83203125 0 0 Z " fill="#FB7A15" transform="translate(196,871)"/>
<path d="M0 0 C0.33 0 0.66 0 1 0 C1.49914707 6.73848545 0.19940966 12.0098644 -3 18 C-3.66 18.33 -4.32 18.66 -5 19 C-3.25 3.25 -3.25 3.25 0 0 Z " fill="#F76D11" transform="translate(724,383)"/>
<path d="M0 0 C0.33 0 0.66 0 1 0 C1.16709454 2.31246912 1.33366462 4.62497615 1.5 6.9375 C1.5928125 8.22527344 1.685625 9.51304687 1.78125 10.83984375 C2 14 2 14 2 15 C2.33 15.66 2.66 16.32 3 17 C2.66015625 19.1640625 2.66015625 19.1640625 2.0625 21.625 C1.86785156 22.44226563 1.67320312 23.25953125 1.47265625 24.1015625 C1.31667969 24.72804688 1.16070312 25.35453125 1 26 C0.67 26 0.34 26 0 26 C-1.17293889 19.6221448 -2.29530838 13.49678438 -2 7 C-1.67 7 -1.34 7 -1 7 C-0.67 4.69 -0.34 2.38 0 0 Z " fill="#FB9A2D" transform="translate(291,352)"/>
<path d="M0 0 C0.66 0 1.32 0 2 0 C2.30221599 8.46204771 1.14920797 16.63745983 0 25 C-0.33 25 -0.66 25 -1 25 C-1.22573595 21.39670111 -1.42759125 17.79245301 -1.625 14.1875 C-1.68945312 13.16333984 -1.75390625 12.13917969 -1.8203125 11.08398438 C-1.871875 10.10107422 -1.9234375 9.11816406 -1.9765625 8.10546875 C-2.05511475 6.74651489 -2.05511475 6.74651489 -2.13525391 5.36010742 C-2 3 -2 3 0 0 Z " fill="#FD9626" transform="translate(289,332)"/>
<path d="M0 0 C1.33333333 2.66666667 2.66666667 5.33333333 4 8 C4.66 8 5.32 8 6 8 C6.103125 8.598125 6.20625 9.19625 6.3125 9.8125 C7.08876455 12.28243264 8.07088921 13.32251235 10 15 C9.34 15 8.68 15 8 15 C7.67 15.66 7.34 16.32 7 17 C5.49445366 14.71180854 3.99542957 12.41978831 2.5 10.125 C2.07074219 9.47402344 1.64148438 8.82304687 1.19921875 8.15234375 C-2 3.2265625 -2 3.2265625 -2 1 C-1.34 0.67 -0.68 0.34 0 0 Z " fill="#FC8D1F" transform="translate(317,437)"/>
<path d="M0 0 C2 1 2 1 3 3 C2.38125 3.144375 1.7625 3.28875 1.125 3.4375 C-1.03258322 3.93152225 -1.03258322 3.93152225 -3 5 C-3.33 4.67 -3.66 4.34 -4 4 C-4.763125 4.639375 -5.52625 5.27875 -6.3125 5.9375 C-9 8 -9 8 -12 9 C-12.99 8.01 -13.98 7.02 -15 6 C-12.54524486 4.96971956 -10.08685649 3.95054496 -7.625 2.9375 C-6.57699219 2.49567383 -6.57699219 2.49567383 -5.5078125 2.04492188 C-3.69495092 1.30408902 -1.84876857 0.64603036 0 0 Z " fill="#FD9725" transform="translate(425,155)"/>
<path d="M0 0 C0.88229454 5.73491451 -1.49896975 8.76938812 -4.6875 13.2421875 C-5.120625 13.82226562 -5.55375 14.40234375 -6 15 C-6 5.32 -6 5.32 -2.4375 1.1875 C-1 0 -1 0 0 0 Z " fill="#FD9224" transform="translate(244,669)"/>
<path d="M0 0 C0 3 0 3 -1.4609375 4.68359375 C-2.09257812 5.26238281 -2.72421875 5.84117187 -3.375 6.4375 C-5.94582115 8.80202068 -7.60084869 10.78477855 -9 14 C-10.32 13.34 -11.64 12.68 -13 12 C-12.0919838 10.86800647 -11.17316174 9.74467637 -10.25 8.625 C-9.73953125 7.99851562 -9.2290625 7.37203125 -8.703125 6.7265625 C-6.90617401 4.90488283 -5.30720898 4.05904675 -3 3 C-1.29078411 1.4587688 -1.29078411 1.4587688 0 0 Z " fill="#FD9324" transform="translate(280,623)"/>
<path d="M0 0 C0.66 0 1.32 0 2 0 C0.5741914 3.45195767 -1.09746334 5.1014256 -4.125 7.25 C-5.21167969 8.03117188 -5.21167969 8.03117188 -6.3203125 8.828125 C-6.87460937 9.21484375 -7.42890625 9.6015625 -8 10 C-7.67 10.66 -7.34 11.32 -7 12 C-8.65 11.67 -10.3 11.34 -12 11 C-12 10.01 -12 9.02 -12 8 C-9.62890625 6.2109375 -9.62890625 6.2109375 -6.5625 4.375 C-3.09234338 2.43951068 -3.09234338 2.43951068 0 0 Z " fill="#F76C10" transform="translate(640,504)"/>
<path d="M0 0 C-5.31321362 2.84636444 -9.769025 3.13599024 -15.75 3.0625 C-16.44738281 3.05798828 -17.14476562 3.05347656 -17.86328125 3.04882812 C-19.57555803 3.0371002 -21.28779033 3.01916653 -23 3 C-23 2.67 -23 2.34 -23 2 C-15.2441657 0.29005228 -7.93396732 -0.24923458 0 0 Z " fill="#FA680C" transform="translate(591,947)"/>
<path d="M0 0 C0.33 0 0.66 0 1 0 C1 3.3 1 6.6 1 10 C1.66 10 2.32 10 3 10 C3 19 3 19 1 22 C-1.03232625 14.40816971 -0.9880871 7.77117154 0 0 Z " fill="#FA9326" transform="translate(283,104)"/>
<path d="M0 0 C0.99 1.32 1.98 2.64 3 4 C2.525625 5.051875 2.05125 6.10375 1.5625 7.1875 C0.30676259 10.10175851 -0.52234381 12.84746914 -1 16 C-1.99 16 -2.98 16 -4 16 C-2.98408579 10.53135543 -1.92908943 5.23609987 0 0 Z " fill="#FC9626" transform="translate(297,279)"/>
<path d="M0 0 C0.33 0 0.66 0 1 0 C1.66 3.3 2.32 6.6 3 10 C2.01 10.495 2.01 10.495 1 11 C0.52402634 13.70599842 0.15906371 16.33595404 -0.125 19.0625 C-0.21136719 19.82111328 -0.29773438 20.57972656 -0.38671875 21.36132812 C-0.59939517 23.23996986 -0.80075459 25.11988636 -1 27 C-1.33 27 -1.66 27 -2 27 C-2.30892527 17.78372955 -1.39049107 9.08785235 0 0 Z " fill="#FB9B2C" transform="translate(290,305)"/>
<path d="M0 0 C-3.87737825 2.88549079 -6.14278165 4.39382851 -11 4 C-11.99 4.33 -12.98 4.66 -14 5 C-14.99 4.34 -15.98 3.68 -17 3 C-14.92085336 2.29994051 -12.83648414 1.61537756 -10.75 0.9375 C-9.58984375 0.55464844 -8.4296875 0.17179688 -7.234375 -0.22265625 C-4.19922915 -0.95211763 -2.84296787 -1.11889082 0 0 Z " fill="#FD9525" transform="translate(453,148)"/>
<path d="M0 0 C0 0.33 0 0.66 0 1 C-5.94 0.67 -11.88 0.34 -18 0 C-18 0.66 -18 1.32 -18 2 C-20.31 2 -22.62 2 -25 2 C-25.33 1.34 -25.66 0.68 -26 0 C-17.65662197 -1.98352006 -8.39966167 -1.59993556 0 0 Z " fill="#FD9324" transform="translate(548,142)"/>
<path d="M0 0 C1.485 0.99 1.485 0.99 3 2 C3 2.99 3 3.98 3 5 C3.66 5.33 4.32 5.66 5 6 C5 9.63 5 13.26 5 17 C3.025333 14.03799949 2.28044646 11.90228368 1.375 8.5 C1.11460937 7.5409375 0.85421875 6.581875 0.5859375 5.59375 C0 3 0 3 0 0 Z " fill="#F86D12" transform="translate(819,755)"/>
<path d="M0 0 C-2.28874173 1.33858524 -4.58069656 2.67101014 -6.875 4 C-7.52597656 4.3815625 -8.17695313 4.763125 -8.84765625 5.15625 C-13.7734375 8 -13.7734375 8 -16 8 C-16 7.34 -16 6.68 -16 6 C-13.953125 4.52734375 -13.953125 4.52734375 -11.25 2.9375 C-10.36828125 2.41027344 -9.4865625 1.88304687 -8.578125 1.33984375 C-3.05794948 -1.52897474 -3.05794948 -1.52897474 0 0 Z " fill="#FB7411" transform="translate(395,525)"/>
<path d="M0 0 C-1.95467752 1.33898399 -3.9133579 2.67129047 -5.875 4 C-6.96554687 4.7425 -8.05609375 5.485 -9.1796875 6.25 C-12 8 -12 8 -14 8 C-14 7.34 -14 6.68 -14 6 C-12 4.66666667 -10 3.33333333 -8 2 C-8 1.34 -8 0.68 -8 0 C-4.90645403 -0.99435406 -3.09720845 -0.87840996 0 0 Z " fill="#FC7813" transform="translate(376,536)"/>
<path d="M0 0 C0 0.99 0 1.98 0 3 C-0.639375 3.226875 -1.27875 3.45375 -1.9375 3.6875 C-4.27193661 4.85250896 -4.27193661 4.85250896 -4.75 7.625 C-4.8325 8.40875 -4.915 9.1925 -5 10 C-5.99 10 -6.98 10 -8 10 C-8 6.06830895 -6.60580385 4.83572772 -4 2 C-3.34 2 -2.68 2 -2 2 C-1.34 1.34 -0.68 0.68 0 0 Z " fill="#FD9225" transform="translate(255,656)"/>
<path d="M0 0 C3.34708051 1.54841575 6.24667512 3.49105864 9.25 5.625 C10.14203125 6.25664062 11.0340625 6.88828125 11.953125 7.5390625 C12.96632813 8.26222656 12.96632813 8.26222656 14 9 C13.01 9.66 12.02 10.32 11 11 C10.29875 10.2575 9.5975 9.515 8.875 8.75 C6.07521249 5.90808164 6.07521249 5.90808164 2.6875 3.8125 C1.800625 3.214375 0.91375 2.61625 0 2 C0 1.34 0 0.68 0 0 Z " fill="#F7B82A" transform="translate(380,421)"/>
<path d="M0 0 C2.1464753 0.11344376 4.29220592 0.24106345 6.4375 0.375 C8.22994141 0.47941406 8.22994141 0.47941406 10.05859375 0.5859375 C11.02925781 0.72257812 11.99992187 0.85921875 13 1 C13.33 1.66 13.66 2.32 14 3 C15.64363134 3.72159424 17.31050386 4.39351421 19 5 C14.82893888 6.39035371 11.81793141 4.90230806 7.8125 3.5625 C6.68811523 3.19801758 6.68811523 3.19801758 5.54101562 2.82617188 C3.69142499 2.22534944 1.84535673 1.61370322 0 1 C0 0.67 0 0.34 0 0 Z " fill="#F2BE30" transform="translate(356,283)"/>
<path d="M0 0 C0.66 0 1.32 0 2 0 C1.50130596 5.36891879 0.97772468 10.69235173 0 16 C-0.33 16 -0.66 16 -1 16 C-1.02692484 13.70839681 -1.04636124 11.41670454 -1.0625 9.125 C-1.07410156 7.84882812 -1.08570313 6.57265625 -1.09765625 5.2578125 C-1 2 -1 2 0 0 Z " fill="#FE7A10" transform="translate(295,840)"/>
<path d="M0 0 C2.55664559 2.22317008 3.3936615 3.68845894 4 7 C4.06624507 8.74886981 4.08552595 10.50002748 4.0625 12.25 C4.05347656 13.14203125 4.04445313 14.0340625 4.03515625 14.953125 C4.02355469 15.62859375 4.01195312 16.3040625 4 17 C2.04020631 14.06030946 1.51679931 12.44977414 0.875 9.0625 C0.70742188 8.20785156 0.53984375 7.35320313 0.3671875 6.47265625 C0 4 0 4 0 0 Z " fill="#F86D10" transform="translate(824,773)"/>
<path d="M0 0 C0.33 0 0.66 0 1 0 C1.49230769 6.4 1.49230769 6.4 -1 9.4375 C-1.99 10.2109375 -1.99 10.2109375 -3 11 C-3.66 10.67 -4.32 10.34 -5 10 C-3.66654496 6.40992874 -2.1056769 3.20429093 0 0 Z " fill="#FD9122" transform="translate(234,683)"/>
<path d="M0 0 C2.12038635 2.61514317 4.13091744 5.19637616 6 8 C5.34 9.32 4.68 10.64 4 12 C3.13353333 10.56988027 2.28218171 9.13059381 1.4375 7.6875 C0.72400391 6.48673828 0.72400391 6.48673828 -0.00390625 5.26171875 C-1 3 -1 3 0 0 Z " fill="#FD9021" transform="translate(346,185)"/>
<path d="M0 0 C0.33 0 0.66 0 1 0 C0.50769231 7.38461538 0.50769231 7.38461538 -2.0625 10.5 C-2.701875 10.995 -3.34125 11.49 -4 12 C-3.53439347 7.25081338 -2.83067342 3.89217595 0 0 Z " fill="#FB6F10" transform="translate(291,835)"/>
<path d="M0 0 C1 2 1 2 0.0625 5.125 C-0.288125 6.07375 -0.63875 7.0225 -1 8 C-1.66 8 -2.32 8 -3 8 C-3.33 8.99 -3.66 9.98 -4 11 C-4.99 10.67 -5.98 10.34 -7 10 C-3.535 5.05 -3.535 5.05 0 0 Z " fill="#FD9827" transform="translate(326,227)"/>
<path d="M0 0 C1.18771723 3.42943519 0.80226223 5.37784675 -0.4375 8.75 C-0.86869141 9.94882813 -0.86869141 9.94882813 -1.30859375 11.171875 C-1.65083984 12.07679688 -1.65083984 12.07679688 -2 13 C-2.33 13 -2.66 13 -3 13 C-3.152 3.88 -3.152 3.88 -2 1 C-1.34 0.67 -0.68 0.34 0 0 Z " fill="#FD8E22" transform="translate(360,119)"/>
<path d="M0 0 C1.40070613 4.20211839 0.76587588 7.33309368 -1.0625 11.3125 C-1.5265625 12.1478125 -1.5265625 12.1478125 -2 13 C-3.125 11.375 -3.125 11.375 -4 9 C-3.1292439 5.44441261 -2.03663351 3.05495026 0 0 Z " fill="#FB9426" transform="translate(289,90)"/>
<path d="M0 0 C3.0916909 2.52956528 3.90931332 5.22454612 5 9 C5.66 9 6.32 9 7 9 C7 9.66 7 10.32 7 11 C5.68 10.67 4.36 10.34 3 10 C3.33 9.34 3.66 8.68 4 8 C3.34 8 2.68 8 2 8 C-0.1519437 4.77208445 -0.20086443 3.71599191 0 0 Z " fill="#FD9223" transform="translate(377,167)"/>
<path d="M0 0 C0.66 0.33 1.32 0.66 2 1 C0.70700306 3.88437779 -0.65941363 5.87219421 -3 8 C-3.99 7.67 -4.98 7.34 -6 7 C-4.02 4.69 -2.04 2.38 0 0 Z " fill="#FD9624" transform="translate(333,219)"/>
<path d="M0 0 C3.11373372 1.49920512 6.12228205 3.08152136 9 5 C9 5.66 9 6.32 9 7 C4.75272765 6.52808085 2.76506398 4.07229331 0 1 C0 0.67 0 0.34 0 0 Z " fill="#FD7712" transform="translate(303,906)"/>
<path d="M0 0 C1.32 0.33 2.64 0.66 4 1 C4 3.33333333 4 5.66666667 4 8 C3.34 8.66 2.68 9.32 2 10 C1.34 6.7 0.68 3.4 0 0 Z " fill="#FB9629" transform="translate(293,384)"/>
<path d="M0 0 C3 2 3 2 4 5 C4.03954234 7.33299825 4.04401732 9.66708189 4 12 C2.09681116 9.14521674 1.5380901 7.58058692 0.875 4.3125 C0.70742188 3.50425781 0.53984375 2.69601562 0.3671875 1.86328125 C0.24601563 1.24839844 0.12484375 0.63351562 0 0 Z " fill="#F86C10" transform="translate(721,281)"/>
<path d="M0 0 C0.33 0.66 0.66 1.32 1 2 C1.66 2.33 2.32 2.66 3 3 C1.68 4.32 0.36 5.64 -1 7 C-1.99 6.34 -2.98 5.68 -4 5 C-2.68 3.35 -1.36 1.7 0 0 Z " fill="#FD9123" transform="translate(265,638)"/>
<path d="M0 0 C0.70640625 0.05220703 1.4128125 0.10441406 2.140625 0.15820312 C3.88579987 0.28791207 5.63045725 0.42454954 7.375 0.5625 C7.375 0.8925 7.375 1.2225 7.375 1.5625 C4.91720024 1.78376178 2.45972352 1.99000395 0 2.1875 C-1.04800781 2.28417969 -1.04800781 2.28417969 -2.1171875 2.3828125 C-3.94869111 2.52369739 -5.78812748 2.55011659 -7.625 2.5625 C-8.285 1.9025 -8.945 1.2425 -9.625 0.5625 C-6.5270403 -0.98647985 -3.36283448 -0.26989539 0 0 Z " fill="#281C0F" transform="translate(346.625,284.4375)"/>
<path d="M0 0 C0.66 0.33 1.32 0.66 2 1 C-1.625 6.75 -1.625 6.75 -5 9 C-5.66 8.34 -6.32 7.68 -7 7 C-6.195625 6.7525 -5.39125 6.505 -4.5625 6.25 C-1.83364774 5.28621485 -1.83364774 5.28621485 -1.25 2.9375 C-1.1675 2.298125 -1.085 1.65875 -1 1 C-0.67 0.67 -0.34 0.34 0 0 Z " fill="#FD9524" transform="translate(355,195)"/>
<path d="M0 0 C1.32 0.66 2.64 1.32 4 2 C3.1875 3.9375 3.1875 3.9375 2 6 C1.01 6.33 0.02 6.66 -1 7 C-2 4 -2 4 -1.0625 1.8125 C-0.5365625 0.9153125 -0.5365625 0.9153125 0 0 Z " fill="#FC9123" transform="translate(225,698)"/>
<path d="M0 0 C2.99324263 1.0975223 3.84610901 1.67682892 5.25 4.625 C5.4975 5.40875 5.745 6.1925 6 7 C4.68 7 3.36 7 2 7 C0.5393715 4.35261084 0 3.10551666 0 0 Z " fill="#FC8D21" transform="translate(350,86)"/>
<path d="M0 0 C0 0.66 0 1.32 0 2 C0.99 2.33 1.98 2.66 3 3 C2.01 3.66 1.02 4.32 0 5 C-0.33 4.01 -0.66 3.02 -1 2 C-1.99 2.33 -2.98 2.66 -4 3 C-4.99 2.34 -5.98 1.68 -7 1 C-4.53721199 -0.231394 -2.7204945 -0.07159196 0 0 Z " fill="#FC9226" transform="translate(339,75)"/>
<path d="M0 0 C1 3 1 3 -0.4375 6.1875 C-1.2109375 7.5796875 -1.2109375 7.5796875 -2 9 C-2.33 9 -2.66 9 -3 9 C-2.25 2.25 -2.25 2.25 0 0 Z " fill="#FE8418" transform="translate(200,751)"/>
<path d="M0 0 C0.99 0.33 1.98 0.66 3 1 C-0.465 3.97 -0.465 3.97 -4 7 C-4 4 -4 4 -2 1.8125 C-1.34 1.214375 -0.68 0.61625 0 0 Z " fill="#FD861A" transform="translate(316,580)"/>
<path d="M0 0 C2.5 1.125 2.5 1.125 5 3 C5.3125 6.1875 5.3125 6.1875 5 9 C2.67527795 6.14693203 1.2491742 3.45925163 0 0 Z " fill="#FC8F20" transform="translate(338,173)"/>
<path d="M0 0 C3.93673644 1.31224548 6.22719294 2.91910327 9 6 C2.35384615 4.52307692 2.35384615 4.52307692 0.5625 1.875 C0.376875 1.25625 0.19125 0.6375 0 0 Z " fill="#FB6A0D" transform="translate(739,887)"/>
<path d="M0 0 C0.99 0.33 1.98 0.66 3 1 C-0.465 3.97 -0.465 3.97 -4 7 C-3.04065919 3.16263678 -2.76390737 2.40339772 0 0 Z " fill="#FD8718" transform="translate(278,622)"/>
<path d="M0 0 C2.475 0.495 2.475 0.495 5 1 C5.33 2.98 5.66 4.96 6 7 C1.125 2.25 1.125 2.25 0 0 Z " fill="#FC8E1F" transform="translate(332,464)"/>
<path d="M0 0 C0.66 0.33 1.32 0.66 2 1 C0.35 3.64 -1.3 6.28 -3 9 C-3.66 8.67 -4.32 8.34 -5 8 C-5 5 -5 5 -2.5 2.3125 C-1.675 1.549375 -0.85 0.78625 0 0 Z " fill="#EDB52D" transform="translate(333,287)"/>
<path d="M0 0 C0.66 0 1.32 0 2 0 C1.6875 3.375 1.6875 3.375 1 7 C0.01 7.66 -0.98 8.32 -2 9 C-1.41196203 5.97580475 -0.77321882 2.98241547 0 0 Z " fill="#FB7110" transform="translate(688,151)"/>
<path d="M0 0 C-0.99 0.495 -0.99 0.495 -2 1 C-2.33 1.99 -2.66 2.98 -3 4 C-5.0625 4.6875 -5.0625 4.6875 -7 5 C-7 3.68 -7 2.36 -7 1 C-4.53721199 -0.231394 -2.7204945 -0.07159196 0 0 Z " fill="#FB9429" transform="translate(215,727)"/>
<path d="M0 0 C2.46800047 1.15173355 4.04783565 2.04783565 6 4 C5.67 4.99 5.34 5.98 5 7 C3.29115995 5.37660195 1.62553283 3.70680947 0 2 C0 1.34 0 0.68 0 0 Z " fill="#FB7312" transform="translate(682,215)"/>
<path d="M0 0 C0.66 0.33 1.32 0.66 2 1 C1.25 2.9375 1.25 2.9375 0 5 C-2.125 5.75 -2.125 5.75 -4 6 C-3.6875 4.125 -3.6875 4.125 -3 2 C-2.01 1.34 -1.02 0.68 0 0 Z " fill="#FD9928" transform="translate(393,170)"/>
<path d="M0 0 C0.33 0 0.66 0 1 0 C1 2.64 1 5.28 1 8 C0.67 8 0.34 8 0 8 C0 5.36 0 2.72 0 0 Z " fill="#E98B2B" transform="translate(176,827)"/>
<path d="M0 0 C0.33 0 0.66 0 1 0 C1 1.98 1 3.96 1 6 C0.67 6 0.34 6 0 6 C0 4.02 0 2.04 0 0 Z " fill="#F78723" transform="translate(289,875)"/>
<path d="M0 0 C1.65 0 3.3 0 5 0 C5 0.33 5 0.66 5 1 C3.35 1 1.7 1 0 1 C0 0.67 0 0.34 0 0 Z " fill="#EA8122" transform="translate(240,886)"/>
<path d="M0 0 C4 1 4 1 4 1 Z " fill="#E98020" transform="translate(235,886)"/>
<path d="M0 0 C3 1 3 1 3 1 Z " fill="#E98222" transform="translate(228,886)"/>
<path d="" fill="#E57B20" transform="translate(0,0)"/>
<path d="M0 0 C3 1 3 1 3 1 Z " fill="#F69E34" transform="translate(392,168)"/>
<path d="M0 0 C3 1 3 1 3 1 Z " fill="#E78528" transform="translate(684,72)"/>
<path d="" fill="#F48524" transform="translate(0,0)"/>
<path d="M0 0 C2 1 2 1 2 1 Z " fill="#FA841F" transform="translate(291,844)"/>
<path d="" fill="#EF922F" transform="translate(0,0)"/>
<path d="" fill="#EF932F" transform="translate(0,0)"/>
<path d="" fill="#E67C20" transform="translate(0,0)"/>
<path d="" fill="#E2791D" transform="translate(0,0)"/>
<path d="" fill="#E4791C" transform="translate(0,0)"/>
<path d="" fill="#E5791F" transform="translate(0,0)"/>
<path d="" fill="#EF932C" transform="translate(0,0)"/>
<path d="M0 0 C2 1 2 1 2 1 Z " fill="#EE952D" transform="translate(300,414)"/>
<path d="" fill="#EC9730" transform="translate(0,0)"/>
<path d="" fill="#EC9930" transform="translate(0,0)"/>
<path d="" fill="#EE9732" transform="translate(0,0)"/>
<path d="" fill="#E99731" transform="translate(0,0)"/>
<path d="" fill="#EA9836" transform="translate(0,0)"/>
<path d="" fill="#F69D32" transform="translate(0,0)"/>
<path d="M0 0 C2 1 2 1 2 1 Z " fill="#EA7B1F" transform="translate(670,198)"/>
<path d="" fill="#EB7D1F" transform="translate(0,0)"/>
<path d="" fill="#F69B33" transform="translate(0,0)"/>
<path d="M0 0 C2 1 2 1 2 1 Z " fill="#F49E34" transform="translate(408,160)"/>
<path d="M0 0 C2 1 2 1 2 1 Z " fill="#F7992F" transform="translate(428,152)"/>
<path d="" fill="#F79B33" transform="translate(0,0)"/>
<path d="" fill="#E89331" transform="translate(0,0)"/>
<path d="" fill="#F38925" transform="translate(0,0)"/>
<path d="" fill="#F3962E" transform="translate(0,0)"/>
<path d="" fill="#F0942F" transform="translate(0,0)"/>
<path d="M0 0 C2 1 2 1 2 1 Z " fill="#EB9934" transform="translate(334,73)"/>
<path d="M0 0 C2 1 2 1 2 1 Z " fill="#E68527" transform="translate(707,72)"/>
<path d="" fill="#EB791A" transform="translate(0,0)"/>
<path d="" fill="#EB781A" transform="translate(0,0)"/>
<path d="" fill="#EF801E" transform="translate(0,0)"/>
<path d="" fill="#EA7719" transform="translate(0,0)"/>
<path d="" fill="#EE821D" transform="translate(0,0)"/>
<path d="" fill="#E77518" transform="translate(0,0)"/>
<path d="" fill="#ED8421" transform="translate(0,0)"/>
<path d="" fill="#E87619" transform="translate(0,0)"/>
<path d="" fill="#ED8421" transform="translate(0,0)"/>
<path d="" fill="#F08623" transform="translate(0,0)"/>
<path d="" fill="#EE8320" transform="translate(0,0)"/>
<path d="" fill="#EB7519" transform="translate(0,0)"/>
<path d="" fill="#ED8423" transform="translate(0,0)"/>
<path d="" fill="#E77215" transform="translate(0,0)"/>
<path d="" fill="#E47218" transform="translate(0,0)"/>
<path d="" fill="#EA7118" transform="translate(0,0)"/>
<path d="" fill="#E77A1D" transform="translate(0,0)"/>
<path d="" fill="#EA7A1B" transform="translate(0,0)"/>
<path d="" fill="#E8761B" transform="translate(0,0)"/>
<path d="" fill="#E97C1D" transform="translate(0,0)"/>
<path d="" fill="#E8761E" transform="translate(0,0)"/>
<path d="" fill="#E0751C" transform="translate(0,0)"/>
<path d="" fill="#F48824" transform="translate(0,0)"/>
<path d="" fill="#EB8221" transform="translate(0,0)"/>
<path d="" fill="#E1791E" transform="translate(0,0)"/>
<path d="" fill="#EB8425" transform="translate(0,0)"/>
<path d="" fill="#DF771F" transform="translate(0,0)"/>
<path d="" fill="#F98521" transform="translate(0,0)"/>
<path d="" fill="#F88822" transform="translate(0,0)"/>
<path d="" fill="#F88722" transform="translate(0,0)"/>
<path d="" fill="#F98620" transform="translate(0,0)"/>
<path d="" fill="#DB7820" transform="translate(0,0)"/>
<path d="" fill="#F98723" transform="translate(0,0)"/>
<path d="" fill="#EA8B28" transform="translate(0,0)"/>
<path d="" fill="#F5851F" transform="translate(0,0)"/>
<path d="" fill="#F88A27" transform="translate(0,0)"/>
<path d="" fill="#ED8A2C" transform="translate(0,0)"/>
<path d="" fill="#EC8D2D" transform="translate(0,0)"/>
<path d="" fill="#EB8E2D" transform="translate(0,0)"/>
<path d="" fill="#E57A20" transform="translate(0,0)"/>
<path d="" fill="#F2922B" transform="translate(0,0)"/>
<path d="" fill="#F19330" transform="translate(0,0)"/>
<path d="" fill="#E77C1F" transform="translate(0,0)"/>
<path d="" fill="#E47B1F" transform="translate(0,0)"/>
<path d="" fill="#E77A20" transform="translate(0,0)"/>
<path d="" fill="#E57B1F" transform="translate(0,0)"/>
<path d="" fill="#F09029" transform="translate(0,0)"/>
<path d="" fill="#F2912A" transform="translate(0,0)"/>
<path d="" fill="#E7791E" transform="translate(0,0)"/>
<path d="" fill="#F4922D" transform="translate(0,0)"/>
<path d="" fill="#E4781F" transform="translate(0,0)"/>
<path d="" fill="#EA7A21" transform="translate(0,0)"/>
<path d="" fill="#F1932F" transform="translate(0,0)"/>
<path d="" fill="#F3952D" transform="translate(0,0)"/>
<path d="" fill="#F2942E" transform="translate(0,0)"/>
<path d="" fill="#E77821" transform="translate(0,0)"/>
<path d="" fill="#E3761E" transform="translate(0,0)"/>
<path d="" fill="#F1942E" transform="translate(0,0)"/>
<path d="" fill="#F09329" transform="translate(0,0)"/>
<path d="" fill="#E57820" transform="translate(0,0)"/>
<path d="" fill="#F4942F" transform="translate(0,0)"/>
<path d="" fill="#E1771B" transform="translate(0,0)"/>
<path d="" fill="#F29229" transform="translate(0,0)"/>
<path d="" fill="#E77B1E" transform="translate(0,0)"/>
<path d="" fill="#E8791F" transform="translate(0,0)"/>
<path d="" fill="#F19327" transform="translate(0,0)"/>
<path d="" fill="#E4761D" transform="translate(0,0)"/>
<path d="" fill="#E6771A" transform="translate(0,0)"/>
<path d="" fill="#E8761C" transform="translate(0,0)"/>
<path d="" fill="#F29429" transform="translate(0,0)"/>
<path d="" fill="#E8761D" transform="translate(0,0)"/>
<path d="" fill="#F6932B" transform="translate(0,0)"/>
<path d="" fill="#F3952B" transform="translate(0,0)"/>
<path d="" fill="#E6741D" transform="translate(0,0)"/>
<path d="" fill="#F2932B" transform="translate(0,0)"/>
<path d="" fill="#F08928" transform="translate(0,0)"/>
<path d="" fill="#E57118" transform="translate(0,0)"/>
<path d="" fill="#F19029" transform="translate(0,0)"/>
<path d="" fill="#E46915" transform="translate(0,0)"/>
<path d="" fill="#ED6A15" transform="translate(0,0)"/>
<path d="" fill="#F98E27" transform="translate(0,0)"/>
<path d="" fill="#F88D26" transform="translate(0,0)"/>
<path d="" fill="#EA7019" transform="translate(0,0)"/>
<path d="" fill="#ED771B" transform="translate(0,0)"/>
<path d="" fill="#F89228" transform="translate(0,0)"/>
<path d="" fill="#F99229" transform="translate(0,0)"/>
<path d="" fill="#F7962D" transform="translate(0,0)"/>
<path d="" fill="#F5972E" transform="translate(0,0)"/>
<path d="" fill="#EB7A1F" transform="translate(0,0)"/>
<path d="" fill="#E77B21" transform="translate(0,0)"/>
<path d="" fill="#EC7B1F" transform="translate(0,0)"/>
<path d="" fill="#F1932A" transform="translate(0,0)"/>
<path d="" fill="#F3952E" transform="translate(0,0)"/>
<path d="" fill="#F4952C" transform="translate(0,0)"/>
<path d="" fill="#F0952C" transform="translate(0,0)"/>
<path d="" fill="#E1791E" transform="translate(0,0)"/>
<path d="" fill="#EF972E" transform="translate(0,0)"/>
<path d="" fill="#EF942E" transform="translate(0,0)"/>
<path d="" fill="#EF972E" transform="translate(0,0)"/>
<path d="" fill="#F0972E" transform="translate(0,0)"/>
<path d="" fill="#EF9731" transform="translate(0,0)"/>
<path d="" fill="#EE9431" transform="translate(0,0)"/>
<path d="" fill="#ED9932" transform="translate(0,0)"/>
<path d="" fill="#E0761B" transform="translate(0,0)"/>
<path d="" fill="#EC9833" transform="translate(0,0)"/>
<path d="" fill="#E57B1E" transform="translate(0,0)"/>
<path d="" fill="#E47B20" transform="translate(0,0)"/>
<path d="" fill="#E27B1F" transform="translate(0,0)"/>
<path d="" fill="#E99B33" transform="translate(0,0)"/>
<path d="" fill="#E47B20" transform="translate(0,0)"/>
<path d="" fill="#524729" transform="translate(0,0)"/>
<path d="" fill="#EB9A37" transform="translate(0,0)"/>
<path d="" fill="#ED9B36" transform="translate(0,0)"/>
<path d="" fill="#F09A35" transform="translate(0,0)"/>
<path d="" fill="#F19B34" transform="translate(0,0)"/>
<path d="" fill="#F39B32" transform="translate(0,0)"/>
<path d="" fill="#F09932" transform="translate(0,0)"/>
<path d="" fill="#EA7D21" transform="translate(0,0)"/>
<path d="" fill="#E87E1F" transform="translate(0,0)"/>
<path d="" fill="#EB8023" transform="translate(0,0)"/>
<path d="" fill="#F49D32" transform="translate(0,0)"/>
<path d="" fill="#F49D31" transform="translate(0,0)"/>
<path d="" fill="#EB801E" transform="translate(0,0)"/>
<path d="" fill="#F59B31" transform="translate(0,0)"/>
<path d="" fill="#F99C31" transform="translate(0,0)"/>
<path d="" fill="#EC7B1E" transform="translate(0,0)"/>
<path d="" fill="#F89A30" transform="translate(0,0)"/>
<path d="" fill="#F99B33" transform="translate(0,0)"/>
<path d="" fill="#ED8020" transform="translate(0,0)"/>
<path d="" fill="#EA7F21" transform="translate(0,0)"/>
<path d="" fill="#F89B34" transform="translate(0,0)"/>
<path d="" fill="#F89B30" transform="translate(0,0)"/>
<path d="" fill="#F08420" transform="translate(0,0)"/>
<path d="" fill="#F28A23" transform="translate(0,0)"/>
<path d="" fill="#F28825" transform="translate(0,0)"/>
<path d="" fill="#F08B24" transform="translate(0,0)"/>
<path d="" fill="#F69A30" transform="translate(0,0)"/>
<path d="" fill="#F58F26" transform="translate(0,0)"/>
<path d="" fill="#F69A31" transform="translate(0,0)"/>
<path d="" fill="#F58C25" transform="translate(0,0)"/>
<path d="" fill="#F68C26" transform="translate(0,0)"/>
<path d="" fill="#F49931" transform="translate(0,0)"/>
<path d="" fill="#EF8B25" transform="translate(0,0)"/>
<path d="" fill="#F69B33" transform="translate(0,0)"/>
<path d="" fill="#F59A32" transform="translate(0,0)"/>
<path d="" fill="#F38C25" transform="translate(0,0)"/>
<path d="" fill="#EE8121" transform="translate(0,0)"/>
<path d="" fill="#F29932" transform="translate(0,0)"/>
<path d="" fill="#F19A31" transform="translate(0,0)"/>
<path d="" fill="#F78C25" transform="translate(0,0)"/>
<path d="" fill="#F2972F" transform="translate(0,0)"/>
<path d="" fill="#EA8120" transform="translate(0,0)"/>
<path d="" fill="#F59B30" transform="translate(0,0)"/>
<path d="" fill="#F29028" transform="translate(0,0)"/>
<path d="" fill="#F88B25" transform="translate(0,0)"/>
<path d="" fill="#F38925" transform="translate(0,0)"/>
<path d="" fill="#F59A2F" transform="translate(0,0)"/>
<path d="" fill="#F69B30" transform="translate(0,0)"/>
<path d="" fill="#EF9631" transform="translate(0,0)"/>
<path d="" fill="#EE9630" transform="translate(0,0)"/>
<path d="" fill="#F59429" transform="translate(0,0)"/>
<path d="" fill="#F7992C" transform="translate(0,0)"/>
<path d="" fill="#EE942E" transform="translate(0,0)"/>
<path d="" fill="#F58C26" transform="translate(0,0)"/>
<path d="" fill="#F3952A" transform="translate(0,0)"/>
<path d="" fill="#F2962B" transform="translate(0,0)"/>
<path d="" fill="#F78A25" transform="translate(0,0)"/>
<path d="" fill="#E37B21" transform="translate(0,0)"/>
<path d="" fill="#EA9330" transform="translate(0,0)"/>
<path d="" fill="#E7922F" transform="translate(0,0)"/>
<path d="" fill="#E99431" transform="translate(0,0)"/>
<path d="" fill="#E69431" transform="translate(0,0)"/>
<path d="" fill="#EF8C2B" transform="translate(0,0)"/>
<path d="" fill="#E08026" transform="translate(0,0)"/>
<path d="" fill="#EF9630" transform="translate(0,0)"/>
<path d="" fill="#E07E21" transform="translate(0,0)"/>
<path d="" fill="#E07E22" transform="translate(0,0)"/>
<path d="" fill="#F09934" transform="translate(0,0)"/>
<path d="" fill="#E89632" transform="translate(0,0)"/>
<path d="" fill="#E38020" transform="translate(0,0)"/>
<path d="" fill="#E37F21" transform="translate(0,0)"/>
<path d="" fill="#E99332" transform="translate(0,0)"/>
<path d="" fill="#E17E20" transform="translate(0,0)"/>
<path d="" fill="#E79430" transform="translate(0,0)"/>
<path d="" fill="#DE7B22" transform="translate(0,0)"/>
<path d="" fill="#EE9831" transform="translate(0,0)"/>
<path d="" fill="#EE9431" transform="translate(0,0)"/>
<path d="" fill="#F29731" transform="translate(0,0)"/>
<path d="" fill="#E68525" transform="translate(0,0)"/>
<path d="" fill="#EA8726" transform="translate(0,0)"/>
<path d="" fill="#EE9631" transform="translate(0,0)"/>
<path d="" fill="#E68625" transform="translate(0,0)"/>
<path d="" fill="#EC9734" transform="translate(0,0)"/>
<path d="" fill="#E8872A" transform="translate(0,0)"/>
</svg>
