<?xml version="1.0" encoding="UTF-8"?>
<svg version="1.1" xmlns="http://www.w3.org/2000/svg" width="1024" height="1024">
<path d="M0 0 C0 0.66 0 1.32 0 2 C0.825 2.20625 1.65 2.4125 2.5 2.625 C11.00408909 5.96589214 16.73694261 11.98139205 21 20 C25.397818 31.96144115 24.92640936 42.27252994 20 54 C14.35722715 63.58557109 5.69486439 70.0448401 -5 73 C-7.9599673 73.38327782 -10.86553386 73.6178175 -13.84765625 73.7265625 C-14.55792969 73.81679687 -15.26820313 73.90703125 -16 74 C-16.33 74.66 -16.66 75.32 -17 76 C-17 75.01 -17 74.02 -17 73 C-18.32 73 -19.64 73 -21 73 C-21.350625 74.216875 -21.70125 75.43375 -22.0625 76.6875 C-25.22908866 86.17232924 -30.56626126 96.29146473 -37 104 C-37.66 104 -38.32 104 -39 104 C-40.20628008 106.33214148 -41.1654738 108.49642139 -42 111 C-40.63294076 113.00240596 -40.63294076 113.00240596 -38.6875 114.9375 C-36.24455329 117.50928366 -34.43529614 119.74326206 -33 123 C-32.34 123 -31.68 123 -31 123 C-29.44538441 124.9292573 -27.99209783 126.85647254 -26.5625 128.875 C-24.2588171 132.11443664 -22.3684913 134.75433913 -19 137 C-19 137.66 -19 138.32 -19 139 C-17.43547963 141.45391938 -15.83935965 143.85606709 -14.1875 146.25 C-11.10483007 150.72668758 -8.40758511 155.11252992 -6 160 C-5.34 160.66 -4.68 161.32 -4 162 C-3.37481933 163.21652969 -2.80273849 164.46085316 -2.265625 165.71875 C-1.77993042 166.85497803 -1.77993042 166.85497803 -1.28442383 168.01416016 C6.07883097 185.70891123 11.10125623 202.75332344 14.52270508 221.65014648 C14.97853266 224.13736818 14.97853266 224.13736818 16 227 C16.2706387 231.76529143 16.24589977 236.54024891 16.25 241.3125 C16.25101212 242.3595108 16.25101212 242.3595108 16.25204468 243.42767334 C16.17153847 295.95232998 -3.78630634 342.21806991 -38.9453125 380.72265625 C-40.70565798 382.6737616 -42.39184323 384.66013544 -44.0625 386.6875 C-47.35865724 390.54794502 -51.11655128 393.74494104 -55 397 C-56.65263111 398.38779307 -58.30443526 399.77654466 -59.95483398 401.16699219 C-61.0822538 402.11569603 -62.2118652 403.06180356 -63.34399414 404.00488281 C-66.73258541 406.84769186 -70.00023262 409.73865736 -73 413 C-73 413.66 -73 414.32 -73 415 C-71.81148437 415.51046875 -70.62296875 416.0209375 -69.3984375 416.546875 C-57.03987346 421.93759415 -45.19928304 428.01872284 -33.45166016 434.63085938 C-31.85549762 435.52224351 -30.25126076 436.39936887 -28.63818359 437.25976562 C-24.12960753 439.67848408 -20.05001322 442.32284359 -16.00537109 445.45556641 C-13.95051538 447.03811051 -11.85612776 448.54596121 -9.73828125 450.04296875 C-1.50942619 455.88191011 6.45990419 461.84570986 14.0703125 468.47265625 C16.76208287 470.79475682 19.51665711 472.99313666 22.3125 475.1875 C27.24481348 479.19998409 31.75277973 483.57044836 36.25 488.0625 C36.91169189 488.72338623 37.57338379 489.38427246 38.25512695 490.06518555 C42.69386828 494.55399414 46.89278505 499.20742225 51 504 C51.46776855 504.54068115 51.93553711 505.0813623 52.41748047 505.63842773 C65.81831486 521.15713892 78.27672437 537.50752231 89 555 C89.40911621 555.65581055 89.81823242 556.31162109 90.23974609 556.98730469 C99.32335254 571.56913985 107.28591757 586.65641938 115 602 C115.43441406 602.85416504 115.86882813 603.70833008 116.31640625 604.58837891 C132.28207593 636.11794192 142.74235097 670.30750562 149 705 C149.14695312 705.80083008 149.29390625 706.60166016 149.4453125 707.42675781 C152.94757224 727.27600116 153.9765602 749.32677821 142.60546875 766.734375 C141.81076172 767.85585937 141.81076172 767.85585937 141 769 C140.52175781 769.68578125 140.04351563 770.3715625 139.55078125 771.078125 C134.35701617 777.72405109 127.20753088 781.85546095 120 786 C119.14921875 786.49628906 118.2984375 786.99257813 117.421875 787.50390625 C101.24703142 795.82612416 78.64119064 798.90726093 60.6015625 797.796875 C53.72274975 797.15961157 53.72274975 797.15961157 47.578125 799.6796875 C46.11814749 801.21959078 44.70630075 802.80622462 43.33984375 804.4296875 C18.47241444 831.74649633 -33.56616918 838.90846634 -67.70840454 845.87121582 C-70.54237308 846.45406806 -73.25149026 847.08383009 -76 848 C-77.73108511 848.18179611 -79.46653345 848.32327382 -81.203125 848.44140625 C-88.04295703 848.96825818 -94.83219262 849.8085021 -101.63577271 850.67098999 C-131.7812366 854.47099196 -161.86294039 856.22907566 -192.25 856.25 C-193.29027344 856.25100708 -194.33054687 856.25201416 -195.40234375 856.25305176 C-226.46172784 856.2330514 -257.27917696 853.9608011 -288.05859375 849.8671875 C-294.69131606 848.99521924 -301.32566936 848.43745482 -308 848 C-308 847.34 -308 846.68 -308 846 C-308.8811145 845.96132812 -308.8811145 845.96132812 -309.7800293 845.921875 C-319.02688657 845.31217307 -327.8280269 843.13893884 -336.8125 841 C-339.17293435 840.44437632 -341.5338482 839.8908766 -343.89518738 839.33911133 C-345.35277411 838.9978644 -346.80977663 838.65410847 -348.2660675 838.30737305 C-352.16066491 837.38838034 -356.04508861 836.6095728 -360 836 C-360 835.34 -360 834.68 -360 834 C-360.59425781 833.90203125 -361.18851563 833.8040625 -361.80078125 833.703125 C-367.69876056 832.63910385 -373.07749667 831.00254088 -378.65234375 828.8046875 C-381.05936416 827.83787808 -381.05936416 827.83787808 -384 828 C-384 827.34 -384 826.68 -384 826 C-385.155 825.67 -386.31 825.34 -387.5 825 C-402.11181393 820.09871438 -422.46913484 810.77128473 -430.6484375 797.28125 C-432.69517407 794.85768246 -432.69517407 794.85768246 -434.93652344 794.6940918 C-437.35807732 794.73309002 -439.71696685 794.92950476 -442.125 795.1875 C-443.85536671 795.32421434 -445.58583522 795.45964671 -447.31640625 795.59375 C-448.1377002 795.6659375 -448.95899414 795.738125 -449.80517578 795.8125 C-472.41025781 797.74361268 -497.87520028 792.89060281 -516 779 C-516.83917969 778.3709375 -517.67835938 777.741875 -518.54296875 777.09375 C-525.55875531 771.1152737 -529.75734669 763.12319102 -532.9921875 754.62890625 C-533.88255081 752.06726598 -533.88255081 752.06726598 -535.1171875 750.17578125 C-536.50822548 746.74742657 -536.29355893 743.2675688 -536.25 739.625 C-536.23876099 738.36913086 -536.23876099 738.36913086 -536.22729492 737.08789062 C-535.93992611 719.71090756 -533.4730265 702.9470162 -530.12109375 685.9140625 C-529.21510791 681.28346822 -528.50782215 676.69022258 -528 672 C-527.34 672 -526.68 672 -526 672 C-525.93683594 671.44957031 -525.87367188 670.89914062 -525.80859375 670.33203125 C-523.45122855 654.32676226 -516.80790384 639.02134877 -510.46484375 624.2590332 C-508.02451409 618.57025677 -505.8702467 612.90220712 -504 607 C-503.34 607 -502.68 607 -502 607 C-501.77828125 606.21625 -501.5565625 605.4325 -501.328125 604.625 C-499.56911635 599.82394108 -497.20715031 595.47648255 -494.75 591 C-494.22277344 590.03811768 -493.69554687 589.07623535 -493.15234375 588.08520508 C-480.86095405 565.95458671 -466.56609283 545.17718373 -450.40869141 525.71289062 C-448.54344539 523.44485491 -446.74208397 521.12894319 -444.9375 518.8125 C-440.44745385 513.18346939 -435.52437067 507.96781632 -430.60400391 502.71728516 C-427.35544933 499.2393045 -424.14184446 495.72887243 -420.92089844 492.2253418 C-419.61859649 490.81258072 -418.30963708 489.40596406 -417 488 C-416.43410156 487.38382813 -415.86820312 486.76765625 -415.28515625 486.1328125 C-414 485 -414 485 -412 485 C-412 484.34 -412 483.68 -412 483 C-410.70703125 481.66015625 -410.70703125 481.66015625 -408.8125 480.0625 C-408.07515625 479.43730469 -407.3378125 478.81210937 -406.578125 478.16796875 C-405.72734375 477.45253906 -404.8765625 476.73710938 -404 476 C-403.06671875 475.19175781 -402.1334375 474.38351562 -401.171875 473.55078125 C-334.54314314 416 -334.54314314 416 -309 416 C-309 415.34 -309 414.68 -309 414 C-309.77923828 413.66548828 -309.77923828 413.66548828 -310.57421875 413.32421875 C-313.92066835 411.49741293 -316.83308238 409.17229372 -319.8125 406.8125 C-320.43979004 406.31782227 -321.06708008 405.82314453 -321.71337891 405.31347656 C-325.52166348 402.27517302 -329.08286917 399.14543662 -332.43359375 395.6015625 C-334.17798381 393.81802154 -336.03121735 392.23377033 -337.9375 390.625 C-342.35583414 386.81191711 -346.44772132 382.63874689 -350 378 C-350 377.34 -350 376.68 -350 376 C-350.66 376 -351.32 376 -352 376 C-353.22998047 374.66503906 -353.22998047 374.66503906 -354.6171875 372.765625 C-355.39606323 371.70021484 -355.39606323 371.70021484 -356.19067383 370.61328125 C-356.74650146 369.83339844 -357.3023291 369.05351562 -357.875 368.25 C-358.44565186 367.45464844 -359.01630371 366.65929687 -359.60424805 365.83984375 C-363.93273029 359.71363309 -367.9474276 353.42733774 -371.8125 347 C-372.33376465 346.13407227 -372.8550293 345.26814453 -373.39208984 344.37597656 C-377 338.26614159 -377 338.26614159 -377 336 C-378.32 335.67 -379.64 335.34 -381 335 C-381.08765625 334.03835938 -381.1753125 333.07671875 -381.265625 332.0859375 C-381.95586098 327.27600635 -383.85510302 323.06832596 -385.75 318.625 C-388.48954292 311.99786829 -390.98383063 305.38429647 -393 298.5 C-393.2072168 297.80084473 -393.41443359 297.10168945 -393.62792969 296.38134766 C-394.56300945 293.08082617 -395 290.46665152 -395 287 C-395.66 286.67 -396.32 286.34 -397 286 C-397.34375 283.78515625 -397.34375 283.78515625 -397.5 281.0625 C-397.59786386 277.05293771 -397.59786386 277.05293771 -400 274 C-400.24050903 271.97518921 -400.24050903 271.97518921 -400.22705078 269.45849609 C-400.22682419 268.04725967 -400.22682419 268.04725967 -400.22659302 266.60751343 C-400.21627045 265.58976837 -400.20594788 264.57202332 -400.1953125 263.5234375 C-400.1924826 262.48305328 -400.18965271 261.44266907 -400.18673706 260.37075806 C-400.17551704 257.03872306 -400.15040915 253.70695414 -400.125 250.375 C-400.11497256 248.11979554 -400.1058463 245.86458688 -400.09765625 243.609375 C-400.07557178 238.07282546 -400.04207639 232.53643173 -400 227 C-399.34 227 -398.68 227 -398 227 C-398.03222656 225.69546875 -398.06445312 224.3909375 -398.09765625 223.046875 C-398.09114951 218.28393828 -397.4545718 213.89291533 -396.4375 209.25 C-396.25968994 208.43563477 -396.08187988 207.62126953 -395.89868164 206.78222656 C-387.40353363 169.6314335 -367.95406793 138.4099054 -342 111 C-342.6290625 110.22398437 -343.258125 109.44796875 -343.90625 108.6484375 C-352.39387553 98.00641468 -359.4673585 86.94188428 -364 74 C-365.03898438 73.97421875 -366.07796875 73.9484375 -367.1484375 73.921875 C-380.05187241 73.45860326 -390.55062546 71.00118007 -399.6875 61.1875 C-407.60493985 51.36987459 -409.88651089 40.15286675 -408.5625 27.75 C-408.2840625 25.89375 -408.2840625 25.89375 -408 24 C-407.34 24 -406.68 24 -406 24 C-405.938125 23.34 -405.87625 22.68 -405.8125 22 C-403.58134794 13.76190009 -398.1327054 8.39534888 -391 4 C-382.13005393 -0.63314594 -372.77934124 -1.41975733 -363.015625 0.625 C-353.94259648 3.4955627 -345.61544992 9.37435316 -340.9609375 17.80859375 C-336.39208304 28.22781062 -335.56493074 37.91682655 -339.24609375 48.67578125 C-339.49488281 49.44277344 -339.74367188 50.20976562 -340 51 C-340.29390625 51.804375 -340.5878125 52.60875 -340.890625 53.4375 C-341.02805422 56.65727022 -339.90817854 57.83172609 -337.78466797 60.14916992 C-337.29885254 60.65681885 -336.81303711 61.16446777 -336.3125 61.6875 C-331.47265457 67.04119183 -327.33790691 72.65730375 -323.375 78.6875 C-322.59443237 79.87315552 -322.59443237 79.87315552 -321.7980957 81.08276367 C-318.20307891 86.59384217 -318.20307891 86.59384217 -317 89 C-313.52562548 87.75361658 -310.51361399 86.15689731 -307.39868164 84.18334961 C-258.50778681 53.28753431 -203.09394991 47.53969577 -147 56 C-144.22799375 56.6360605 -141.55879078 57.44759075 -138.8671875 58.36328125 C-135.65083714 59.44875025 -132.42871735 60.50940363 -129.1953125 61.54296875 C-120.07738843 64.48547404 -111.09420734 67.61964065 -102.25 71.3125 C-101.43418457 71.64983154 -100.61836914 71.98716309 -99.77783203 72.3347168 C-94.12580671 74.74838658 -94.12580671 74.74838658 -93 77 C-91.34813838 77.70254923 -89.67812891 78.36273586 -88 79 C-83.0054466 81.5445323 -78.05583837 84.16049345 -73.5 87.4375 C-72.2625 88.2109375 -72.2625 88.2109375 -71 89 C-67.2038649 87.73462163 -66.84505245 86.44944589 -65 83 C-64.72542969 82.39027344 -64.45085937 81.78054687 -64.16796875 81.15234375 C-62.69359105 78.43534673 -60.85862736 76.2456766 -58.875 73.875 C-58.07707031 72.91207031 -57.27914063 71.94914062 -56.45703125 70.95703125 C-55.64621094 69.98121094 -54.83539062 69.00539063 -54 68 C-52.51499641 66.19227916 -51.03541575 64.38008342 -49.5625 62.5625 C-48.92441406 61.78003906 -48.28632812 60.99757812 -47.62890625 60.19140625 C-45.44903012 57.28653338 -45.44903012 57.28653338 -44 54 C-44.65472977 51.80891019 -44.65472977 51.80891019 -45.875 49.5 C-48.16497372 43.78670964 -48.42554396 38.57366645 -48.4375 32.5 C-48.45176025 31.17258789 -48.45176025 31.17258789 -48.46630859 29.81835938 C-48.38401809 23.43654672 -48.38401809 23.43654672 -46.55786133 21.3605957 C-46.04376709 20.91159912 -45.52967285 20.46260254 -45 20 C-44.05804277 18.57894384 -43.14297383 17.13983666 -42.25 15.6875 C-38.04841376 9.29152094 -33.10945639 4.97605151 -26 2 C-25.34 2 -24.68 2 -24 2 C-24 1.34 -24 0.68 -24 0 C-15.88611956 -1.21521251 -8.14648632 -0.76299944 0 0 Z M-380 332 C-379 334 -379 334 -379 334 Z " fill="#3D9AA0" transform="translate(704,88)"/>
<path d="M0 0 C0 0.66 0 1.32 0 2 C1.2375 2.309375 1.2375 2.309375 2.5 2.625 C11.00408909 5.96589214 16.73694261 11.98139205 21 20 C25.397818 31.96144115 24.92640936 42.27252994 20 54 C14.35722715 63.58557109 5.69486439 70.0448401 -5 73 C-7.9599673 73.38327782 -10.86553386 73.6178175 -13.84765625 73.7265625 C-14.55792969 73.81679687 -15.26820313 73.90703125 -16 74 C-16.33 74.66 -16.66 75.32 -17 76 C-17 75.01 -17 74.02 -17 73 C-18.32 73 -19.64 73 -21 73 C-21.350625 74.216875 -21.70125 75.43375 -22.0625 76.6875 C-25.22908866 86.17232924 -30.56626126 96.29146473 -37 104 C-37.66 104 -38.32 104 -39 104 C-40.20628008 106.33214148 -41.1654738 108.49642139 -42 111 C-40.63294076 113.00240596 -40.63294076 113.00240596 -38.6875 114.9375 C-36.24455329 117.50928366 -34.43529614 119.74326206 -33 123 C-32.34 123 -31.68 123 -31 123 C-29.44538441 124.9292573 -27.99209783 126.85647254 -26.5625 128.875 C-24.2588171 132.11443664 -22.3684913 134.75433913 -19 137 C-19 137.66 -19 138.32 -19 139 C-17.43547963 141.45391938 -15.83935965 143.85606709 -14.1875 146.25 C-11.10483007 150.72668758 -8.40758511 155.11252992 -6 160 C-5.34 160.66 -4.68 161.32 -4 162 C-3.37481933 163.21652969 -2.80273849 164.46085316 -2.265625 165.71875 C-1.77993042 166.85497803 -1.77993042 166.85497803 -1.28442383 168.01416016 C6.07883097 185.70891123 11.10125623 202.75332344 14.52270508 221.65014648 C14.97853266 224.13736818 14.97853266 224.13736818 16 227 C16.2706387 231.76529143 16.24589977 236.54024891 16.25 241.3125 C16.25067474 242.0105072 16.25134949 242.7085144 16.25204468 243.42767334 C16.16959355 297.22125381 -4.78281166 343.88260713 -41 383 C-41.7425 383.80630859 -41.7425 383.80630859 -42.5 384.62890625 C-44.34354805 386.55887062 -46.05851802 388.03387885 -48.375 389.375 C-50.71389172 390.82288535 -52.07932653 392.03471378 -53.9375 394 C-58.88271561 399.09539569 -64.55578084 403.27665771 -70.17578125 407.59033203 C-71.92162782 408.93943777 -73.65040806 410.30747083 -75.375 411.68359375 C-83.94111657 418.47793931 -92.54936638 424.53881454 -103 428 C-105.09977978 429.00810323 -107.18354639 430.05023644 -109.25 431.125 C-114.77990431 434 -114.77990431 434 -117 434 C-117 434.66 -117 435.32 -117 436 C-165.22413373 456.32766175 -214.18844593 458.73104601 -263.36572266 439.21264648 C-273.10228643 435.17570948 -282.47655272 430.35737815 -291.78125 425.41796875 C-292.8959668 424.82665161 -292.8959668 424.82665161 -294.03320312 424.22338867 C-296.00355686 422.99778756 -297.39930541 421.66553787 -299 420 C-300.6621679 418.99254 -302.32950606 417.99359336 -304 417 C-306.08650776 415.46041433 -308.14424427 413.90696048 -310.1875 412.3125 C-310.75339844 411.87333252 -311.31929688 411.43416504 -311.90234375 410.98168945 C-313.60434969 409.65798692 -315.30256913 408.32956192 -317 407 C-317.95519531 406.25492187 -318.91039062 405.50984375 -319.89453125 404.7421875 C-326.90061801 399.21714757 -326.90061801 399.21714757 -329.875 396.0625 C-331.76773487 393.88040159 -331.76773487 393.88040159 -334 393.5 C-337.17889884 392.70527529 -338.87087319 390.35157289 -341 388 C-341.76570313 387.18015625 -342.53140625 386.3603125 -343.3203125 385.515625 C-350 378.2705721 -350 378.2705721 -350 376 C-350.66 376 -351.32 376 -352 376 C-353.22998047 374.66503906 -353.22998047 374.66503906 -354.6171875 372.765625 C-355.39606323 371.70021484 -355.39606323 371.70021484 -356.19067383 370.61328125 C-356.74650146 369.83339844 -357.3023291 369.05351562 -357.875 368.25 C-358.44565186 367.45464844 -359.01630371 366.65929687 -359.60424805 365.83984375 C-363.93273029 359.71363309 -367.9474276 353.42733774 -371.8125 347 C-372.33376465 346.13407227 -372.8550293 345.26814453 -373.39208984 344.37597656 C-377 338.26614159 -377 338.26614159 -377 336 C-378.32 335.67 -379.64 335.34 -381 335 C-381.08765625 334.03835938 -381.1753125 333.07671875 -381.265625 332.0859375 C-381.95586098 327.27600635 -383.85510302 323.06832596 -385.75 318.625 C-388.48954292 311.99786829 -390.98383063 305.38429647 -393 298.5 C-393.2072168 297.80084473 -393.41443359 297.10168945 -393.62792969 296.38134766 C-394.56300945 293.08082617 -395 290.46665152 -395 287 C-395.66 286.67 -396.32 286.34 -397 286 C-397.34375 283.78515625 -397.34375 283.78515625 -397.5 281.0625 C-397.59786386 277.05293771 -397.59786386 277.05293771 -400 274 C-400.24050903 271.97518921 -400.24050903 271.97518921 -400.22705078 269.45849609 C-400.22689972 268.51767181 -400.22674866 267.57684753 -400.22659302 266.60751343 C-400.21627045 265.58976837 -400.20594788 264.57202332 -400.1953125 263.5234375 C-400.1924826 262.48305328 -400.18965271 261.44266907 -400.18673706 260.37075806 C-400.17551704 257.03872306 -400.15040915 253.70695414 -400.125 250.375 C-400.11497256 248.11979554 -400.1058463 245.86458688 -400.09765625 243.609375 C-400.07557178 238.07282546 -400.04207639 232.53643173 -400 227 C-399.34 227 -398.68 227 -398 227 C-398.03222656 225.69546875 -398.06445312 224.3909375 -398.09765625 223.046875 C-398.09114951 218.28393828 -397.4545718 213.89291533 -396.4375 209.25 C-396.25968994 208.43563477 -396.08187988 207.62126953 -395.89868164 206.78222656 C-387.40353363 169.6314335 -367.95406793 138.4099054 -342 111 C-342.6290625 110.22398437 -343.258125 109.44796875 -343.90625 108.6484375 C-352.39387553 98.00641468 -359.4673585 86.94188428 -364 74 C-365.03898437 73.97421875 -366.07796875 73.9484375 -367.1484375 73.921875 C-380.05187241 73.45860326 -390.55062546 71.00118007 -399.6875 61.1875 C-407.60493985 51.36987459 -409.88651089 40.15286675 -408.5625 27.75 C-408.376875 26.5125 -408.19125 25.275 -408 24 C-407.34 24 -406.68 24 -406 24 C-405.938125 23.34 -405.87625 22.68 -405.8125 22 C-403.58134794 13.76190009 -398.1327054 8.39534888 -391 4 C-382.13005393 -0.63314594 -372.77934124 -1.41975733 -363.015625 0.625 C-353.94259648 3.4955627 -345.61544992 9.37435316 -340.9609375 17.80859375 C-336.39208304 28.22781062 -335.56493074 37.91682655 -339.24609375 48.67578125 C-339.49488281 49.44277344 -339.74367188 50.20976562 -340 51 C-340.29390625 51.804375 -340.5878125 52.60875 -340.890625 53.4375 C-341.02805422 56.65727022 -339.90817854 57.83172609 -337.78466797 60.14916992 C-337.29885254 60.65681885 -336.81303711 61.16446777 -336.3125 61.6875 C-331.47265457 67.04119183 -327.33790691 72.65730375 -323.375 78.6875 C-322.85462158 79.47793701 -322.33424316 80.26837402 -321.7980957 81.08276367 C-318.20307891 86.59384217 -318.20307891 86.59384217 -317 89 C-313.52562548 87.75361658 -310.51361399 86.15689731 -307.39868164 84.18334961 C-258.50778681 53.28753431 -203.09394991 47.53969577 -147 56 C-144.22799375 56.6360605 -141.55879078 57.44759075 -138.8671875 58.36328125 C-135.65083714 59.44875025 -132.42871735 60.50940363 -129.1953125 61.54296875 C-120.07738843 64.48547404 -111.09420734 67.61964065 -102.25 71.3125 C-101.43418457 71.64983154 -100.61836914 71.98716309 -99.77783203 72.3347168 C-94.12580671 74.74838658 -94.12580671 74.74838658 -93 77 C-91.34813838 77.70254923 -89.67812891 78.36273586 -88 79 C-83.0054466 81.5445323 -78.05583837 84.16049345 -73.5 87.4375 C-72.2625 88.2109375 -72.2625 88.2109375 -71 89 C-67.2038649 87.73462163 -66.84505245 86.44944589 -65 83 C-64.72542969 82.39027344 -64.45085937 81.78054687 -64.16796875 81.15234375 C-62.69359105 78.43534673 -60.85862736 76.2456766 -58.875 73.875 C-58.07707031 72.91207031 -57.27914063 71.94914062 -56.45703125 70.95703125 C-55.64621094 69.98121094 -54.83539062 69.00539063 -54 68 C-52.51499641 66.19227916 -51.03541575 64.38008342 -49.5625 62.5625 C-48.92441406 61.78003906 -48.28632812 60.99757812 -47.62890625 60.19140625 C-45.44903012 57.28653338 -45.44903012 57.28653338 -44 54 C-44.65472977 51.80891019 -44.65472977 51.80891019 -45.875 49.5 C-48.16497372 43.78670964 -48.42554396 38.57366645 -48.4375 32.5 C-48.45176025 31.17258789 -48.45176025 31.17258789 -48.46630859 29.81835938 C-48.38401809 23.43654672 -48.38401809 23.43654672 -46.55786133 21.3605957 C-46.04376709 20.91159912 -45.52967285 20.46260254 -45 20 C-44.05804277 18.57894384 -43.14297383 17.13983666 -42.25 15.6875 C-38.04841376 9.29152094 -33.10945639 4.97605151 -26 2 C-25.34 2 -24.68 2 -24 2 C-24 1.34 -24 0.68 -24 0 C-15.88611956 -1.21521251 -8.14648632 -0.76299944 0 0 Z M-380 332 C-379 334 -379 334 -379 334 Z " fill="#3F9FA3" transform="translate(704,88)"/>
<path d="M0 0 C5.4522935 4.83953574 7.6728105 9.79580176 8.23510742 17.02099609 C9.58145571 51.19455468 1.38991902 82.56561118 -21 109 C-21.43183594 109.51159668 -21.86367188 110.02319336 -22.30859375 110.55029297 C-44.54535236 136.55641311 -74.95190855 153.69352203 -109 158 C-117.22766352 158.6421591 -125.07835772 158.29379077 -132.3125 154.0625 C-137.91457112 148.63208009 -139.17063395 141.10106297 -139.47290039 133.61157227 C-139.87039646 99.88886482 -118.37679319 71.23309884 -96 48 C-95.36787598 47.34064453 -94.73575195 46.68128906 -94.08447266 46.00195312 C-84.9521871 36.52631609 -75.6994496 27.68049266 -65 20 C-64.4210498 19.5767041 -63.84209961 19.1534082 -63.24560547 18.71728516 C-55.91696336 13.40216084 -48.35758887 8.96787162 -40.1875 5.0625 C-39.04148315 4.51408447 -39.04148315 4.51408447 -37.87231445 3.95458984 C-26.36968609 -1.3451672 -11.83108045 -6.66842716 0 0 Z " fill="#1B1D1B" transform="translate(674,287)"/>
<path d="M0 0 C7.41284773 5.50001285 14.4483429 11.36851631 21.1796875 17.68359375 C23.28702814 19.65418517 25.44548069 21.52185906 27.65234375 23.37890625 C32.37407248 27.49602337 36.43920952 32.1434841 40.52734375 36.87890625 C41.32140625 37.78511719 42.11546875 38.69132812 42.93359375 39.625 C62.36748912 62.28762799 80.64101217 90.73756341 79.80859375 121.67578125 C79.26240172 127.89630157 78.1434941 132.15000123 73.83984375 136.75390625 C62.23364929 144.19938949 49.63708965 142.49890506 36.52734375 139.87890625 C11.40803254 133.80946862 -11.41645164 120.22953816 -29.47265625 101.87890625 C-29.95814941 101.39454102 -30.44364258 100.91017578 -30.94384766 100.41113281 C-46.39038944 84.88681388 -57.16017793 65.0927853 -62.47265625 43.87890625 C-62.71822266 42.9041333 -62.71822266 42.9041333 -62.96875 41.90966797 C-65.14769549 32.8179729 -65.76347233 23.84040672 -65.84765625 14.50390625 C-65.86159424 13.51777344 -65.87553223 12.53164063 -65.88989258 11.515625 C-65.83120036 2.42976411 -64.53270598 -6.99162348 -58.47265625 -14.12109375 C-41.83410956 -26.49334642 -14.28555151 -10.22712078 0 0 Z " fill="#1E211C" transform="translate(405.47265625,302.12109375)"/>
<path d="M0 0 C11.57027368 11.38726408 20.22482619 24.41762548 29 38 C29.46438477 38.7120459 29.92876953 39.4240918 30.40722656 40.15771484 C37.94291364 51.7354782 44.5517131 63.78967724 51 76 C51.49258301 76.92248535 51.98516602 77.8449707 52.49267578 78.79541016 C71.155767 113.9357142 84.03439593 151.85242101 91 191 C91.21825439 192.19471924 91.21825439 192.19471924 91.44091797 193.41357422 C94.94613514 213.26716152 95.97980992 235.32180333 84.60546875 252.734375 C84.07566406 253.48203125 83.54585937 254.2296875 83 255 C82.52175781 255.68578125 82.04351563 256.3715625 81.55078125 257.078125 C76.35701617 263.72405109 69.20753088 267.85546095 62 272 C61.14921875 272.49628906 60.2984375 272.99257813 59.421875 273.50390625 C43.24703142 281.82612416 20.64119064 284.90726093 2.6015625 283.796875 C-4.27725025 283.15961157 -4.27725025 283.15961157 -10.421875 285.6796875 C-11.88185251 287.21959078 -13.29369925 288.80622462 -14.66015625 290.4296875 C-39.52758556 317.74649633 -91.56616918 324.90846634 -125.70840454 331.87121582 C-128.54237308 332.45406806 -131.25149026 333.08383009 -134 334 C-135.73108511 334.18179611 -137.46653345 334.32327382 -139.203125 334.44140625 C-146.04295703 334.96825818 -152.83219262 335.8085021 -159.63577271 336.67098999 C-189.78170962 340.47105158 -219.86261793 342.22629089 -250.25 342.25 C-251.28794708 342.25133942 -252.32589417 342.25267883 -253.39529419 342.25405884 C-280.87827151 342.24649187 -308.24854126 340.43905533 -335.5625 337.4375 C-336.60913818 337.32301514 -337.65577637 337.20853027 -338.73413086 337.09057617 C-339.66878174 336.97689697 -340.60343262 336.86321777 -341.56640625 336.74609375 C-342.35990479 336.64997803 -343.15340332 336.5538623 -343.97094727 336.45483398 C-346 336 -346 336 -349 334 C-337.52131912 334.53175998 -326.12568112 335.64297154 -314.70458984 336.89575195 C-294.63560497 339.01314652 -274.55096109 339.16334194 -254.39038086 339.13037109 C-250.89821758 339.12469097 -247.40613067 339.12807365 -243.91396999 339.13378239 C-218.77502053 339.16927162 -194.03341829 338.35522764 -169.0625 335.3125 C-167.40297806 335.11317368 -167.40297806 335.11317368 -165.70993042 334.90982056 C-117.78409458 329.12210011 -61.38559552 321.61527361 -21 293 C-20.06220703 292.33871094 -20.06220703 292.33871094 -19.10546875 291.6640625 C-15.53710809 288.93786968 -13.72326497 286.11668855 -12 282 C-11.34 282 -10.68 282 -10 282 C-10.0721875 281.09121094 -10.144375 280.18242188 -10.21875 279.24609375 C-10.89132631 270.13828949 -11.11659121 261.13297847 -11 252 C-10.67 252 -10.34 252 -10 252 C-9.25015295 256.00091404 -8.8804704 259.76749517 -8.90234375 263.8359375 C-8.90556641 264.89941406 -8.90878906 265.96289062 -8.91210938 267.05859375 C-8.92048828 268.15300781 -8.92886719 269.24742187 -8.9375 270.375 C-8.94201172 271.49261719 -8.94652344 272.61023438 -8.95117188 273.76171875 C-8.96290756 276.50786804 -8.97932637 279.25390586 -9 282 C18.3063508 281.22789542 18.3063508 281.22789542 45 276 C45.64646484 275.81034668 46.29292969 275.62069336 46.95898438 275.42529297 C56.42126172 272.55742883 64.94394581 268.5549115 72.5 262.125 C75 260 75 260 77 260 C77.27070312 259.41476562 77.54140625 258.82953125 77.8203125 258.2265625 C78.98882637 256.0210893 80.29449135 254.29945354 81.875 252.375 C94.19893833 236.0833547 91.66812509 214.60796202 89.046875 195.609375 C87.34398643 184.27261486 84.73108005 173.12675633 82 162 C81.79648926 161.16275391 81.59297852 160.32550781 81.38330078 159.46289062 C76.14491048 138.29275513 68.00467966 117.82346214 59 98 C58.58524414 97.08541016 58.17048828 96.17082031 57.74316406 95.22851562 C43.85827519 64.86772778 26.68030769 36.21518322 6 10 C4.84774562 8.52582976 3.70163689 7.04682988 2.5625 5.5625 C1.82193359 4.60537109 1.82193359 4.60537109 1.06640625 3.62890625 C0 2 0 2 0 0 Z " fill="#2A6C7F" transform="translate(762,602)"/>
<path d="M0 0 C3 0 3 0 4.75390625 1.609375 C5.64916016 2.66898438 5.64916016 2.66898438 6.5625 3.75 C7.16191406 4.44609375 7.76132812 5.1421875 8.37890625 5.859375 C9.88245173 7.84477963 10.97578001 9.7375439 12 12 C12.66 12 13.32 12 14 12 C15.55461559 13.9292573 17.00790217 15.85647254 18.4375 17.875 C20.7411829 21.11443664 22.6315087 23.75433913 26 26 C26 26.66 26 27.32 26 28 C27.56452037 30.45391938 29.16064035 32.85606709 30.8125 35.25 C33.89516993 39.72668758 36.59241489 44.11252992 39 49 C39.66 49.66 40.32 50.32 41 51 C41.62518067 52.21652969 42.19726151 53.46085316 42.734375 54.71875 C43.05817139 55.47623535 43.38196777 56.2337207 43.71557617 57.01416016 C51.07883097 74.70891123 56.10125623 91.75332344 59.52270508 110.65014648 C59.97853266 113.13736818 59.97853266 113.13736818 61 116 C61.2706387 120.76529143 61.24589977 125.54024891 61.25 130.3125 C61.25067474 131.0105072 61.25134949 131.7085144 61.25204468 132.42767334 C61.16827853 187.07921392 39.40454426 236.54959787 0.9375 275.125 C0.298125 275.74375 -0.34125 276.3625 -1 277 C-1 274 -1 274 1.046875 271.6953125 C2.38492188 270.42300781 2.38492188 270.42300781 3.75 269.125 C10.0249697 263.35286713 10.0249697 263.35286713 14 256 C15.1396789 254.89485683 16.27981313 253.79018042 17.421875 252.6875 C33.26096681 235.75064935 44.17794997 212.45562513 49 190 C49.68917888 187.55701518 50.39706686 185.11921867 51.125 182.6875 C52.82971984 176.84178746 54.06710364 171.01472651 55 165 C55.66 165 56.32 165 57 165 C56.814375 164.071875 56.62875 163.14375 56.4375 162.1875 C55.69891963 157.12146284 56.21539403 152.03891392 57 147 C57.33 146.67 57.66 146.34 58 146 C61.70811147 96.13151911 42.59030279 50.63147624 11 13 C10.51789062 12.39414063 10.03578125 11.78828125 9.5390625 11.1640625 C7.44886957 8.54133634 5.29011273 6.34419536 2.6875 4.25 C1.800625 3.5075 0.91375 2.765 0 2 C0 1.34 0 0.68 0 0 Z " fill="#286482" transform="translate(659,199)"/>
<path d="M0 0 C0.66 0 1.32 0 2 0 C2 2 2 2 0.70703125 3.33984375 C0.08183594 3.86707031 -0.54335938 4.39429688 -1.1875 4.9375 C-1.909375 5.55238281 -2.63125 6.16726563 -3.375 6.80078125 C-4.24125 7.52652344 -5.1075 8.25226563 -6 9 C-7.65709998 10.39136775 -9.31328816 11.78379197 -10.96801758 13.17797852 C-12.09053959 14.12263107 -13.21528377 15.06465112 -14.3425293 16.00366211 C-17.73162111 18.84687377 -20.9997951 21.73818168 -24 25 C-24 25.66 -24 26.32 -24 27 C-22.81148437 27.51046875 -21.62296875 28.0209375 -20.3984375 28.546875 C-8.03987346 33.93759415 3.80071696 40.01872284 15.54833984 46.63085938 C17.14450238 47.52224351 18.74873924 48.39936887 20.36181641 49.25976562 C24.87039247 51.67848408 28.94998678 54.32284359 32.99462891 57.45556641 C35.04948462 59.03811051 37.14387224 60.54596121 39.26171875 62.04296875 C47.49057381 67.88191011 55.45990419 73.84570986 63.0703125 80.47265625 C65.76208287 82.79475682 68.51665711 84.99313666 71.3125 87.1875 C76.24481348 91.19998409 80.75277973 95.57044836 85.25 100.0625 C85.91169189 100.72338623 86.57338379 101.38427246 87.25512695 102.06518555 C91.69380756 106.55393274 95.88692412 111.21274586 100 116 C100.73089844 116.8353125 101.46179688 117.670625 102.21484375 118.53125 C103.80989583 120.35416667 105.40494792 122.17708333 107 124 C106.67 124.66 106.34 125.32 106 126 C102.626807 122.73561968 99.4220856 119.33545702 96.25 115.875 C95.47140625 115.02679687 94.6928125 114.17859375 93.890625 113.3046875 C92 111 92 111 91 108 C90.01 107.67 89.02 107.34 88 107 C86.81837709 105.58205251 85.64089994 104.16037337 84.48828125 102.71875 C82.35227501 100.25197113 79.91530104 98.22828066 77.43359375 96.1171875 C74.98910248 93.99051933 72.62164782 91.79912 70.25708008 89.5847168 C64.71450964 84.40148316 59.13172618 79.48466397 53 75 C52.38560059 74.54544434 51.77120117 74.09088867 51.13818359 73.62255859 C36.99435916 63.17043385 22.625933 53.12548516 7 45 C5.66843125 44.28541646 4.33777449 43.56913207 3.0078125 42.8515625 C-1.30815316 40.52866619 -5.64782592 38.25420825 -10 36 C-10.62293945 35.67370605 -11.24587891 35.34741211 -11.88769531 35.01123047 C-18.78152953 31.43545665 -24.17321079 28.88188726 -32 30 C-34.15604365 31.1371581 -34.15604365 31.1371581 -36 33 C-42.97228693 37.69288544 -50.41414121 41.34214138 -57.96044922 45.00683594 C-59.90743898 45.95492719 -61.84629509 46.91824058 -63.78515625 47.8828125 C-65.50025391 48.71425781 -65.50025391 48.71425781 -67.25 49.5625 C-68.26578125 50.05878906 -69.2815625 50.55507813 -70.328125 51.06640625 C-73 52 -73 52 -77 51 C-74.03 50.01 -71.06 49.02 -68 48 C-68 47.34 -68 46.68 -68 46 C-53.40739142 37.90581263 -53.40739142 37.90581263 -48.3125 36.5 C-38.34573222 33.55867943 -29.89306581 25.48449619 -22 19 C-20.33406338 17.68657348 -18.66739229 16.37407805 -17 15.0625 C-11.08644724 10.33727192 -5.35448787 5.35448787 0 0 Z " fill="#266382" transform="translate(655,476)"/>
<path d="M0 0 C11.57027368 11.38726408 20.22482619 24.41762548 29 38 C29.46438477 38.7120459 29.92876953 39.4240918 30.40722656 40.15771484 C37.94291364 51.7354782 44.5517131 63.78967724 51 76 C51.73887451 77.38372803 51.73887451 77.38372803 52.49267578 78.79541016 C71.155767 113.9357142 84.03439593 151.85242101 91 191 C91.14550293 191.79647949 91.29100586 192.59295898 91.44091797 193.41357422 C95.04103375 213.80466828 95.57890083 235.06178141 84.46484375 253.07421875 C83 255 83 255 80 257 C81.12571279 254.73233817 82.27113998 252.47761347 83.4375 250.23046875 C97.63344066 222.58387432 89.04734291 190.71174252 82 162 C81.79648926 161.16275391 81.59297852 160.32550781 81.38330078 159.46289062 C76.14491048 138.29275513 68.00467966 117.82346214 59 98 C58.58524414 97.08541016 58.17048828 96.17082031 57.74316406 95.22851562 C43.85827519 64.86772778 26.68030769 36.21518322 6 10 C4.84774562 8.52582976 3.70163689 7.04682988 2.5625 5.5625 C2.06878906 4.92441406 1.57507813 4.28632812 1.06640625 3.62890625 C0 2 0 2 0 0 Z " fill="#27607F" transform="translate(762,602)"/>
<path d="M0 0 C1 2 1 2 0.3125 4.125 C-0.64369051 6.21951255 -1.68470682 8.27590742 -2.7734375 10.3046875 C-5.77588007 16.29865218 -7.79665994 22.66108981 -9.9375 29 C-10.38270061 30.30662511 -10.82809565 31.61318399 -11.27368164 32.91967773 C-15.26633196 44.66051781 -19.23698038 56.37514136 -22.109375 68.44921875 C-22.86658406 71.46809169 -23.67640678 74.46033132 -24.515625 77.45703125 C-24.78963135 78.43913574 -25.0636377 79.42124023 -25.34594727 80.43310547 C-25.89863092 82.40621977 -26.45625842 84.37795724 -27.01928711 86.34814453 C-27.27460205 87.26321777 -27.52991699 88.17829102 -27.79296875 89.12109375 C-28.14137817 90.34977173 -28.14137817 90.34977173 -28.49682617 91.60327148 C-29.02793297 94.13305094 -29.08858126 96.42254337 -29 99 C-29.66 99 -30.32 99 -31 99 C-30.95359375 99.53625 -30.9071875 100.0725 -30.859375 100.625 C-30.55462719 107.24238098 -31.78975058 112.97419495 -33.57714844 119.2890625 C-34.69631113 123.32682593 -35.09681726 126.82475572 -35 131 C-36 133.875 -36 133.875 -37 136 C-37.33 136 -37.66 136 -38 136 C-38.2091334 129.24130558 -37.48938196 123.20821281 -36.09375 116.60546875 C-35.89352737 115.62808243 -35.69330475 114.65069611 -35.48701477 113.64369202 C-34.83589514 110.48916712 -34.16951269 107.33816903 -33.5 104.1875 C-33.27379974 103.11197876 -33.04759949 102.03645752 -32.81454468 100.92834473 C-28.24849604 79.28000916 -22.92320202 58.05520619 -15.16918945 37.29589844 C-13.95295807 34.00683288 -13.01654188 31.12306587 -12.546875 27.62890625 C-11.78288882 22.55931227 -10.01192597 18.02463203 -8.1875 13.25 C-7.84396484 12.30511719 -7.50042969 11.36023438 -7.14648438 10.38671875 C-6.80294922 9.48050781 -6.45941406 8.57429687 -6.10546875 7.640625 C-5.79762451 6.82110352 -5.48978027 6.00158203 -5.17260742 5.15722656 C-3.81794831 2.66508251 -2.35991019 1.5282523 0 0 Z " fill="#59B99D" transform="translate(317,642)"/>
<path d="M0 0 C12.4708885 -0.3843767 25.24202428 0.31800389 37.1328125 4.36328125 C40.34916286 5.44875025 43.57128265 6.50940363 46.8046875 7.54296875 C55.92261157 10.48547404 64.90579266 13.61964065 73.75 17.3125 C74.56581543 17.64983154 75.38163086 17.98716309 76.22216797 18.3347168 C81.87419329 20.74838658 81.87419329 20.74838658 83 23 C84.65186162 23.70254923 86.32187109 24.36273586 88 25 C92.9945534 27.5445323 97.94416163 30.16049345 102.5 33.4375 C103.325 33.953125 104.15 34.46875 105 35 C108.7961351 33.73462163 109.15494755 32.44944589 111 29 C111.26425781 28.40316406 111.52851562 27.80632812 111.80078125 27.19140625 C113.41406624 24.24335127 115.47539649 21.82952422 117.625 19.25 C118.44226563 18.26515625 119.25953125 17.2803125 120.1015625 16.265625 C120.72804688 15.51796875 121.35453125 14.7703125 122 14 C122 17.35762885 121.60537275 17.84515966 119.625 20.375 C118.00694345 22.52787636 116.93758137 24.1578824 115.9375 26.6875 C115 29 115 29 113 30.9375 C110.57708823 33.43612777 109.90594378 35.67820615 109 39 C104.87556292 37.51825779 101.44438382 35.47050415 97.75 33.125 C79.31157606 21.85395834 59.78275755 13.78504294 39 8 C37.81784912 7.66814697 37.81784912 7.66814697 36.61181641 7.32958984 C24.60544307 4.03903365 12.33895062 2.49437828 0 1 C0 0.67 0 0.34 0 0 Z " fill="#307B8A" transform="translate(528,142)"/>
<path d="M0 0 C0.99 0 1.98 0 3 0 C1.48262477 3.75529177 -0.74480973 5.72313025 -3.8125 8.3125 C-7.39426323 11.44334025 -10.14619617 14.36513781 -12.734375 18.3203125 C-14.77470996 21.02816446 -17.35038338 23.0598387 -19.9375 25.23046875 C-23.13740504 27.97584182 -26.05671399 30.98512055 -29 34 C-29.66 34.66 -30.32 35.32 -31 36 C-31 36.66 -31 37.32 -31 38 C-32.6643772 39.33619014 -34.33150591 40.66895416 -36 42 C-37.54332088 43.79701746 -39.04287078 45.63241184 -40.5 47.5 C-43.3956404 51.21131375 -46.22231246 54.18003606 -50 57 C-49.55620163 52.18034969 -47.23178207 49.4241114 -44.125 45.9375 C-43.38624634 45.08768555 -43.38624634 45.08768555 -42.63256836 44.22070312 C-37.99983028 38.92109245 -33.24954837 33.72639766 -28.45751953 28.57080078 C-26.88229491 26.87314664 -25.31366234 25.1695688 -23.74609375 23.46484375 C-22.66411665 22.28901267 -21.58208661 21.1132303 -20.5 19.9375 C-19.9954126 19.38900391 -19.4908252 18.84050781 -18.97094727 18.27539062 C-17.6520888 16.84582588 -16.32638269 15.42258637 -15 14 C-14.4328125 13.38253906 -13.865625 12.76507812 -13.28125 12.12890625 C-12 11 -12 11 -10 11 C-10 10.34 -10 9.68 -10 9 C-8.3203125 7.34375 -8.3203125 7.34375 -6.125 5.5 C-4.00964496 3.71066742 -1.95980876 1.95980876 0 0 Z " fill="#5BB193" transform="translate(302,562)"/>
<path d="M0 0 C0 0.66 0 1.32 0 2 C0.825 2.20625 1.65 2.4125 2.5 2.625 C11.00408909 5.96589214 16.73694261 11.98139205 21 20 C25.39013704 31.94055003 24.949847 42.2964259 20 54 C17.0722214 58.80264379 14.2657525 62.74819795 9 65 C9.58007812 64.25556641 9.58007812 64.25556641 10.171875 63.49609375 C18.83332591 52.19761694 21.99556388 43.38750382 21 29 C19.71623112 20.59714916 15.68665343 13.64616301 8.94140625 8.3984375 C-0.07790797 2.56742528 -9.2137475 0.88749959 -19.8125 2.625 C-27.76902128 4.83776036 -34.96556112 9.45483995 -41 15 C-38.16019187 8.5547492 -32.37479369 4.66851829 -26 2 C-25.34 2 -24.68 2 -24 2 C-24 1.34 -24 0.68 -24 0 C-15.88611956 -1.21521251 -8.14648632 -0.76299944 0 0 Z " fill="#28647F" transform="translate(704,88)"/>
<path d="M0 0 C0.33 0 0.66 0 1 0 C0.55992101 7.20375457 -0.8090346 13.65461384 -3.0625 20.5 C-3.37340576 21.45414795 -3.68431152 22.4082959 -4.00463867 23.39135742 C-14.33617362 54.31902483 -32.58900087 81.34419439 -56 104 C-56 101 -56 101 -53.953125 98.6953125 C-52.61507812 97.42300781 -52.61507812 97.42300781 -51.25 96.125 C-44.9750303 90.35286713 -44.9750303 90.35286713 -41 83 C-39.8603211 81.89485683 -38.72018687 80.79018042 -37.578125 79.6875 C-17.37724416 58.08655811 -7.04754511 28.10726815 0 0 Z " fill="#26607C" transform="translate(714,372)"/>
<path d="M0 0 C0.66 0 1.32 0 2 0 C2 2 2 2 0.70703125 3.33984375 C0.08183594 3.86707031 -0.54335938 4.39429688 -1.1875 4.9375 C-1.909375 5.55238281 -2.63125 6.16726563 -3.375 6.80078125 C-4.24125 7.52652344 -5.1075 8.25226563 -6 9 C-7.65709998 10.39136775 -9.31328816 11.78379197 -10.96801758 13.17797852 C-12.09053959 14.12263107 -13.21528377 15.06465112 -14.3425293 16.00366211 C-20.58466614 20.84384022 -20.58466614 20.84384022 -24.875 27.1875 C-26.71994361 30.15990914 -29.73026688 30.16871192 -33 31 C-35.7090173 32.45361904 -38.15413976 34.10695412 -40.6796875 35.859375 C-44.21129019 38.13622003 -47.79478397 40.0292229 -51.5625 41.875 C-52.25633789 42.216521 -52.95017578 42.55804199 -53.66503906 42.90991211 C-55.08486951 43.60603154 -56.50592826 44.29965145 -57.92822266 44.99072266 C-59.88846895 45.94566706 -61.8407498 46.91550399 -63.79296875 47.88671875 C-64.93378906 48.43972656 -66.07460938 48.99273438 -67.25 49.5625 C-68.26578125 50.05878906 -69.2815625 50.55507813 -70.328125 51.06640625 C-73 52 -73 52 -77 51 C-74.03 50.01 -71.06 49.02 -68 48 C-68 47.34 -68 46.68 -68 46 C-53.40739142 37.90581263 -53.40739142 37.90581263 -48.3125 36.5 C-38.34573222 33.55867943 -29.89306581 25.48449619 -22 19 C-20.33406338 17.68657348 -18.66739229 16.37407805 -17 15.0625 C-11.08644724 10.33727192 -5.35448787 5.35448787 0 0 Z " fill="#2B6F8B" transform="translate(655,476)"/>
<path d="M0 0 C0.33 0.66 0.66 1.32 1 2 C1.66 2 2.32 2 3 2 C2.79503906 2.7528125 2.59007812 3.505625 2.37890625 4.28125 C0.11720215 13.1982078 -0.7515109 21.84551748 -1 31 C-1.03254883 31.94037109 -1.06509766 32.88074219 -1.09863281 33.84960938 C-1.64651046 51.25994349 -1.09330105 69.19790378 4.1953125 85.95703125 C4.97247443 88.89591058 5.11079555 90.22301114 4 93 C3.49242138 91.58603098 2.99425075 90.16868271 2.5 88.75 C2.2215625 87.96109375 1.943125 87.1721875 1.65625 86.359375 C1 84 1 84 1 80 C0.34 79.67 -0.32 79.34 -1 79 C-1.34375 76.78515625 -1.34375 76.78515625 -1.5 74.0625 C-1.59786386 70.05293771 -1.59786386 70.05293771 -4 67 C-4.24050903 64.97518921 -4.24050903 64.97518921 -4.22705078 62.45849609 C-4.22689972 61.51767181 -4.22674866 60.57684753 -4.22659302 59.60751343 C-4.21627045 58.58976837 -4.20594788 57.57202332 -4.1953125 56.5234375 C-4.1924826 55.48305328 -4.18965271 54.44266907 -4.18673706 53.37075806 C-4.17551704 50.03872306 -4.15040915 46.70695414 -4.125 43.375 C-4.11497256 41.11979554 -4.1058463 38.86458688 -4.09765625 36.609375 C-4.07557178 31.07282546 -4.04207639 25.53643173 -4 20 C-3.34 20 -2.68 20 -2 20 C-2.061875 18.1128125 -2.061875 18.1128125 -2.125 16.1875 C-2.14263332 10.65063837 -1.13105192 5.40279265 0 0 Z " fill="#4A9B86" transform="translate(308,295)"/>
<path d="M0 0 C8.20600182 3.47177 11.75035344 9.016906 15 17 C18.15132058 25.67021361 17.71389766 34.02459863 14.75390625 42.67578125 C14.50511719 43.44277344 14.25632812 44.20976562 14 45 C13.70609375 45.804375 13.4121875 46.60875 13.109375 47.4375 C12.97195661 50.65701653 14.09112476 51.83155055 16.21533203 54.14819336 C16.94405518 54.91015015 16.94405518 54.91015015 17.6875 55.6875 C22.45536243 60.98973231 26.64685653 66.51956564 30.625 72.4375 C31.14537842 73.19442139 31.66575684 73.95134277 32.2019043 74.73120117 C34.91078204 78.81147937 36.66600375 81.98210389 37 87 C34.11704297 85.55852148 33.76421064 83.60172764 32.4375 80.6875 C28.47340974 72.57695213 23.30480738 65.44448561 17.09375 58.89453125 C9.9980727 51.28936538 9.9980727 51.28936538 10.00390625 47.38671875 C10.79202019 45.06045008 11.78589721 43.12789747 13 41 C15.83931269 32.69770592 14.8844359 21.96083573 11.203125 14.14453125 C8.13964897 8.68398468 4.54707791 4.28724489 0 0 Z " fill="#409387" transform="translate(350,94)"/>
<path d="M0 0 C0.33 0 0.66 0 1 0 C1.0501123 0.59723877 1.10022461 1.19447754 1.15185547 1.80981445 C1.74766172 8.87504981 2.36887557 15.93783966 3 23 C3.08008301 23.9163623 3.16016602 24.83272461 3.24267578 25.77685547 C4.35863256 38.448601 4.35863256 38.448601 7.4140625 50.7734375 C8.06788798 53.25797432 8.09943428 55.44182722 8 58 C8.66 58.33 9.32 58.66 10 59 C10.6443525 61.82799151 11.02326331 64.66118149 11.4375 67.53125 C11.623125 68.3459375 11.80875 69.160625 12 70 C12.66 70.33 13.32 70.66 14 71 C14.71228144 72.98421259 15.36515933 74.98967123 16 77 C17.04279632 79.61902307 18.11445504 82.22459972 19.1953125 84.828125 C20 87 20 87 20 89 C20.66 89.33 21.32 89.66 22 90 C22.625 92.0625 22.625 92.0625 23 94 C22.34 94 21.68 94 21 94 C13.95655298 78.05331939 13.95655298 78.05331939 10.83984375 70.12109375 C9.35117144 66.36133067 7.80898138 62.61796276 6 59 C5.76410106 57.11280851 5.53075996 55.22525024 5.3125 53.3359375 C4.75697136 49.1833609 3.85707366 45.09904792 3 41 C0.87691732 30.84612629 -0.14691937 21.3770886 -0.0625 11 C-0.05573242 9.40865234 -0.05573242 9.40865234 -0.04882812 7.78515625 C-0.03713843 5.19004402 -0.02075276 2.59505291 0 0 Z " fill="#56B89F" transform="translate(306,329)"/>
<path d="M0 0 C0.99 0 1.98 0 3 0 C1.21777017 5.19817034 -1.59115324 8.62637441 -5.5 12.4375 C-9.12421538 16.15232076 -11.51542455 19.82894267 -13.5 24.625 C-15 28 -15 28 -17 29.9375 C-19.03205059 32.03305217 -19.52565949 33.12334325 -20.4375 35.8125 C-21.94039588 40.21383792 -24.06698478 43.39013511 -27 47 C-27.66 47 -28.32 47 -29 47 C-29.33 47.99 -29.66 48.98 -30 50 C-30.33 49.34 -30.66 48.68 -31 48 C-25.36726543 35.5231901 -16.60994653 24.11214326 -8.93701172 12.84960938 C-7.62744971 10.9230644 -6.33252767 8.98649905 -5.05126953 7.04101562 C-4.43751465 6.12513672 -3.82375977 5.20925781 -3.19140625 4.265625 C-2.64814697 3.44352539 -2.1048877 2.62142578 -1.54516602 1.77441406 C-1.03526123 1.18885742 -0.52535645 0.60330078 0 0 Z " fill="#54A78A" transform="translate(244,625)"/>
<path d="M0 0 C0.66 0.33 1.32 0.66 2 1 C-5.53234706 6.35955464 -13.64639911 9.32489656 -23 9 C-23.33 9.66 -23.66 10.32 -24 11 C-24 10.01 -24 9.02 -24 8 C-25.32 8 -26.64 8 -28 8 C-28.5259375 9.8253125 -28.5259375 9.8253125 -29.0625 11.6875 C-32.22908866 21.17232924 -37.56626126 31.29146473 -44 39 C-44.66 39 -45.32 39 -46 39 C-44.7058421 35.39529677 -43.15390129 32.70399639 -40.8125 29.6875 C-37.10522609 24.56091412 -34.69509315 19.17903052 -32.30981445 13.3581543 C-30.17647897 8.17647897 -30.17647897 8.17647897 -28 6 C-25.85415141 5.95912669 -23.70601891 6.01700233 -21.5625 6.125 C-13.40721963 6.2592433 -6.79847743 4.53231829 0 0 Z " fill="#2B6B84" transform="translate(711,153)"/>
<path d="M0 0 C3.38546064 1.47492981 5.6511499 3.39565785 8.3125 5.9375 C14.77122378 11.88301185 21.86184875 16.90811877 29 22 C27.68044588 24.63910824 26.68647939 24.64289384 23.9375 25.625 C18.19903602 27.80711547 12.80447437 30.5399185 7.35913086 33.35791016 C2.20299572 36 2.20299572 36 0 36 C0 35.34 0 34.68 0 34 C3.78864975 32.16038326 7.58139775 30.32937928 11.375 28.5 C12.45523437 27.97535156 13.53546875 27.45070313 14.6484375 26.91015625 C15.6796875 26.41386719 16.7109375 25.91757812 17.7734375 25.40625 C18.72653809 24.94541016 19.67963867 24.48457031 20.66162109 24.00976562 C23 23 23 23 25 23 C25 22.34 25 21.68 25 21 C24.22076172 20.66548828 24.22076172 20.66548828 23.42578125 20.32421875 C20.07935281 18.49742448 17.16684463 16.17236909 14.1875 13.8125 C13.56601074 13.32217285 12.94452148 12.8318457 12.30419922 12.32666016 C7.89525709 8.80759626 3.81015809 5.17303029 0 1 C0 0.67 0 0.34 0 0 Z " fill="#3B9186" transform="translate(370,481)"/>
<path d="M0 0 C0.33 0 0.66 0 1 0 C1.74984705 4.00091404 2.1195296 7.76749517 2.09765625 11.8359375 C2.09443359 12.89941406 2.09121094 13.96289062 2.08789062 15.05859375 C2.07951172 16.15300781 2.07113281 17.24742187 2.0625 18.375 C2.05798828 19.49261719 2.05347656 20.61023438 2.04882812 21.76171875 C2.03709244 24.50786804 2.02067363 27.25390586 2 30 C2.72590332 29.96447021 3.45180664 29.92894043 4.19970703 29.89233398 C7.50786091 29.7341363 10.81638508 29.58572888 14.125 29.4375 C15.26710938 29.38142578 16.40921875 29.32535156 17.5859375 29.26757812 C19.24882813 29.19506836 19.24882813 29.19506836 20.9453125 29.12109375 C21.96125488 29.0739624 22.97719727 29.02683105 24.02392578 28.97827148 C27.11798001 29.00086138 29.9664525 29.4126704 33 30 C33 30.33 33 30.66 33 31 C29.1250877 31.16874763 25.25005773 31.33462845 21.375 31.5 C20.28058594 31.54769531 19.18617188 31.59539063 18.05859375 31.64453125 C16.99511719 31.68964844 15.93164062 31.73476563 14.8359375 31.78125 C13.86188965 31.82314453 12.8878418 31.86503906 11.88427734 31.90820312 C9.87259683 31.97222817 7.85824203 31.97100971 5.84619141 31.91992188 C2.28678344 32.02006648 0.05912171 33.25193045 -3 35 C-2.34 33.35 -1.68 31.7 -1 30 C-0.34 30 0.32 30 1 30 C0.9278125 29.09121094 0.855625 28.18242188 0.78125 27.24609375 C0.10867369 18.13828949 -0.11659121 9.13297847 0 0 Z " fill="#2C6D8D" transform="translate(751,854)"/>
<path d="M0 0 C1.50855343 3.01710686 1.19129259 6.12960368 1.1875 9.4375 C1.18669434 10.15309082 1.18588867 10.86868164 1.18505859 11.60595703 C1.00925211 26.99074789 1.00925211 26.99074789 -3 31 C-3.61831283 32.76990245 -4.15924558 34.56727987 -4.65625 36.375 C-4.95660156 37.44234375 -5.25695312 38.5096875 -5.56640625 39.609375 C-5.87449219 40.72828125 -6.18257812 41.8471875 -6.5 43 C-7.10851728 45.21001256 -7.72282247 47.41844209 -8.34375 49.625 C-8.61380859 50.60726562 -8.88386719 51.58953125 -9.16210938 52.6015625 C-10 55 -10 55 -12 57 C-10.89968089 50.69817235 -9.35772761 44.67341054 -7.5 38.5625 C-5.53773582 32.09630437 -3.96957846 25.70022128 -3 19 C-2.34 19 -1.68 19 -1 19 C-1.2784375 17.6078125 -1.2784375 17.6078125 -1.5625 16.1875 C-2.30108037 11.12146284 -1.78460597 6.03891392 -1 1 C-0.67 0.67 -0.34 0.34 0 0 Z " fill="#31759C" transform="translate(717,345)"/>
<path d="M0 0 C-0.79664063 0.36738281 -0.79664063 0.36738281 -1.609375 0.7421875 C-7.19857476 3.69997569 -9.24129869 6.56695589 -11.30859375 12.5 C-12.52656355 16.90395861 -13.12732924 20.95234455 -13.1328125 25.52734375 C-13.13410156 26.56697266 -13.13539063 27.60660156 -13.13671875 28.67773438 C-13.13285156 29.75345703 -13.12898438 30.82917969 -13.125 31.9375 C-13.12886719 33.00935547 -13.13273437 34.08121094 -13.13671875 35.18554688 C-13.13044548 40.25120894 -12.98178309 45.01377878 -12 50 C-11.88803927 52.67810075 -11.95374701 55.31732686 -12 58 C-12.66 58 -13.32 58 -14 58 C-15.24498693 54.14209288 -15.16174377 50.27867264 -15.16796875 46.26953125 C-15.17129715 45.51967453 -15.17462555 44.76981781 -15.17805481 43.99723816 C-15.18310975 42.41116955 -15.18546358 40.82509033 -15.18530273 39.23901367 C-15.18747673 36.83819518 -15.20561269 34.4378459 -15.22460938 32.03710938 C-15.26636447 21.04670897 -15.28072841 10.90793992 -8 2 C-3.82978723 -1.27659574 -3.82978723 -1.27659574 0 0 Z " fill="#7EEBD2" transform="translate(354,285)"/>
<path d="M0 0 C0.33 0.66 0.66 1.32 1 2 C0.2578125 3.98828125 0.2578125 3.98828125 -0.875 6.3125 C-2.38208824 9.58132243 -3.63870166 12.38701658 -4 16 C-4.06316406 16.6084375 -4.12632812 17.216875 -4.19140625 17.84375 C-4.59391584 25.01101747 -2.31263225 31.29429524 0 38 C0.33 38.99 0.66 39.98 1 41 C-2.63 44.96 -6.26 48.92 -10 53 C-10 49.03869629 -8.65122875 48.17085599 -6 45.3125 C-5.2575 44.50425781 -4.515 43.69601563 -3.75 42.86328125 C-3.1725 42.24839844 -2.595 41.63351563 -2 41 C-2.20496094 40.39671875 -2.40992188 39.7934375 -2.62109375 39.171875 C-2.89050781 38.37265625 -3.15992188 37.5734375 -3.4375 36.75 C-3.70433594 35.96109375 -3.97117187 35.1721875 -4.24609375 34.359375 C-6.02559548 28.7903644 -6.21688084 23.76233201 -6.25 17.9375 C-6.270625 17.02677734 -6.29125 16.11605469 -6.3125 15.17773438 C-6.31765625 14.30310547 -6.3228125 13.42847656 -6.328125 12.52734375 C-6.3374707 11.73062256 -6.34681641 10.93390137 -6.35644531 10.11303711 C-5.91113561 7.47320457 -4.98223164 6.73216267 -3 5 C-1.96642853 3.35394174 -0.95939668 1.69036558 0 0 Z " fill="#2F768B" transform="translate(662,103)"/>
<path d="M0 0 C-1.89564426 0.79211929 -3.79152371 1.58367576 -5.6875 2.375 C-7.27111328 3.03628906 -7.27111328 3.03628906 -8.88671875 3.7109375 C-9.91410156 4.13632812 -10.94148437 4.56171875 -12 5 C-12.89332031 5.37253906 -13.78664063 5.74507812 -14.70703125 6.12890625 C-17.45248843 7.17189935 -20.09760319 7.5767338 -23 8 C-25.77277717 8.52677977 -28.51900128 9.11967413 -31.26953125 9.75390625 C-37.64464823 11.2088668 -43.45787595 12.39252744 -50 12 C-46.77107224 9.8473815 -45.27713607 9.63043735 -41.5 9.1875 C-29.12634947 7.4316859 -16.95068044 3.95607709 -5.25 -0.3984375 C-3 -1 -3 -1 0 0 Z " fill="#2A788F" transform="translate(578,529)"/>
<path d="M0 0 C0.66 0.33 1.32 0.66 2 1 C1.67 1.99 1.34 2.98 1 4 C0.01 4 -0.98 4 -2 4 C-2.35964844 4.84498047 -2.35964844 4.84498047 -2.7265625 5.70703125 C-4.26801503 8.48259148 -6.1631126 10.40760959 -8.375 12.6875 C-17.14864605 22.16150967 -24.26386659 33.01353385 -31 44 C-31.33 43.34 -31.66 42.68 -32 42 C-30.71027646 39.52545866 -29.36879392 37.224011 -27.875 34.875 C-27.42777588 34.16649902 -26.98055176 33.45799805 -26.51977539 32.72802734 C-18.88929121 20.9220776 -9.55880187 10.27509452 0 0 Z " fill="#499B85" transform="translate(361,200)"/>
<path d="M0 0 C0.99 0 1.98 0 3 0 C1.45339834 3.80970805 -0.90381401 6.02369189 -3.9375 8.75 C-4.81277344 9.54921875 -5.68804687 10.3484375 -6.58984375 11.171875 C-9 13 -9 13 -12 13 C-12.226875 13.5775 -12.45375 14.155 -12.6875 14.75 C-14.33783478 17.57914534 -16.43258577 18.98274596 -19 21 C-20.37368345 22.63356951 -21.71937515 24.2925002 -23 26 C-23.66 25.67 -24.32 25.34 -25 25 C-23.58474822 23.41540185 -22.1677358 21.83237609 -20.75 20.25 C-19.96109375 19.36828125 -19.1721875 18.4865625 -18.359375 17.578125 C-14.08132147 12.90343075 -14.08132147 12.90343075 -12 11 C-11.34 11 -10.68 11 -10 11 C-10 10.34 -10 9.68 -10 9 C-8.3203125 7.34375 -8.3203125 7.34375 -6.125 5.5 C-4.00964496 3.71066742 -1.95980876 1.95980876 0 0 Z " fill="#53A98F" transform="translate(302,562)"/>
<path d="M0 0 C0 0.66 0 1.32 0 2 C-1.0621875 1.97679688 -2.124375 1.95359375 -3.21875 1.9296875 C-18.17362196 1.69261748 -29.6026106 4.52672325 -41 15 C-38.16019187 8.5547492 -32.37479369 4.66851829 -26 2 C-25.34 2 -24.68 2 -24 2 C-24 1.34 -24 0.68 -24 0 C-15.88611956 -1.21521251 -8.14648632 -0.76299944 0 0 Z " fill="#2F748A" transform="translate(704,88)"/>
<path d="M0 0 C1 2 1 2 0.3125 4.125 C-1.36468698 7.79883814 -3.16201502 11.40433035 -5 15 C-5.66 15 -6.32 15 -7 15 C-7.103125 15.639375 -7.20625 16.27875 -7.3125 16.9375 C-8.23903073 21.06477326 -9.61660629 25.00642949 -11 29 C-11.66 28.34 -12.32 27.68 -13 27 C-11.60406758 23.05483759 -10.17977797 19.12050994 -8.75 15.1875 C-8.35425781 14.06794922 -7.95851563 12.94839844 -7.55078125 11.79492188 C-7.15761719 10.72177734 -6.76445312 9.64863281 -6.359375 8.54296875 C-6.00327148 7.55321045 -5.64716797 6.56345215 -5.28027344 5.54370117 C-3.88731775 2.77611816 -2.60262193 1.62063635 0 0 Z " fill="#46A291" transform="translate(317,642)"/>
<path d="M0 0 C3.86098171 5.79147256 3.31130078 13.03567417 3.625 19.8125 C3.6765625 20.77865234 3.728125 21.74480469 3.78125 22.74023438 C3.82507813 23.65740234 3.86890625 24.57457031 3.9140625 25.51953125 C3.9548291 26.35589111 3.9955957 27.19225098 4.03759766 28.05395508 C4 30 4 30 3 31 C2.76924918 32.34747084 2.58846937 33.70377565 2.4375 35.0625 C2.293125 36.361875 2.14875 37.66125 2 39 C1.67 39 1.34 39 1 39 C-1.50800998 19.96599569 -1.50800998 19.96599569 0.53515625 11.8828125 C1.151239 9.38741849 0.8636833 7.2933256 0.5625 4.75 C0.46066406 3.85796875 0.35882812 2.9659375 0.25390625 2.046875 C0.17011719 1.37140625 0.08632813 0.6959375 0 0 Z M0 39 C1 43 1 43 1 43 Z " fill="#2F7898" transform="translate(682,296)"/>
<path d="M0 0 C-4.52547498 1.64941885 -8.98619178 2.61549768 -13.734375 3.32421875 C-14.45361145 3.43474075 -15.1728479 3.54526276 -15.91387939 3.65913391 C-17.42281527 3.88942263 -18.93216425 4.11701916 -20.44189453 4.34204102 C-22.75825077 4.68873491 -25.07243572 5.04795864 -27.38671875 5.40820312 C-28.85665674 5.63096253 -30.3267053 5.85299379 -31.796875 6.07421875 C-32.83590973 6.23660286 -32.83590973 6.23660286 -33.89593506 6.40226746 C-38.7703973 7.11480135 -38.7703973 7.11480135 -41 6 C-36.64693286 4.41162894 -32.52897582 3.53204366 -27.9375 2.9375 C-23.91941256 2.40960795 -19.96990319 1.80754242 -16 1 C-13.60691127 0.60786649 -11.2108038 0.23386105 -8.8125 -0.125 C-6.96591797 -0.40730469 -6.96591797 -0.40730469 -5.08203125 -0.6953125 C-2 -1 -2 -1 0 0 Z " fill="#3588A8" transform="translate(643,930)"/>
<path d="M0 0 C-1.2065625 0.4021875 -1.2065625 0.4021875 -2.4375 0.8125 C-3.283125 1.204375 -4.12875 1.59625 -5 2 C-5.33 2.99 -5.66 3.98 -6 5 C-11.86623192 9.35236562 -19.76842572 12.23878165 -27 13 C-24.3144406 10.3144406 -21.62378672 9.93950026 -18 9 C-18 8.34 -18 7.68 -18 7 C-15.56876731 5.63336613 -13.13113837 4.2816133 -10.6875 2.9375 C-9.65206055 2.35258789 -9.65206055 2.35258789 -8.59570312 1.75585938 C-3.33984375 -1.11328125 -3.33984375 -1.11328125 0 0 Z " fill="#2F819B" transform="translate(605,515)"/>
<path d="M0 0 C1.98908089 3.60646484 2.05220443 5.26599671 1.125 9.3125 C0.42380247 12.64877107 -0.14020803 15.71291121 -0.0625 19.125 C-0.041875 20.07375 -0.02125 21.0225 0 22 C-0.33 22.33 -0.66 22.66 -1 23 C-1.39666227 25.18019479 -1.74315237 27.3696463 -2.0625 29.5625 C-2.32740234 31.35880859 -2.32740234 31.35880859 -2.59765625 33.19140625 C-2.73042969 34.11824219 -2.86320312 35.04507813 -3 36 C-3.33 36 -3.66 36 -4 36 C-4.2995999 27.72251262 -3.41275102 19.95968239 -2 11.8125 C-1.80921875 10.66974609 -1.6184375 9.52699219 -1.421875 8.34960938 C-0.95582628 5.56496826 -0.4817577 2.78195855 0 0 Z " fill="#4DB29F" transform="translate(278,778)"/>
<path d="M0 0 C0.66 0.33 1.32 0.66 2 1 C1.00355711 3.49110723 0.42031674 4.75594512 -1.9375 6.125 C-2.618125 6.41375 -3.29875 6.7025 -4 7 C-4.99 7.66 -5.98 8.32 -7 9 C-8.42226646 9.5418158 -9.86200689 10.03904882 -11.3125 10.5 C-12.10140625 10.75394531 -12.8903125 11.00789063 -13.703125 11.26953125 C-14.46109375 11.51058594 -15.2190625 11.75164062 -16 12 C-17.175625 12.391875 -18.35125 12.78375 -19.5625 13.1875 C-20.366875 13.455625 -21.17125 13.72375 -22 14 C-19.20438515 10.6241632 -15.39083572 8.95270815 -11.5625 7 C-5.52536722 3.91368945 -5.52536722 3.91368945 0 0 Z " fill="#40B2CA" transform="translate(623,422)"/>
<path d="M0 0 C0 3.35762885 -0.39462725 3.84515966 -2.375 6.375 C-3.99305655 8.52787636 -5.06241863 10.1578824 -6.0625 12.6875 C-7 15 -7 15 -9 16.9375 C-11.42291177 19.43612777 -12.09405622 21.67820615 -13 25 C-13.99 24.67 -14.98 24.34 -16 24 C-14.50078242 20.8862404 -12.77720586 17.96200977 -11 15 C-10.73445312 14.40703125 -10.46890625 13.8140625 -10.1953125 13.203125 C-8.59005006 10.24440598 -6.52807907 7.83369488 -4.375 5.25 C-3.55773437 4.26515625 -2.74046875 3.2803125 -1.8984375 2.265625 C-1.27195312 1.51796875 -0.64546875 0.7703125 0 0 Z " fill="#338095" transform="translate(650,156)"/>
<path d="M0 0 C0.33 0.99 0.66 1.98 1 3 C-0.375 5.5625 -0.375 5.5625 -2 8 C-2.33 8.66 -2.66 9.32 -3 10 C-3.66 10 -4.32 10 -5 10 C-5.12117187 10.62648438 -5.24234375 11.25296875 -5.3671875 11.8984375 C-5.53476563 12.71570313 -5.70234375 13.53296875 -5.875 14.375 C-6.03742188 15.18710937 -6.19984375 15.99921875 -6.3671875 16.8359375 C-7 19 -7 19 -9 21 C-10.18771723 17.57056481 -9.80226223 15.62215325 -8.5625 12.25 C-8.27503906 11.45078125 -7.98757812 10.6515625 -7.69140625 9.828125 C-7.46324219 9.22484375 -7.23507813 8.6215625 -7 8 C-6.34 8 -5.68 8 -5 8 C-4.34 6.02 -3.68 4.04 -3 2 C-2.34 2 -1.68 2 -1 2 C-0.67 1.34 -0.34 0.68 0 0 Z " fill="#59AE91" transform="translate(207,687)"/>
<path d="M0 0 C19.305 0.495 19.305 0.495 39 1 C39 1.33 39 1.66 39 2 C31.18597145 2.70351382 23.40610724 3.12250222 15.5625 3.1875 C14.44609131 3.20683594 14.44609131 3.20683594 13.30712891 3.2265625 C8.49948489 3.23518414 4.56428118 2.52142706 0 1 C0 0.67 0 0.34 0 0 Z " fill="#2B7B8A" transform="translate(487,540)"/>
<path d="M0 0 C0.66 0.66 1.32 1.32 2 2 C1.625 5.125 1.625 5.125 1 8 C0.34 8 -0.32 8 -1 8 C-0.938125 9.794375 -0.938125 9.794375 -0.875 11.625 C-0.86148292 15.42329953 -1.57990247 18.44975618 -3 22 C-3.66 21.34 -4.32 20.68 -5 20 C-4.86328125 17.96875 -4.86328125 17.96875 -4.3125 15.5 C-4.11527344 14.61570312 -3.91804688 13.73140625 -3.71484375 12.8203125 C-2.62009429 8.50113704 -1.35454426 4.24423867 0 0 Z " fill="#54A98D" transform="translate(314,274)"/>
<path d="M0 0 C3.29319549 0.31555009 4.72023195 0.72894268 7.1328125 3.06640625 C7.79023438 3.89011719 8.44765625 4.71382813 9.125 5.5625 C11.04149403 8.03111953 11.04149403 8.03111953 13 10 C13.99 10 14.98 10 16 10 C16.33 11.65 16.66 13.3 17 15 C12.67780292 12.24892797 8.91460446 9.28887157 5.125 5.8125 C4.15820312 4.93207031 3.19140625 4.05164063 2.1953125 3.14453125 C1.47085937 2.43683594 0.74640625 1.72914063 0 1 C0 0.67 0 0.34 0 0 Z " fill="#5FD7C9" transform="translate(416,310)"/>
<path d="M0 0 C0 0.33 0 0.66 0 1 C-14.85 2.485 -14.85 2.485 -30 4 C-30 3.34 -30 2.68 -30 2 C-20.08717557 -0.64341985 -10.17592366 -0.19255751 0 0 Z " fill="#358AA5" transform="translate(595,937)"/>
<path d="M0 0 C1.1916143 3.57484289 0.74788456 4.28587882 -0.65234375 7.66796875 C-1.01650391 8.56064453 -1.38066406 9.45332031 -1.75585938 10.37304688 C-2.14580078 11.30181641 -2.53574219 12.23058594 -2.9375 13.1875 C-3.32357422 14.12787109 -3.70964844 15.06824219 -4.10742188 16.03710938 C-5.06321649 18.36169628 -6.02767007 20.68229199 -7 23 C-8.35176117 18.9447165 -7.12019824 15.96433793 -6 12 C-5.690625 10.741875 -5.38125 9.48375 -5.0625 8.1875 C-4.04490297 5.1347089 -3.40636176 3.98786406 -1 2 C-0.67 1.34 -0.34 0.68 0 0 Z " fill="#5EB899" transform="translate(196,710)"/>
<path d="M0 0 C4.5250081 1.15343344 8.05753907 2.53596192 12 5 C13.24461042 5.51326883 14.4949633 6.01278047 15.75 6.5 C16.8225 6.995 17.895 7.49 19 8 C19.33 8.99 19.66 9.98 20 11 C15.50675151 9.34229667 11.38813854 7.15017838 7.1875 4.875 C6.49462891 4.50246094 5.80175781 4.12992187 5.08789062 3.74609375 C3.39065164 2.83309623 1.69514862 1.91687284 0 1 C0 0.67 0 0.34 0 0 Z " fill="#6FD9C6" transform="translate(381,288)"/>
<path d="M0 0 C5.61 0 11.22 0 17 0 C17 0.66 17 1.32 17 2 C17.94875 2.12375 18.8975 2.2475 19.875 2.375 C23 3 23 3 25 5 C24.45214844 4.87882812 23.90429688 4.75765625 23.33984375 4.6328125 C15.60696327 2.99821988 7.83796865 1.98235874 0 1 C0 0.67 0 0.34 0 0 Z " fill="#77E4CC" transform="translate(355,283)"/>
<path d="M0 0 C0.66 2.64 1.32 5.28 2 8 C1.34 8 0.68 8 0 8 C-0.66 6.02 -1.32 4.04 -2 2 C-3.19625 2.020625 -4.3925 2.04125 -5.625 2.0625 C-9.18004869 2.06882571 -12.50555624 1.69888875 -16 1 C-16 0.67 -16 0.34 -16 0 C-10.47032059 -0.71033431 -5.50016964 -1.30267176 0 0 Z " fill="#449887" transform="translate(342,160)"/>
<path d="M0 0 C0.66 0.33 1.32 0.66 2 1 C-0.69865978 4.59821303 -3.50338455 7.20270764 -7 10 C-8.37368345 11.63356951 -9.71937515 13.2925002 -11 15 C-11.66 14.67 -12.32 14.34 -13 14 C-11.58474822 12.41540185 -10.1677358 10.83237609 -8.75 9.25 C-7.96109375 8.36828125 -7.1721875 7.4865625 -6.359375 6.578125 C-4.29407328 4.32133835 -2.18264936 2.14260074 0 0 Z " fill="#4B9D84" transform="translate(290,573)"/>
<path d="M0 0 C0.66 0 1.32 0 2 0 C0.70396588 2.82868857 -0.69189598 4.9701021 -2.8203125 7.234375 C-3.35527344 7.80800781 -3.89023437 8.38164062 -4.44140625 8.97265625 C-4.99699219 9.55917969 -5.55257813 10.14570313 -6.125 10.75 C-6.68832031 11.35199219 -7.25164062 11.95398438 -7.83203125 12.57421875 C-9.21724146 14.05334151 -10.6080729 15.52719641 -12 17 C-12 12.69761104 -9.39543781 10.86873057 -6.5625 7.9375 C-2.86562064 4.27608294 -2.86562064 4.27608294 0 0 Z " fill="#5FBEA0" transform="translate(359,204)"/>
<path d="M0 0 C0.99 0 1.98 0 3 0 C1.63312778 3.98671063 -0.15195093 6.88494633 -3 10 C-3.66 10 -4.32 10 -5 10 C-4.38390949 5.99541169 -2.44939347 3.16980331 0 0 Z " fill="#5BB192" transform="translate(244,625)"/>
<path d="M0 0 C0.66 0.66 1.32 1.32 2 2 C1.34 2 0.68 2 0 2 C-0.24492188 2.59296875 -0.48984375 3.1859375 -0.7421875 3.796875 C-2.20952109 6.36698726 -3.72292225 7.54529966 -6.125 9.25 C-6.84945312 9.77078125 -7.57390625 10.2915625 -8.3203125 10.828125 C-8.87460937 11.21484375 -9.42890625 11.6015625 -10 12 C-7.65944781 7.01688889 -4.60733731 3.07155821 0 0 Z " fill="#3B9FBF" transform="translate(660,388)"/>
<path d="M0 0 C0.33 0 0.66 0 1 0 C1.95261487 4.76307437 2.08333357 9.1666528 2 14 C1.34 14 0.68 14 0 14 C-0.85380428 11.03878992 -1.13517764 8.3912356 -1.125 5.3125 C-1.12757813 4.52488281 -1.13015625 3.73726563 -1.1328125 2.92578125 C-1 1 -1 1 0 0 Z " fill="#63CAB2" transform="translate(340,329)"/>
<path d="M0 0 C0 4.2650016 -2.44473414 6.50032379 -5 9.6875 C-5.71542969 10.59725586 -5.71542969 10.59725586 -6.4453125 11.52539062 C-7.62376394 13.02202396 -8.81105188 14.51169173 -10 16 C-10 12.00908575 -8.49620157 10.60613412 -6.125 7.4375 C-5.40570312 6.46683594 -4.68640625 5.49617187 -3.9453125 4.49609375 C-2 2 -2 2 0 0 Z " fill="#3895AC" transform="translate(655,152)"/>
<path d="M0 0 C4.2742558 1.5830577 6.26531794 4.50568404 9 8 C8.34 8.66 7.68 9.32 7 10 C4.66666667 7.66666667 2.33333333 5.33333333 0 3 C0 2.01 0 1.02 0 0 Z " fill="#1A2925" transform="translate(429,323)"/>
<path d="M0 0 C0.33 0 0.66 0 1 0 C1 3.96 1 7.92 1 12 C0.34 12 -0.32 12 -1 12 C-2.50934217 8.98131566 -2.17510672 6.32702771 -2 3 C-1.34 2.01 -0.68 1.02 0 0 Z " fill="#5EBE9F" transform="translate(338,311)"/>
<path d="M0 0 C-1.09921423 2.79799985 -2.04466152 4.03550018 -4.4375 5.9375 C-7.09910431 8.07976689 -8.4184701 10.00341703 -10 13 C-10.33 12.34 -10.66 11.68 -11 11 C-4.09302326 0 -4.09302326 0 0 0 Z " fill="#3995AC" transform="translate(672,96)"/>
<path d="M0 0 C1 2 1 2 0.3125 4.125 C-1.36468698 7.79883814 -3.16201502 11.40433035 -5 15 C-6 12 -6 12 -4.78515625 9.08203125 C-4.21667969 8.00308594 -3.64820313 6.92414062 -3.0625 5.8125 C-2.49660156 4.72582031 -1.93070312 3.63914062 -1.34765625 2.51953125 C-0.90292969 1.68808594 -0.45820313 0.85664062 0 0 Z " fill="#5EBB9C" transform="translate(317,642)"/>
<path d="M0 0 C-1.32 0.33 -2.64 0.66 -4 1 C-4 1.66 -4 2.32 -4 3 C-5.65 3.66 -7.3 4.32 -9 5 C-9.66 4.34 -10.32 3.68 -11 3 C-10 1 -10 1 -6.625 -0.1875 C-3 -1 -3 -1 0 0 Z " fill="#42B4C5" transform="translate(592,440)"/>
<path d="M0 0 C1.59412284 3.18824568 1.10174735 6.62896662 1.0625 10.125 C1.05798828 10.87910156 1.05347656 11.63320313 1.04882812 12.41015625 C1.03703499 14.27347127 1.01909942 16.13674555 1 18 C-1.39488917 15.50018012 -1.98899587 14.32187093 -2.109375 10.80078125 C-1.99078125 9.64964844 -1.8721875 8.49851562 -1.75 7.3125 C-1.64171875 6.15363281 -1.5334375 4.99476563 -1.421875 3.80078125 C-1 1 -1 1 0 0 Z " fill="#3378A0" transform="translate(717,345)"/>
<path d="M0 0 C0.33 0 0.66 0 1 0 C1.38133299 1.9914056 1.71325582 3.99279077 2 6 C1.67 6.33 1.34 6.66 1 7 C0.76636119 8.84891946 0.58696365 10.70488031 0.4375 12.5625 C0.35371094 13.57441406 0.26992188 14.58632813 0.18359375 15.62890625 C0.12300781 16.41136719 0.06242187 17.19382812 0 18 C-0.33 18 -0.66 18 -1 18 C-1.02698422 15.56242587 -1.04683099 13.12515085 -1.0625 10.6875 C-1.07087891 9.99720703 -1.07925781 9.30691406 -1.08789062 8.59570312 C-1.10307906 5.4516975 -1.00193327 3.00579981 0 0 Z " fill="#63BFA1" transform="translate(308,307)"/>
<path d="M0 0 C0.66 0.33 1.32 0.66 2 1 C-1.3 3.31 -4.6 5.62 -8 8 C-8.66 7.67 -9.32 7.34 -10 7 C-9.67 6.01 -9.34 5.02 -9 4 C-5.5625 2.375 -5.5625 2.375 -2 1 C-1.34 0.67 -0.68 0.34 0 0 Z " fill="#45C1D2" transform="translate(617,300)"/>
<path d="M0 0 C0.66 0.33 1.32 0.66 2 1 C-1.32307692 5.8 -1.32307692 5.8 -4.75 6.8125 C-5.4925 6.874375 -6.235 6.93625 -7 7 C-4.78071806 4.09197539 -3.07030857 2.04687238 0 0 Z " fill="#110F0F" transform="translate(609,307)"/>
<path d="M0 0 C2.10814567 4.21629134 2.17700355 6.39790775 2 11 C1.01 10.34 0.02 9.68 -1 9 C-0.67 6.03 -0.34 3.06 0 0 Z " fill="#3590A5" transform="translate(753,851)"/>
<path d="M0 0 C3.24208567 0.35049575 4.61527704 0.56221181 6.8125 3.0625 C7.204375 3.701875 7.59625 4.34125 8 5 C4.75791433 4.64950425 3.38472296 4.43778819 1.1875 1.9375 C0.795625 1.298125 0.40375 0.65875 0 0 Z " fill="#59C6B6" transform="translate(416,310)"/>
<path d="M0 0 C0.33 0.66 0.66 1.32 1 2 C0.00390625 4.1640625 0.00390625 4.1640625 -1.4375 6.625 C-1.91058594 7.44226563 -2.38367188 8.25953125 -2.87109375 9.1015625 C-3.24363281 9.72804688 -3.61617187 10.35453125 -4 11 C-4.66 10.34 -5.32 9.68 -6 9 C-4.02 6.03 -2.04 3.06 0 0 Z " fill="#3581AA" transform="translate(696,420)"/>
<path d="M0 0 C0.66 0 1.32 0 2 0 C1.43628586 3.26954202 0.50037734 4.82575883 -2 7 C-2.33 6.01 -2.66 5.02 -3 4 C-1.6875 1.8125 -1.6875 1.8125 0 0 Z " fill="#5CB090" transform="translate(229,647)"/>
<path d="M0 0 C-1 3 -1 3 -3.9375 4.75 C-5.4534375 5.36875 -5.4534375 5.36875 -7 6 C-7.66 5.67 -8.32 5.34 -9 5 C-7.35 4.34 -5.7 3.68 -4 3 C-4 2.34 -4 1.68 -4 1 C-2 0 -2 0 0 0 Z " fill="#3692AA" transform="translate(614,508)"/>
<path d="M0 0 C0.66 0.33 1.32 0.66 2 1 C-0.97 4.96 -0.97 4.96 -4 9 C-4.33 8.01 -4.66 7.02 -5 6 C-3.59554165 3.7363436 -1.8032087 1.9791315 0 0 Z " fill="#3581A8" transform="translate(685,438)"/>
<path d="M0 0 C0.66 0.33 1.32 0.66 2 1 C1.67 1.99 1.34 2.98 1 4 C0.01 4 -0.98 4 -2 4 C-2.33 4.99 -2.66 5.98 -3 7 C-3.66 6.34 -4.32 5.68 -5 5 C-3.35 3.35 -1.7 1.7 0 0 Z " fill="#4FA58D" transform="translate(361,200)"/>
<path d="M0 0 C0.66 0.66 1.32 1.32 2 2 C0.35 3.32 -1.3 4.64 -3 6 C-3.66 5.67 -4.32 5.34 -5 5 C-5 4.34 -5 3.68 -5 3 C-2.5 1.375 -2.5 1.375 0 0 Z " fill="#4EAA97" transform="translate(392,175)"/>
<path d="M0 0 C0.66 0.33 1.32 0.66 2 1 C1 2 1 2 -1.5625 2.0625 C-2.7690625 2.0315625 -2.7690625 2.0315625 -4 2 C-2.125 0.9375 -2.125 0.9375 0 0 Z " fill="#32768E" transform="translate(672,926)"/>
<path d="M0 0 C1.98 0 3.96 0 6 0 C6 0.33 6 0.66 6 1 C4.02 1 2.04 1 0 1 C0 0.67 0 0.34 0 0 Z " fill="#368291" transform="translate(564,943)"/>
<path d="M0 0 C0.99 1.485 0.99 1.485 2 3 C1.67 3.66 1.34 4.32 1 5 C0.67 3.35 0.34 1.7 0 0 Z " fill="#4A9786" transform="translate(170,843)"/>
<path d="M0 0 C1.65 0 3.3 0 5 0 C5 0.33 5 0.66 5 1 C3.35 1 1.7 1 0 1 C0 0.67 0 0.34 0 0 Z " fill="#3A898E" transform="translate(456,943)"/>
<path d="M0 0 C1.65 0 3.3 0 5 0 C5 0.33 5 0.66 5 1 C3.35 1 1.7 1 0 1 C0 0.67 0 0.34 0 0 Z " fill="#36808F" transform="translate(576,942)"/>
<path d="M0 0 C1.32 0.33 2.64 0.66 4 1 C3.01 1.495 3.01 1.495 2 2 C1.34 1.34 0.68 0.68 0 0 Z " fill="#3E8F8F" transform="translate(376,932)"/>
<path d="M0 0 C1.65 0 3.3 0 5 0 C5 0.33 5 0.66 5 1 C3.35 1 1.7 1 0 1 C0 0.67 0 0.34 0 0 Z " fill="#429089" transform="translate(224,883)"/>
<path d="M0 0 C0.99 0.495 0.99 0.495 2 1 C1.67 1.99 1.34 2.98 1 4 C0.67 2.68 0.34 1.36 0 0 Z " fill="#337493" transform="translate(822,694)"/>
<path d="M0 0 C1.65 0 3.3 0 5 0 C5 0.33 5 0.66 5 1 C3.35 1 1.7 1 0 1 C0 0.67 0 0.34 0 0 Z " fill="#4CA295" transform="translate(458,144)"/>
<path d="M0 0 C4 1 4 1 4 1 Z " fill="#3A8C8F" transform="translate(443,942)"/>
<path d="M0 0 C0.99 0.33 1.98 0.66 3 1 C2.01 1 1.02 1 0 1 C0 0.67 0 0.34 0 0 Z " fill="#3D8E8F" transform="translate(387,934)"/>
<path d="M0 0 C4 1 4 1 4 1 Z " fill="#347C90" transform="translate(777,886)"/>
<path d="M0 0 C1 4 1 4 1 4 Z " fill="#2F6F8E" transform="translate(855,801)"/>
<path d="M0 0 C0.99 0.33 1.98 0.66 3 1 C2.01 1 1.02 1 0 1 C0 0.67 0 0.34 0 0 Z " fill="#337493" transform="translate(756,592)"/>
<path d="M0 0 C4 1 4 1 4 1 Z " fill="#53AA9A" transform="translate(432,152)"/>
<path d="M0 0 C0.99 0.495 0.99 0.495 2 1 C1.67 1.66 1.34 2.32 1 3 C0.67 2.01 0.34 1.02 0 0 Z " fill="#539D8A" transform="translate(297,140)"/>
<path d="M0 0 C0.99 0.33 1.98 0.66 3 1 C2.01 1.33 1.02 1.66 0 2 C0 1.34 0 0.68 0 0 Z " fill="#367E90" transform="translate(664,96)"/>
<path d="M0 0 C3 1 3 1 3 1 Z " fill="#368191" transform="translate(585,941)"/>
<path d="M0 0 C3 1 3 1 3 1 Z " fill="#3C8E90" transform="translate(425,940)"/>
<path d="M0 0 C3 1 3 1 3 1 Z " fill="#32778B" transform="translate(635,934)"/>
<path d="M0 0 C3 1 3 1 3 1 Z " fill="#3F9290" transform="translate(355,927)"/>
<path d="M0 0 C0.66 0.66 1.32 1.32 2 2 C1.34 2 0.68 2 0 2 C0 1.34 0 0.68 0 0 Z " fill="#45968F" transform="translate(288,899)"/>
<path d="M0 0 C3 1 3 1 3 1 Z " fill="#347D91" transform="translate(771,886)"/>
<path d="" fill="#56A38C" transform="translate(0,0)"/>
<path d="" fill="#327190" transform="translate(0,0)"/>
<path d="M0 0 C0.99 0.495 0.99 0.495 2 1 C1.01 1.495 1.01 1.495 0 2 C0 1.34 0 0.68 0 0 Z " fill="#65B18F" transform="translate(240,627)"/>
<path d="M0 0 C0.66 0 1.32 0 2 0 C1.67 0.66 1.34 1.32 1 2 C0.67 1.34 0.34 0.68 0 0 Z " fill="#327792" transform="translate(693,536)"/>
<path d="M0 0 C0.66 0.66 1.32 1.32 2 2 C1.34 2 0.68 2 0 2 C0 1.34 0 0.68 0 0 Z " fill="#51A894" transform="translate(337,445)"/>
<path d="" fill="#55A68D" transform="translate(0,0)"/>
<path d="M0 0 C0.33 0.66 0.66 1.32 1 2 C0.34 1.67 -0.32 1.34 -1 1 C-0.67 0.67 -0.34 0.34 0 0 Z " fill="#327392" transform="translate(718,367)"/>
<path d="M0 0 C0.66 0.66 1.32 1.32 2 2 C1.34 2 0.68 2 0 2 C0 1.34 0 0.68 0 0 Z " fill="#53A28E" transform="translate(304,150)"/>
<path d="M0 0 C3 1 3 1 3 1 Z " fill="#539B88" transform="translate(304,96)"/>
<path d="M0 0 C2 1 2 1 2 1 Z " fill="#3E8E91" transform="translate(434,941)"/>
<path d="M0 0 C2 1 2 1 2 1 Z " fill="#357B8D" transform="translate(606,939)"/>
<path d="M0 0 C2 1 2 1 2 1 Z " fill="#3C8E90" transform="translate(418,939)"/>
<path d="M0 0 C2 1 2 1 2 1 Z " fill="#31798D" transform="translate(632,935)"/>
<path d="M0 0 C2 1 2 1 2 1 Z " fill="#3D8F91" transform="translate(392,935)"/>
<path d="M0 0 C2 1 2 1 2 1 Z " fill="#3F9090" transform="translate(383,933)"/>
<path d="M0 0 C2 1 2 1 2 1 Z " fill="#47968F" transform="translate(272,887)"/>
<path d="M0 0 C2 1 2 1 2 1 Z " fill="#419189" transform="translate(233,884)"/>
<path d="M0 0 C2 1 2 1 2 1 Z " fill="#33778E" transform="translate(813,879)"/>
<path d="M0 0 C2 1 2 1 2 1 Z " fill="#429289" transform="translate(205,878)"/>
<path d="M0 0 C2 1 2 1 2 1 Z " fill="#44948A" transform="translate(200,876)"/>
<path d="M0 0 C2 1 2 1 2 1 Z " fill="#479386" transform="translate(180,862)"/>
<path d="" fill="#479589" transform="translate(0,0)"/>
<path d="" fill="#2F6D88" transform="translate(0,0)"/>
<path d="" fill="#4E9B8A" transform="translate(0,0)"/>
<path d="" fill="#2E6D8B" transform="translate(0,0)"/>
<path d="" fill="#58A68C" transform="translate(0,0)"/>
<path d="" fill="#57A58B" transform="translate(0,0)"/>
<path d="" fill="#337190" transform="translate(0,0)"/>
<path d="" fill="#327492" transform="translate(0,0)"/>
<path d="" fill="#5FAD8D" transform="translate(0,0)"/>
<path d="" fill="#61AD8D" transform="translate(0,0)"/>
<path d="" fill="#327591" transform="translate(0,0)"/>
<path d="" fill="#327591" transform="translate(0,0)"/>
<path d="M0 0 C2 1 2 1 2 1 Z " fill="#317392" transform="translate(741,576)"/>
<path d="M0 0 C2 1 2 1 2 1 Z " fill="#307492" transform="translate(705,545)"/>
<path d="M0 0 C2 1 2 1 2 1 Z " fill="#53A792" transform="translate(344,528)"/>
<path d="M0 0 C2 1 2 1 2 1 Z " fill="#53AB93" transform="translate(352,523)"/>
<path d="M0 0 C2 1 2 1 2 1 Z " fill="#337B94" transform="translate(653,512)"/>
<path d="M0 0 C2 1 2 1 2 1 Z " fill="#337D98" transform="translate(638,505)"/>
<path d="M0 0 C2 1 2 1 2 1 Z " fill="#357E97" transform="translate(636,504)"/>
<path d="" fill="#53A38E" transform="translate(0,0)"/>
<path d="" fill="#59A990" transform="translate(0,0)"/>
<path d="" fill="#5FA98E" transform="translate(0,0)"/>
<path d="" fill="#5CA98D" transform="translate(0,0)"/>
<path d="" fill="#35718E" transform="translate(0,0)"/>
<path d="" fill="#357794" transform="translate(0,0)"/>
<path d="" fill="#59B099" transform="translate(0,0)"/>
<path d="M0 0 C2 1 2 1 2 1 Z " fill="#3A8B9D" transform="translate(622,169)"/>
<path d="M0 0 C2 1 2 1 2 1 Z " fill="#5BAF9B" transform="translate(400,168)"/>
<path d="M0 0 C2 1 2 1 2 1 Z " fill="#3B8B9B" transform="translate(605,160)"/>
<path d="M0 0 C2 1 2 1 2 1 Z " fill="#53A591" transform="translate(316,159)"/>
<path d="" fill="#3E8E99" transform="translate(0,0)"/>
<path d="M0 0 C2 1 2 1 2 1 Z " fill="#3E9097" transform="translate(564,145)"/>
<path d="" fill="#50A999" transform="translate(0,0)"/>
<path d="" fill="#4DA393" transform="translate(0,0)"/>
<path d="M0 0 C2 1 2 1 2 1 Z " fill="#307288" transform="translate(709,89)"/>
<path d="M0 0 C2 1 2 1 2 1 Z " fill="#4D9B89" transform="translate(342,88)"/>
<path d="" fill="#3B898E" transform="translate(0,0)"/>
<path d="" fill="#398A8D" transform="translate(0,0)"/>
<path d="" fill="#387E90" transform="translate(0,0)"/>
<path d="" fill="#368090" transform="translate(0,0)"/>
<path d="" fill="#367D90" transform="translate(0,0)"/>
<path d="" fill="#377F91" transform="translate(0,0)"/>
<path d="" fill="#367F93" transform="translate(0,0)"/>
<path d="" fill="#3D8E91" transform="translate(0,0)"/>
<path d="" fill="#3B8D91" transform="translate(0,0)"/>
<path d="" fill="#327289" transform="translate(0,0)"/>
<path d="" fill="#31778D" transform="translate(0,0)"/>
<path d="" fill="#3F8F91" transform="translate(0,0)"/>
<path d="" fill="#31788D" transform="translate(0,0)"/>
<path d="" fill="#337A8D" transform="translate(0,0)"/>
<path d="" fill="#32768E" transform="translate(0,0)"/>
<path d="" fill="#34768D" transform="translate(0,0)"/>
<path d="" fill="#31758C" transform="translate(0,0)"/>
<path d="" fill="#34798D" transform="translate(0,0)"/>
<path d="" fill="#327A8E" transform="translate(0,0)"/>
<path d="" fill="#40908E" transform="translate(0,0)"/>
<path d="" fill="#327790" transform="translate(0,0)"/>
<path d="" fill="#32758B" transform="translate(0,0)"/>
<path d="" fill="#42928F" transform="translate(0,0)"/>
<path d="" fill="#30758C" transform="translate(0,0)"/>
<path d="" fill="#40908C" transform="translate(0,0)"/>
<path d="" fill="#32758C" transform="translate(0,0)"/>
<path d="" fill="#327792" transform="translate(0,0)"/>
<path d="" fill="#31738E" transform="translate(0,0)"/>
<path d="" fill="#419390" transform="translate(0,0)"/>
<path d="" fill="#32738C" transform="translate(0,0)"/>
<path d="" fill="#2F718C" transform="translate(0,0)"/>
<path d="" fill="#43918F" transform="translate(0,0)"/>
<path d="" fill="#42918B" transform="translate(0,0)"/>
<path d="" fill="#44918F" transform="translate(0,0)"/>
<path d="" fill="#45928D" transform="translate(0,0)"/>
<path d="" fill="#2F708D" transform="translate(0,0)"/>
<path d="" fill="#307189" transform="translate(0,0)"/>
<path d="" fill="#43928D" transform="translate(0,0)"/>
<path d="" fill="#347D96" transform="translate(0,0)"/>
<path d="" fill="#418F8A" transform="translate(0,0)"/>
<path d="" fill="#347E93" transform="translate(0,0)"/>
<path d="" fill="#43918D" transform="translate(0,0)"/>
<path d="" fill="#32778D" transform="translate(0,0)"/>
<path d="" fill="#42928A" transform="translate(0,0)"/>
<path d="" fill="#44948E" transform="translate(0,0)"/>
<path d="" fill="#31748E" transform="translate(0,0)"/>
<path d="" fill="#43938D" transform="translate(0,0)"/>
<path d="" fill="#449588" transform="translate(0,0)"/>
<path d="" fill="#449185" transform="translate(0,0)"/>
<path d="" fill="#469285" transform="translate(0,0)"/>
<path d="" fill="#306F87" transform="translate(0,0)"/>
<path d="" fill="#469286" transform="translate(0,0)"/>
<path d="" fill="#479388" transform="translate(0,0)"/>
<path d="" fill="#499487" transform="translate(0,0)"/>
<path d="" fill="#306E88" transform="translate(0,0)"/>
<path d="" fill="#479587" transform="translate(0,0)"/>
<path d="" fill="#2E6D88" transform="translate(0,0)"/>
<path d="" fill="#4A9788" transform="translate(0,0)"/>
<path d="" fill="#489485" transform="translate(0,0)"/>
<path d="" fill="#4B9986" transform="translate(0,0)"/>
<path d="" fill="#2C6E89" transform="translate(0,0)"/>
<path d="" fill="#5AA48D" transform="translate(0,0)"/>
<path d="" fill="#54A38B" transform="translate(0,0)"/>
<path d="" fill="#56A58C" transform="translate(0,0)"/>
<path d="" fill="#317090" transform="translate(0,0)"/>
<path d="" fill="#55A589" transform="translate(0,0)"/>
<path d="" fill="#5AA78E" transform="translate(0,0)"/>
<path d="" fill="#32728D" transform="translate(0,0)"/>
<path d="" fill="#59A58A" transform="translate(0,0)"/>
<path d="" fill="#327293" transform="translate(0,0)"/>
<path d="" fill="#5BA88C" transform="translate(0,0)"/>
<path d="" fill="#317290" transform="translate(0,0)"/>
<path d="" fill="#5CAA8D" transform="translate(0,0)"/>
<path d="" fill="#33728F" transform="translate(0,0)"/>
<path d="" fill="#357593" transform="translate(0,0)"/>
<path d="" fill="#327394" transform="translate(0,0)"/>
<path d="" fill="#347493" transform="translate(0,0)"/>
<path d="" fill="#66AE90" transform="translate(0,0)"/>
<path d="" fill="#337391" transform="translate(0,0)"/>
<path d="" fill="#5EAD8E" transform="translate(0,0)"/>
<path d="" fill="#327293" transform="translate(0,0)"/>
<path d="" fill="#34728F" transform="translate(0,0)"/>
<path d="" fill="#347594" transform="translate(0,0)"/>
<path d="" fill="#337391" transform="translate(0,0)"/>
<path d="" fill="#347595" transform="translate(0,0)"/>
<path d="" fill="#63AC90" transform="translate(0,0)"/>
<path d="" fill="#327591" transform="translate(0,0)"/>
<path d="" fill="#62AF8E" transform="translate(0,0)"/>
<path d="" fill="#60AF8E" transform="translate(0,0)"/>
<path d="" fill="#62B08E" transform="translate(0,0)"/>
<path d="" fill="#347690" transform="translate(0,0)"/>
<path d="" fill="#367590" transform="translate(0,0)"/>
<path d="" fill="#327693" transform="translate(0,0)"/>
<path d="" fill="#327694" transform="translate(0,0)"/>
<path d="" fill="#67B092" transform="translate(0,0)"/>
<path d="" fill="#347594" transform="translate(0,0)"/>
<path d="" fill="#357490" transform="translate(0,0)"/>
<path d="" fill="#63AF8D" transform="translate(0,0)"/>
<path d="" fill="#357791" transform="translate(0,0)"/>
<path d="" fill="#306F8A" transform="translate(0,0)"/>
<path d="" fill="#317590" transform="translate(0,0)"/>
<path d="" fill="#65B290" transform="translate(0,0)"/>
<path d="" fill="#32728D" transform="translate(0,0)"/>
<path d="" fill="#66B495" transform="translate(0,0)"/>
<path d="" fill="#35758F" transform="translate(0,0)"/>
<path d="" fill="#317590" transform="translate(0,0)"/>
<path d="" fill="#65B08E" transform="translate(0,0)"/>
<path d="" fill="#33748E" transform="translate(0,0)"/>
<path d="" fill="#64AE8E" transform="translate(0,0)"/>
<path d="" fill="#347993" transform="translate(0,0)"/>
<path d="" fill="#62AC8E" transform="translate(0,0)"/>
<path d="" fill="#347291" transform="translate(0,0)"/>
<path d="" fill="#65B091" transform="translate(0,0)"/>
<path d="" fill="#357493" transform="translate(0,0)"/>
<path d="" fill="#307590" transform="translate(0,0)"/>
<path d="" fill="#5EAE8F" transform="translate(0,0)"/>
<path d="" fill="#62AF8D" transform="translate(0,0)"/>
<path d="" fill="#347593" transform="translate(0,0)"/>
<path d="" fill="#5EAB8F" transform="translate(0,0)"/>
<path d="" fill="#337593" transform="translate(0,0)"/>
<path d="" fill="#347595" transform="translate(0,0)"/>
<path d="" fill="#317594" transform="translate(0,0)"/>
<path d="" fill="#5DAA90" transform="translate(0,0)"/>
<path d="" fill="#317391" transform="translate(0,0)"/>
<path d="" fill="#337493" transform="translate(0,0)"/>
<path d="" fill="#337593" transform="translate(0,0)"/>
<path d="" fill="#5EAD8F" transform="translate(0,0)"/>
<path d="" fill="#307595" transform="translate(0,0)"/>
<path d="" fill="#5BA991" transform="translate(0,0)"/>
<path d="" fill="#58AA92" transform="translate(0,0)"/>
<path d="" fill="#317694" transform="translate(0,0)"/>
<path d="" fill="#307591" transform="translate(0,0)"/>
<path d="" fill="#5CAA90" transform="translate(0,0)"/>
<path d="" fill="#59AA90" transform="translate(0,0)"/>
<path d="" fill="#357893" transform="translate(0,0)"/>
<path d="" fill="#57AB90" transform="translate(0,0)"/>
<path d="" fill="#57A891" transform="translate(0,0)"/>
<path d="" fill="#58A993" transform="translate(0,0)"/>
<path d="" fill="#55A98F" transform="translate(0,0)"/>
<path d="" fill="#337996" transform="translate(0,0)"/>
<path d="" fill="#357895" transform="translate(0,0)"/>
<path d="" fill="#327997" transform="translate(0,0)"/>
<path d="" fill="#347A93" transform="translate(0,0)"/>
<path d="" fill="#327894" transform="translate(0,0)"/>
<path d="" fill="#4CA593" transform="translate(0,0)"/>
<path d="" fill="#347895" transform="translate(0,0)"/>
<path d="" fill="#367B98" transform="translate(0,0)"/>
<path d="" fill="#4CA898" transform="translate(0,0)"/>
<path d="" fill="#4CA797" transform="translate(0,0)"/>
<path d="" fill="#388299" transform="translate(0,0)"/>
<path d="" fill="#4DAA98" transform="translate(0,0)"/>
<path d="" fill="#3B8198" transform="translate(0,0)"/>
<path d="" fill="#4CA795" transform="translate(0,0)"/>
<path d="" fill="#4EAC98" transform="translate(0,0)"/>
<path d="" fill="#4FAA97" transform="translate(0,0)"/>
<path d="" fill="#4EA997" transform="translate(0,0)"/>
<path d="" fill="#50A695" transform="translate(0,0)"/>
<path d="" fill="#50A795" transform="translate(0,0)"/>
<path d="" fill="#357B99" transform="translate(0,0)"/>
<path d="" fill="#50A795" transform="translate(0,0)"/>
<path d="" fill="#347693" transform="translate(0,0)"/>
<path d="" fill="#357593" transform="translate(0,0)"/>
<path d="" fill="#50A590" transform="translate(0,0)"/>
<path d="" fill="#4DA28E" transform="translate(0,0)"/>
<path d="" fill="#337694" transform="translate(0,0)"/>
<path d="" fill="#347693" transform="translate(0,0)"/>
<path d="" fill="#53A593" transform="translate(0,0)"/>
<path d="" fill="#51A691" transform="translate(0,0)"/>
<path d="" fill="#51A48F" transform="translate(0,0)"/>
<path d="" fill="#337495" transform="translate(0,0)"/>
<path d="" fill="#347391" transform="translate(0,0)"/>
<path d="" fill="#53A58D" transform="translate(0,0)"/>
<path d="" fill="#326F90" transform="translate(0,0)"/>
<path d="" fill="#4FA38F" transform="translate(0,0)"/>
<path d="" fill="#337392" transform="translate(0,0)"/>
<path d="" fill="#54A28D" transform="translate(0,0)"/>
<path d="" fill="#56A38D" transform="translate(0,0)"/>
<path d="" fill="#55A68E" transform="translate(0,0)"/>
<path d="" fill="#53A58D" transform="translate(0,0)"/>
<path d="" fill="#59A78F" transform="translate(0,0)"/>
<path d="" fill="#317292" transform="translate(0,0)"/>
<path d="" fill="#327391" transform="translate(0,0)"/>
<path d="" fill="#357592" transform="translate(0,0)"/>
<path d="" fill="#5EAC8E" transform="translate(0,0)"/>
<path d="" fill="#5EAC90" transform="translate(0,0)"/>
<path d="" fill="#367594" transform="translate(0,0)"/>
<path d="" fill="#5DAD90" transform="translate(0,0)"/>
<path d="" fill="#63B090" transform="translate(0,0)"/>
<path d="" fill="#367592" transform="translate(0,0)"/>
<path d="" fill="#347695" transform="translate(0,0)"/>
<path d="" fill="#347895" transform="translate(0,0)"/>
<path d="" fill="#357796" transform="translate(0,0)"/>
<path d="" fill="#62B091" transform="translate(0,0)"/>
<path d="" fill="#337A97" transform="translate(0,0)"/>
<path d="" fill="#347C98" transform="translate(0,0)"/>
<path d="" fill="#347B98" transform="translate(0,0)"/>
<path d="" fill="#63B497" transform="translate(0,0)"/>
<path d="" fill="#60B496" transform="translate(0,0)"/>
<path d="" fill="#387E9B" transform="translate(0,0)"/>
<path d="" fill="#60B194" transform="translate(0,0)"/>
<path d="" fill="#5FAF92" transform="translate(0,0)"/>
<path d="" fill="#367F9B" transform="translate(0,0)"/>
<path d="" fill="#337B9A" transform="translate(0,0)"/>
<path d="" fill="#61B197" transform="translate(0,0)"/>
<path d="" fill="#38839D" transform="translate(0,0)"/>
<path d="" fill="#5AAF98" transform="translate(0,0)"/>
<path d="" fill="#35839C" transform="translate(0,0)"/>
<path d="" fill="#57B096" transform="translate(0,0)"/>
<path d="" fill="#357F9D" transform="translate(0,0)"/>
<path d="" fill="#53AA94" transform="translate(0,0)"/>
<path d="" fill="#56AE96" transform="translate(0,0)"/>
<path d="" fill="#55AC95" transform="translate(0,0)"/>
<path d="" fill="#56AC96" transform="translate(0,0)"/>
<path d="" fill="#57AB96" transform="translate(0,0)"/>
<path d="" fill="#3E8FA3" transform="translate(0,0)"/>
<path d="" fill="#357F9A" transform="translate(0,0)"/>
<path d="" fill="#55AB94" transform="translate(0,0)"/>
<path d="" fill="#3B8A9D" transform="translate(0,0)"/>
<path d="" fill="#58B09B" transform="translate(0,0)"/>
<path d="" fill="#3E8E9D" transform="translate(0,0)"/>
<path d="" fill="#3B8CA0" transform="translate(0,0)"/>
<path d="" fill="#58AA94" transform="translate(0,0)"/>
<path d="" fill="#3C8C9D" transform="translate(0,0)"/>
<path d="" fill="#56AA98" transform="translate(0,0)"/>
<path d="" fill="#53AE99" transform="translate(0,0)"/>
<path d="" fill="#337D98" transform="translate(0,0)"/>
<path d="" fill="#357A96" transform="translate(0,0)"/>
<path d="" fill="#51A392" transform="translate(0,0)"/>
<path d="" fill="#3E8CA0" transform="translate(0,0)"/>
<path d="" fill="#53AD99" transform="translate(0,0)"/>
<path d="" fill="#3D8B99" transform="translate(0,0)"/>
<path d="" fill="#3B8E9B" transform="translate(0,0)"/>
<path d="" fill="#3A899D" transform="translate(0,0)"/>
<path d="" fill="#408E96" transform="translate(0,0)"/>
<path d="" fill="#3E9197" transform="translate(0,0)"/>
<path d="" fill="#50A698" transform="translate(0,0)"/>
<path d="" fill="#3C8A9F" transform="translate(0,0)"/>
<path d="" fill="#4DA597" transform="translate(0,0)"/>
<path d="" fill="#4DA699" transform="translate(0,0)"/>
<path d="" fill="#539E89" transform="translate(0,0)"/>
<path d="" fill="#4CA398" transform="translate(0,0)"/>
<path d="" fill="#3E8E98" transform="translate(0,0)"/>
<path d="" fill="#31738E" transform="translate(0,0)"/>
<path d="" fill="#3C8BA1" transform="translate(0,0)"/>
<path d="" fill="#409495" transform="translate(0,0)"/>
<path d="" fill="#499F92" transform="translate(0,0)"/>
<path d="" fill="#4B9F94" transform="translate(0,0)"/>
<path d="" fill="#419694" transform="translate(0,0)"/>
<path d="" fill="#419493" transform="translate(0,0)"/>
<path d="" fill="#489D94" transform="translate(0,0)"/>
<path d="" fill="#449695" transform="translate(0,0)"/>
<path d="" fill="#3C899C" transform="translate(0,0)"/>
<path d="" fill="#419592" transform="translate(0,0)"/>
<path d="" fill="#429893" transform="translate(0,0)"/>
<path d="" fill="#539988" transform="translate(0,0)"/>
<path d="" fill="#31718B" transform="translate(0,0)"/>
<path d="" fill="#378699" transform="translate(0,0)"/>
<path d="" fill="#4EA697" transform="translate(0,0)"/>
<path d="" fill="#4DA294" transform="translate(0,0)"/>
<path d="" fill="#4EA295" transform="translate(0,0)"/>
<path d="" fill="#4DA291" transform="translate(0,0)"/>
<path d="" fill="#398395" transform="translate(0,0)"/>
<path d="" fill="#4DA391" transform="translate(0,0)"/>
<path d="" fill="#398295" transform="translate(0,0)"/>
<path d="" fill="#4FA08F" transform="translate(0,0)"/>
<path d="" fill="#539B87" transform="translate(0,0)"/>
<path d="" fill="#2D728A" transform="translate(0,0)"/>
<path d="" fill="#397E90" transform="translate(0,0)"/>
<path d="" fill="#509F8C" transform="translate(0,0)"/>
<path d="" fill="#549D85" transform="translate(0,0)"/>
<path d="" fill="#387D91" transform="translate(0,0)"/>
<path d="" fill="#367D8E" transform="translate(0,0)"/>
<path d="" fill="#539C88" transform="translate(0,0)"/>
<path d="" fill="#317387" transform="translate(0,0)"/>
<path d="" fill="#32758A" transform="translate(0,0)"/>
<path d="" fill="#36788C" transform="translate(0,0)"/>
<path d="" fill="#367B8B" transform="translate(0,0)"/>
</svg>
