<svg xmlns="http://www.w3.org/2000/svg" viewBox="0 0 48 48">
  <!-- Background -->
  <rect x="0" y="0" width="48" height="48" rx="4" fill="#0000A0" stroke="#000000" stroke-width="1" />
  
  <!-- Sun -->
  <circle cx="24" cy="20" r="8" fill="#FFF700" stroke="#FFA500" stroke-width="1" />
  <path d="M24 8V10M24 30v2M12 20H10m28 0h-2m-19-7l-2-2m22 0l-2 2m0 12l2 2m-22-2l-2 2" stroke="#FFF700" stroke-width="2" />
  
  <!-- Clouds -->
  <path d="M36 30A8 8 0 0 0 20 30a6 6 0 0 0 0 12h16a6 6 0 0 0 0-12z" fill="#FFFFFF" stroke="#CCCCCC" />
  
  <!-- Calendar -->
  <rect x="10" y="25" width="14" height="14" rx="2" fill="#FFFFFF" stroke="#000000" />
  <rect x="12" y="29" width="2" height="2" fill="#FF0000" />
  <rect x="16" y="29" width="2" height="2" fill="#000000" />
  <rect x="20" y="29" width="2" height="2" fill="#000000" />
  <rect x="12" y="33" width="2" height="2" fill="#000000" />
  <rect x="16" y="33" width="2" height="2" fill="#000000" />
  <rect x="20" y="33" width="2" height="2" fill="#000000" />
  <path d="M10 29H24" stroke="#000000" stroke-width="1" />
</svg> 